M48
; DRILL file {KiCad 7.0.5} date Thu Mar  7 15:26:56 2024
; FORMAT={-:-/ absolute / inch / decimal}
; #@! TF.CreationDate,2024-03-07T15:26:56+01:00
; #@! TF.GenerationSoftware,Kicad,Pcbnew,7.0.5
; #@! TF.FileFunction,Plated,1,2,PTH
FMAT,2
INCH
; #@! TA.AperFunction,Plated,PTH,ComponentDrill
T1C0.0315
; #@! TA.AperFunction,Plated,PTH,ComponentDrill
T2C0.0354
; #@! TA.AperFunction,Plated,PTH,ComponentDrill
T3C0.0394
; #@! TA.AperFunction,Plated,PTH,ComponentDrill
T4C0.0472
; #@! TA.AperFunction,Plated,PTH,ComponentDrill
T5C0.0512
%
G90
G05
T1
X0.3474Y-1.9776
X0.3474Y-2.2776
X0.4474Y-1.9776
X0.4474Y-2.2776
X0.5474Y-1.9776
X0.5474Y-2.2776
X0.6474Y-1.9776
X0.6474Y-2.2776
X0.7474Y-1.9776
X0.7474Y-2.2776
X0.8474Y-1.9776
X0.8474Y-2.2776
X0.9474Y-1.9776
X0.9474Y-2.2776
X1.0474Y-1.9776
X1.0474Y-2.2776
X1.1474Y-1.9776
X1.1474Y-2.2776
X1.2474Y-1.9776
X1.2474Y-2.2776
X1.3474Y-1.9776
X1.3474Y-2.2776
X1.4474Y-1.9776
X1.4474Y-2.2776
X1.5474Y-1.9776
X1.5474Y-2.2776
X1.6474Y-1.9776
X1.6474Y-2.2776
T2
X0.8224Y-0.9276
X0.8224Y-1.0276
X1.8224Y-2.1776
X1.8224Y-2.2776
X1.8474Y-1.1276
X1.8474Y-1.2276
T3
X1.2474Y-1.6276
X1.2474Y-1.7276
X1.3474Y-1.6276
X1.3474Y-1.7276
X1.4474Y-1.6276
X1.4474Y-1.7276
T4
X1.2474Y-0.9276
X1.2474Y-1.1244
X2.6474Y-1.0776
X2.6474Y-1.1776
X2.6474Y-1.2776
T5
X0.3474Y-0.6026
X0.3474Y-0.7994
X2.1724Y-1.9807
X2.1724Y-2.1776
X2.7974Y-0.6057
X2.7974Y-0.8026
T0
M30
