%TF.GenerationSoftware,KiCad,Pcbnew,7.0.5*%
%TF.CreationDate,2024-03-07T15:26:59+01:00*%
%TF.ProjectId,g4_doorbell_module,67345f64-6f6f-4726-9265-6c6c5f6d6f64,rev?*%
%TF.SameCoordinates,Original*%
%TF.FileFunction,Legend,Top*%
%TF.FilePolarity,Positive*%
%FSLAX46Y46*%
G04 Gerber Fmt 4.6, Leading zero omitted, Abs format (unit mm)*
G04 Created by KiCad (PCBNEW 7.0.5) date 2024-03-07 15:26:59*
%MOMM*%
%LPD*%
G01*
G04 APERTURE LIST*
%ADD10C,0.200000*%
%ADD11C,0.150000*%
%ADD12C,0.120000*%
G04 APERTURE END LIST*
D10*
X62822028Y-60106136D02*
X62822028Y-59177564D01*
X62822028Y-59177564D02*
X63393457Y-59677564D01*
X63393457Y-59677564D02*
X63393457Y-59463279D01*
X63393457Y-59463279D02*
X63464885Y-59320422D01*
X63464885Y-59320422D02*
X63536314Y-59248993D01*
X63536314Y-59248993D02*
X63679171Y-59177564D01*
X63679171Y-59177564D02*
X64036314Y-59177564D01*
X64036314Y-59177564D02*
X64179171Y-59248993D01*
X64179171Y-59248993D02*
X64250600Y-59320422D01*
X64250600Y-59320422D02*
X64322028Y-59463279D01*
X64322028Y-59463279D02*
X64322028Y-59891850D01*
X64322028Y-59891850D02*
X64250600Y-60034707D01*
X64250600Y-60034707D02*
X64179171Y-60106136D01*
X62822028Y-58748993D02*
X64322028Y-58248993D01*
X64322028Y-58248993D02*
X62822028Y-57748993D01*
X63322028Y-56106137D02*
X64822028Y-56106137D01*
X63393457Y-56106137D02*
X63322028Y-55963280D01*
X63322028Y-55963280D02*
X63322028Y-55677565D01*
X63322028Y-55677565D02*
X63393457Y-55534708D01*
X63393457Y-55534708D02*
X63464885Y-55463280D01*
X63464885Y-55463280D02*
X63607742Y-55391851D01*
X63607742Y-55391851D02*
X64036314Y-55391851D01*
X64036314Y-55391851D02*
X64179171Y-55463280D01*
X64179171Y-55463280D02*
X64250600Y-55534708D01*
X64250600Y-55534708D02*
X64322028Y-55677565D01*
X64322028Y-55677565D02*
X64322028Y-55963280D01*
X64322028Y-55963280D02*
X64250600Y-56106137D01*
X63322028Y-54106137D02*
X64322028Y-54106137D01*
X63322028Y-54748994D02*
X64107742Y-54748994D01*
X64107742Y-54748994D02*
X64250600Y-54677565D01*
X64250600Y-54677565D02*
X64322028Y-54534708D01*
X64322028Y-54534708D02*
X64322028Y-54320422D01*
X64322028Y-54320422D02*
X64250600Y-54177565D01*
X64250600Y-54177565D02*
X64179171Y-54106137D01*
X64250600Y-53463279D02*
X64322028Y-53320422D01*
X64322028Y-53320422D02*
X64322028Y-53034708D01*
X64322028Y-53034708D02*
X64250600Y-52891851D01*
X64250600Y-52891851D02*
X64107742Y-52820422D01*
X64107742Y-52820422D02*
X64036314Y-52820422D01*
X64036314Y-52820422D02*
X63893457Y-52891851D01*
X63893457Y-52891851D02*
X63822028Y-53034708D01*
X63822028Y-53034708D02*
X63822028Y-53248994D01*
X63822028Y-53248994D02*
X63750600Y-53391851D01*
X63750600Y-53391851D02*
X63607742Y-53463279D01*
X63607742Y-53463279D02*
X63536314Y-53463279D01*
X63536314Y-53463279D02*
X63393457Y-53391851D01*
X63393457Y-53391851D02*
X63322028Y-53248994D01*
X63322028Y-53248994D02*
X63322028Y-53034708D01*
X63322028Y-53034708D02*
X63393457Y-52891851D01*
X64322028Y-52177565D02*
X62822028Y-52177565D01*
X64322028Y-51534708D02*
X63536314Y-51534708D01*
X63536314Y-51534708D02*
X63393457Y-51606136D01*
X63393457Y-51606136D02*
X63322028Y-51748993D01*
X63322028Y-51748993D02*
X63322028Y-51963279D01*
X63322028Y-51963279D02*
X63393457Y-52106136D01*
X63393457Y-52106136D02*
X63464885Y-52177565D01*
X64322028Y-50820422D02*
X62822028Y-50820422D01*
X63393457Y-50820422D02*
X63322028Y-50677565D01*
X63322028Y-50677565D02*
X63322028Y-50391850D01*
X63322028Y-50391850D02*
X63393457Y-50248993D01*
X63393457Y-50248993D02*
X63464885Y-50177565D01*
X63464885Y-50177565D02*
X63607742Y-50106136D01*
X63607742Y-50106136D02*
X64036314Y-50106136D01*
X64036314Y-50106136D02*
X64179171Y-50177565D01*
X64179171Y-50177565D02*
X64250600Y-50248993D01*
X64250600Y-50248993D02*
X64322028Y-50391850D01*
X64322028Y-50391850D02*
X64322028Y-50677565D01*
X64322028Y-50677565D02*
X64250600Y-50820422D01*
X63322028Y-48820422D02*
X64322028Y-48820422D01*
X63322028Y-49463279D02*
X64107742Y-49463279D01*
X64107742Y-49463279D02*
X64250600Y-49391850D01*
X64250600Y-49391850D02*
X64322028Y-49248993D01*
X64322028Y-49248993D02*
X64322028Y-49034707D01*
X64322028Y-49034707D02*
X64250600Y-48891850D01*
X64250600Y-48891850D02*
X64179171Y-48820422D01*
X63322028Y-48320421D02*
X63322028Y-47748993D01*
X62822028Y-48106136D02*
X64107742Y-48106136D01*
X64107742Y-48106136D02*
X64250600Y-48034707D01*
X64250600Y-48034707D02*
X64322028Y-47891850D01*
X64322028Y-47891850D02*
X64322028Y-47748993D01*
X63322028Y-47463278D02*
X63322028Y-46891850D01*
X62822028Y-47248993D02*
X64107742Y-47248993D01*
X64107742Y-47248993D02*
X64250600Y-47177564D01*
X64250600Y-47177564D02*
X64322028Y-47034707D01*
X64322028Y-47034707D02*
X64322028Y-46891850D01*
X64322028Y-46177564D02*
X64250600Y-46320421D01*
X64250600Y-46320421D02*
X64179171Y-46391850D01*
X64179171Y-46391850D02*
X64036314Y-46463278D01*
X64036314Y-46463278D02*
X63607742Y-46463278D01*
X63607742Y-46463278D02*
X63464885Y-46391850D01*
X63464885Y-46391850D02*
X63393457Y-46320421D01*
X63393457Y-46320421D02*
X63322028Y-46177564D01*
X63322028Y-46177564D02*
X63322028Y-45963278D01*
X63322028Y-45963278D02*
X63393457Y-45820421D01*
X63393457Y-45820421D02*
X63464885Y-45748993D01*
X63464885Y-45748993D02*
X63607742Y-45677564D01*
X63607742Y-45677564D02*
X64036314Y-45677564D01*
X64036314Y-45677564D02*
X64179171Y-45748993D01*
X64179171Y-45748993D02*
X64250600Y-45820421D01*
X64250600Y-45820421D02*
X64322028Y-45963278D01*
X64322028Y-45963278D02*
X64322028Y-46177564D01*
X63322028Y-45034707D02*
X64322028Y-45034707D01*
X63464885Y-45034707D02*
X63393457Y-44963278D01*
X63393457Y-44963278D02*
X63322028Y-44820421D01*
X63322028Y-44820421D02*
X63322028Y-44606135D01*
X63322028Y-44606135D02*
X63393457Y-44463278D01*
X63393457Y-44463278D02*
X63536314Y-44391850D01*
X63536314Y-44391850D02*
X64322028Y-44391850D01*
X1717971Y-9378720D02*
X3217971Y-9378720D01*
X2646542Y-9378720D02*
X2717971Y-9521578D01*
X2717971Y-9521578D02*
X2717971Y-9807292D01*
X2717971Y-9807292D02*
X2646542Y-9950149D01*
X2646542Y-9950149D02*
X2575114Y-10021578D01*
X2575114Y-10021578D02*
X2432257Y-10093006D01*
X2432257Y-10093006D02*
X2003685Y-10093006D01*
X2003685Y-10093006D02*
X1860828Y-10021578D01*
X1860828Y-10021578D02*
X1789400Y-9950149D01*
X1789400Y-9950149D02*
X1717971Y-9807292D01*
X1717971Y-9807292D02*
X1717971Y-9521578D01*
X1717971Y-9521578D02*
X1789400Y-9378720D01*
X1789400Y-11307292D02*
X1717971Y-11164435D01*
X1717971Y-11164435D02*
X1717971Y-10878721D01*
X1717971Y-10878721D02*
X1789400Y-10735863D01*
X1789400Y-10735863D02*
X1932257Y-10664435D01*
X1932257Y-10664435D02*
X2503685Y-10664435D01*
X2503685Y-10664435D02*
X2646542Y-10735863D01*
X2646542Y-10735863D02*
X2717971Y-10878721D01*
X2717971Y-10878721D02*
X2717971Y-11164435D01*
X2717971Y-11164435D02*
X2646542Y-11307292D01*
X2646542Y-11307292D02*
X2503685Y-11378721D01*
X2503685Y-11378721D02*
X2360828Y-11378721D01*
X2360828Y-11378721D02*
X2217971Y-10664435D01*
X1717971Y-12235863D02*
X1789400Y-12093006D01*
X1789400Y-12093006D02*
X1932257Y-12021577D01*
X1932257Y-12021577D02*
X3217971Y-12021577D01*
X1717971Y-13021577D02*
X1789400Y-12878720D01*
X1789400Y-12878720D02*
X1932257Y-12807291D01*
X1932257Y-12807291D02*
X3217971Y-12807291D01*
X2717971Y-14521577D02*
X2717971Y-15093005D01*
X3217971Y-14735862D02*
X1932257Y-14735862D01*
X1932257Y-14735862D02*
X1789400Y-14807291D01*
X1789400Y-14807291D02*
X1717971Y-14950148D01*
X1717971Y-14950148D02*
X1717971Y-15093005D01*
X1717971Y-15593005D02*
X2717971Y-15593005D01*
X2432257Y-15593005D02*
X2575114Y-15664434D01*
X2575114Y-15664434D02*
X2646542Y-15735863D01*
X2646542Y-15735863D02*
X2717971Y-15878720D01*
X2717971Y-15878720D02*
X2717971Y-16021577D01*
X1717971Y-17164434D02*
X2503685Y-17164434D01*
X2503685Y-17164434D02*
X2646542Y-17093005D01*
X2646542Y-17093005D02*
X2717971Y-16950148D01*
X2717971Y-16950148D02*
X2717971Y-16664434D01*
X2717971Y-16664434D02*
X2646542Y-16521576D01*
X1789400Y-17164434D02*
X1717971Y-17021576D01*
X1717971Y-17021576D02*
X1717971Y-16664434D01*
X1717971Y-16664434D02*
X1789400Y-16521576D01*
X1789400Y-16521576D02*
X1932257Y-16450148D01*
X1932257Y-16450148D02*
X2075114Y-16450148D01*
X2075114Y-16450148D02*
X2217971Y-16521576D01*
X2217971Y-16521576D02*
X2289400Y-16664434D01*
X2289400Y-16664434D02*
X2289400Y-17021576D01*
X2289400Y-17021576D02*
X2360828Y-17164434D01*
X2717971Y-17878719D02*
X1717971Y-17878719D01*
X2575114Y-17878719D02*
X2646542Y-17950148D01*
X2646542Y-17950148D02*
X2717971Y-18093005D01*
X2717971Y-18093005D02*
X2717971Y-18307291D01*
X2717971Y-18307291D02*
X2646542Y-18450148D01*
X2646542Y-18450148D02*
X2503685Y-18521577D01*
X2503685Y-18521577D02*
X1717971Y-18521577D01*
X1789400Y-19164434D02*
X1717971Y-19307291D01*
X1717971Y-19307291D02*
X1717971Y-19593005D01*
X1717971Y-19593005D02*
X1789400Y-19735862D01*
X1789400Y-19735862D02*
X1932257Y-19807291D01*
X1932257Y-19807291D02*
X2003685Y-19807291D01*
X2003685Y-19807291D02*
X2146542Y-19735862D01*
X2146542Y-19735862D02*
X2217971Y-19593005D01*
X2217971Y-19593005D02*
X2217971Y-19378720D01*
X2217971Y-19378720D02*
X2289400Y-19235862D01*
X2289400Y-19235862D02*
X2432257Y-19164434D01*
X2432257Y-19164434D02*
X2503685Y-19164434D01*
X2503685Y-19164434D02*
X2646542Y-19235862D01*
X2646542Y-19235862D02*
X2717971Y-19378720D01*
X2717971Y-19378720D02*
X2717971Y-19593005D01*
X2717971Y-19593005D02*
X2646542Y-19735862D01*
X2717971Y-20235863D02*
X2717971Y-20807291D01*
X1717971Y-20450148D02*
X3003685Y-20450148D01*
X3003685Y-20450148D02*
X3146542Y-20521577D01*
X3146542Y-20521577D02*
X3217971Y-20664434D01*
X3217971Y-20664434D02*
X3217971Y-20807291D01*
X1717971Y-21521577D02*
X1789400Y-21378720D01*
X1789400Y-21378720D02*
X1860828Y-21307291D01*
X1860828Y-21307291D02*
X2003685Y-21235863D01*
X2003685Y-21235863D02*
X2432257Y-21235863D01*
X2432257Y-21235863D02*
X2575114Y-21307291D01*
X2575114Y-21307291D02*
X2646542Y-21378720D01*
X2646542Y-21378720D02*
X2717971Y-21521577D01*
X2717971Y-21521577D02*
X2717971Y-21735863D01*
X2717971Y-21735863D02*
X2646542Y-21878720D01*
X2646542Y-21878720D02*
X2575114Y-21950149D01*
X2575114Y-21950149D02*
X2432257Y-22021577D01*
X2432257Y-22021577D02*
X2003685Y-22021577D01*
X2003685Y-22021577D02*
X1860828Y-21950149D01*
X1860828Y-21950149D02*
X1789400Y-21878720D01*
X1789400Y-21878720D02*
X1717971Y-21735863D01*
X1717971Y-21735863D02*
X1717971Y-21521577D01*
X1717971Y-22664434D02*
X2717971Y-22664434D01*
X2432257Y-22664434D02*
X2575114Y-22735863D01*
X2575114Y-22735863D02*
X2646542Y-22807292D01*
X2646542Y-22807292D02*
X2717971Y-22950149D01*
X2717971Y-22950149D02*
X2717971Y-23093006D01*
X1717971Y-23593005D02*
X2717971Y-23593005D01*
X2575114Y-23593005D02*
X2646542Y-23664434D01*
X2646542Y-23664434D02*
X2717971Y-23807291D01*
X2717971Y-23807291D02*
X2717971Y-24021577D01*
X2717971Y-24021577D02*
X2646542Y-24164434D01*
X2646542Y-24164434D02*
X2503685Y-24235863D01*
X2503685Y-24235863D02*
X1717971Y-24235863D01*
X2503685Y-24235863D02*
X2646542Y-24307291D01*
X2646542Y-24307291D02*
X2717971Y-24450148D01*
X2717971Y-24450148D02*
X2717971Y-24664434D01*
X2717971Y-24664434D02*
X2646542Y-24807291D01*
X2646542Y-24807291D02*
X2503685Y-24878720D01*
X2503685Y-24878720D02*
X1717971Y-24878720D01*
X1789400Y-26164434D02*
X1717971Y-26021577D01*
X1717971Y-26021577D02*
X1717971Y-25735863D01*
X1717971Y-25735863D02*
X1789400Y-25593005D01*
X1789400Y-25593005D02*
X1932257Y-25521577D01*
X1932257Y-25521577D02*
X2503685Y-25521577D01*
X2503685Y-25521577D02*
X2646542Y-25593005D01*
X2646542Y-25593005D02*
X2717971Y-25735863D01*
X2717971Y-25735863D02*
X2717971Y-26021577D01*
X2717971Y-26021577D02*
X2646542Y-26164434D01*
X2646542Y-26164434D02*
X2503685Y-26235863D01*
X2503685Y-26235863D02*
X2360828Y-26235863D01*
X2360828Y-26235863D02*
X2217971Y-25521577D01*
X1717971Y-26878719D02*
X2717971Y-26878719D01*
X2432257Y-26878719D02*
X2575114Y-26950148D01*
X2575114Y-26950148D02*
X2646542Y-27021577D01*
X2646542Y-27021577D02*
X2717971Y-27164434D01*
X2717971Y-27164434D02*
X2717971Y-27307291D01*
X61210600Y-56915279D02*
X61210600Y-55772422D01*
X61210600Y-50486708D02*
X61210600Y-49343851D01*
X61782028Y-49915279D02*
X60639171Y-49915279D01*
X76355457Y-23109564D02*
X76284028Y-23252422D01*
X76284028Y-23252422D02*
X76284028Y-23466707D01*
X76284028Y-23466707D02*
X76355457Y-23680993D01*
X76355457Y-23680993D02*
X76498314Y-23823850D01*
X76498314Y-23823850D02*
X76641171Y-23895279D01*
X76641171Y-23895279D02*
X76926885Y-23966707D01*
X76926885Y-23966707D02*
X77141171Y-23966707D01*
X77141171Y-23966707D02*
X77426885Y-23895279D01*
X77426885Y-23895279D02*
X77569742Y-23823850D01*
X77569742Y-23823850D02*
X77712600Y-23680993D01*
X77712600Y-23680993D02*
X77784028Y-23466707D01*
X77784028Y-23466707D02*
X77784028Y-23323850D01*
X77784028Y-23323850D02*
X77712600Y-23109564D01*
X77712600Y-23109564D02*
X77641171Y-23038136D01*
X77641171Y-23038136D02*
X77141171Y-23038136D01*
X77141171Y-23038136D02*
X77141171Y-23323850D01*
X76784028Y-21752422D02*
X77784028Y-21752422D01*
X76212600Y-22109564D02*
X77284028Y-22466707D01*
X77284028Y-22466707D02*
X77284028Y-21538136D01*
X77784028Y-19180994D02*
X76284028Y-19180994D01*
X77712600Y-19180994D02*
X77784028Y-19323851D01*
X77784028Y-19323851D02*
X77784028Y-19609565D01*
X77784028Y-19609565D02*
X77712600Y-19752422D01*
X77712600Y-19752422D02*
X77641171Y-19823851D01*
X77641171Y-19823851D02*
X77498314Y-19895279D01*
X77498314Y-19895279D02*
X77069742Y-19895279D01*
X77069742Y-19895279D02*
X76926885Y-19823851D01*
X76926885Y-19823851D02*
X76855457Y-19752422D01*
X76855457Y-19752422D02*
X76784028Y-19609565D01*
X76784028Y-19609565D02*
X76784028Y-19323851D01*
X76784028Y-19323851D02*
X76855457Y-19180994D01*
X77784028Y-18252422D02*
X77712600Y-18395279D01*
X77712600Y-18395279D02*
X77641171Y-18466708D01*
X77641171Y-18466708D02*
X77498314Y-18538136D01*
X77498314Y-18538136D02*
X77069742Y-18538136D01*
X77069742Y-18538136D02*
X76926885Y-18466708D01*
X76926885Y-18466708D02*
X76855457Y-18395279D01*
X76855457Y-18395279D02*
X76784028Y-18252422D01*
X76784028Y-18252422D02*
X76784028Y-18038136D01*
X76784028Y-18038136D02*
X76855457Y-17895279D01*
X76855457Y-17895279D02*
X76926885Y-17823851D01*
X76926885Y-17823851D02*
X77069742Y-17752422D01*
X77069742Y-17752422D02*
X77498314Y-17752422D01*
X77498314Y-17752422D02*
X77641171Y-17823851D01*
X77641171Y-17823851D02*
X77712600Y-17895279D01*
X77712600Y-17895279D02*
X77784028Y-18038136D01*
X77784028Y-18038136D02*
X77784028Y-18252422D01*
X77784028Y-16895279D02*
X77712600Y-17038136D01*
X77712600Y-17038136D02*
X77641171Y-17109565D01*
X77641171Y-17109565D02*
X77498314Y-17180993D01*
X77498314Y-17180993D02*
X77069742Y-17180993D01*
X77069742Y-17180993D02*
X76926885Y-17109565D01*
X76926885Y-17109565D02*
X76855457Y-17038136D01*
X76855457Y-17038136D02*
X76784028Y-16895279D01*
X76784028Y-16895279D02*
X76784028Y-16680993D01*
X76784028Y-16680993D02*
X76855457Y-16538136D01*
X76855457Y-16538136D02*
X76926885Y-16466708D01*
X76926885Y-16466708D02*
X77069742Y-16395279D01*
X77069742Y-16395279D02*
X77498314Y-16395279D01*
X77498314Y-16395279D02*
X77641171Y-16466708D01*
X77641171Y-16466708D02*
X77712600Y-16538136D01*
X77712600Y-16538136D02*
X77784028Y-16680993D01*
X77784028Y-16680993D02*
X77784028Y-16895279D01*
X77784028Y-15752422D02*
X76784028Y-15752422D01*
X77069742Y-15752422D02*
X76926885Y-15680993D01*
X76926885Y-15680993D02*
X76855457Y-15609565D01*
X76855457Y-15609565D02*
X76784028Y-15466707D01*
X76784028Y-15466707D02*
X76784028Y-15323850D01*
X77784028Y-14823851D02*
X76284028Y-14823851D01*
X76855457Y-14823851D02*
X76784028Y-14680994D01*
X76784028Y-14680994D02*
X76784028Y-14395279D01*
X76784028Y-14395279D02*
X76855457Y-14252422D01*
X76855457Y-14252422D02*
X76926885Y-14180994D01*
X76926885Y-14180994D02*
X77069742Y-14109565D01*
X77069742Y-14109565D02*
X77498314Y-14109565D01*
X77498314Y-14109565D02*
X77641171Y-14180994D01*
X77641171Y-14180994D02*
X77712600Y-14252422D01*
X77712600Y-14252422D02*
X77784028Y-14395279D01*
X77784028Y-14395279D02*
X77784028Y-14680994D01*
X77784028Y-14680994D02*
X77712600Y-14823851D01*
X77712600Y-12895279D02*
X77784028Y-13038136D01*
X77784028Y-13038136D02*
X77784028Y-13323851D01*
X77784028Y-13323851D02*
X77712600Y-13466708D01*
X77712600Y-13466708D02*
X77569742Y-13538136D01*
X77569742Y-13538136D02*
X76998314Y-13538136D01*
X76998314Y-13538136D02*
X76855457Y-13466708D01*
X76855457Y-13466708D02*
X76784028Y-13323851D01*
X76784028Y-13323851D02*
X76784028Y-13038136D01*
X76784028Y-13038136D02*
X76855457Y-12895279D01*
X76855457Y-12895279D02*
X76998314Y-12823851D01*
X76998314Y-12823851D02*
X77141171Y-12823851D01*
X77141171Y-12823851D02*
X77284028Y-13538136D01*
X77784028Y-11966708D02*
X77712600Y-12109565D01*
X77712600Y-12109565D02*
X77569742Y-12180994D01*
X77569742Y-12180994D02*
X76284028Y-12180994D01*
X77784028Y-11180994D02*
X77712600Y-11323851D01*
X77712600Y-11323851D02*
X77569742Y-11395280D01*
X77569742Y-11395280D02*
X76284028Y-11395280D01*
D11*
%TO.C,C2*%
X39794580Y-26226666D02*
X39842200Y-26274285D01*
X39842200Y-26274285D02*
X39889819Y-26417142D01*
X39889819Y-26417142D02*
X39889819Y-26512380D01*
X39889819Y-26512380D02*
X39842200Y-26655237D01*
X39842200Y-26655237D02*
X39746961Y-26750475D01*
X39746961Y-26750475D02*
X39651723Y-26798094D01*
X39651723Y-26798094D02*
X39461247Y-26845713D01*
X39461247Y-26845713D02*
X39318390Y-26845713D01*
X39318390Y-26845713D02*
X39127914Y-26798094D01*
X39127914Y-26798094D02*
X39032676Y-26750475D01*
X39032676Y-26750475D02*
X38937438Y-26655237D01*
X38937438Y-26655237D02*
X38889819Y-26512380D01*
X38889819Y-26512380D02*
X38889819Y-26417142D01*
X38889819Y-26417142D02*
X38937438Y-26274285D01*
X38937438Y-26274285D02*
X38985057Y-26226666D01*
X38985057Y-25845713D02*
X38937438Y-25798094D01*
X38937438Y-25798094D02*
X38889819Y-25702856D01*
X38889819Y-25702856D02*
X38889819Y-25464761D01*
X38889819Y-25464761D02*
X38937438Y-25369523D01*
X38937438Y-25369523D02*
X38985057Y-25321904D01*
X38985057Y-25321904D02*
X39080295Y-25274285D01*
X39080295Y-25274285D02*
X39175533Y-25274285D01*
X39175533Y-25274285D02*
X39318390Y-25321904D01*
X39318390Y-25321904D02*
X39889819Y-25893332D01*
X39889819Y-25893332D02*
X39889819Y-25274285D01*
%TO.C,D3*%
X44419819Y-30648094D02*
X43419819Y-30648094D01*
X43419819Y-30648094D02*
X43419819Y-30409999D01*
X43419819Y-30409999D02*
X43467438Y-30267142D01*
X43467438Y-30267142D02*
X43562676Y-30171904D01*
X43562676Y-30171904D02*
X43657914Y-30124285D01*
X43657914Y-30124285D02*
X43848390Y-30076666D01*
X43848390Y-30076666D02*
X43991247Y-30076666D01*
X43991247Y-30076666D02*
X44181723Y-30124285D01*
X44181723Y-30124285D02*
X44276961Y-30171904D01*
X44276961Y-30171904D02*
X44372200Y-30267142D01*
X44372200Y-30267142D02*
X44419819Y-30409999D01*
X44419819Y-30409999D02*
X44419819Y-30648094D01*
X43419819Y-29743332D02*
X43419819Y-29124285D01*
X43419819Y-29124285D02*
X43800771Y-29457618D01*
X43800771Y-29457618D02*
X43800771Y-29314761D01*
X43800771Y-29314761D02*
X43848390Y-29219523D01*
X43848390Y-29219523D02*
X43896009Y-29171904D01*
X43896009Y-29171904D02*
X43991247Y-29124285D01*
X43991247Y-29124285D02*
X44229342Y-29124285D01*
X44229342Y-29124285D02*
X44324580Y-29171904D01*
X44324580Y-29171904D02*
X44372200Y-29219523D01*
X44372200Y-29219523D02*
X44419819Y-29314761D01*
X44419819Y-29314761D02*
X44419819Y-29600475D01*
X44419819Y-29600475D02*
X44372200Y-29695713D01*
X44372200Y-29695713D02*
X44324580Y-29743332D01*
%TO.C,D4*%
X43784819Y-57318094D02*
X42784819Y-57318094D01*
X42784819Y-57318094D02*
X42784819Y-57079999D01*
X42784819Y-57079999D02*
X42832438Y-56937142D01*
X42832438Y-56937142D02*
X42927676Y-56841904D01*
X42927676Y-56841904D02*
X43022914Y-56794285D01*
X43022914Y-56794285D02*
X43213390Y-56746666D01*
X43213390Y-56746666D02*
X43356247Y-56746666D01*
X43356247Y-56746666D02*
X43546723Y-56794285D01*
X43546723Y-56794285D02*
X43641961Y-56841904D01*
X43641961Y-56841904D02*
X43737200Y-56937142D01*
X43737200Y-56937142D02*
X43784819Y-57079999D01*
X43784819Y-57079999D02*
X43784819Y-57318094D01*
X43118152Y-55889523D02*
X43784819Y-55889523D01*
X42737200Y-56127618D02*
X43451485Y-56365713D01*
X43451485Y-56365713D02*
X43451485Y-55746666D01*
%TO.C,D5*%
X18384819Y-25568094D02*
X17384819Y-25568094D01*
X17384819Y-25568094D02*
X17384819Y-25329999D01*
X17384819Y-25329999D02*
X17432438Y-25187142D01*
X17432438Y-25187142D02*
X17527676Y-25091904D01*
X17527676Y-25091904D02*
X17622914Y-25044285D01*
X17622914Y-25044285D02*
X17813390Y-24996666D01*
X17813390Y-24996666D02*
X17956247Y-24996666D01*
X17956247Y-24996666D02*
X18146723Y-25044285D01*
X18146723Y-25044285D02*
X18241961Y-25091904D01*
X18241961Y-25091904D02*
X18337200Y-25187142D01*
X18337200Y-25187142D02*
X18384819Y-25329999D01*
X18384819Y-25329999D02*
X18384819Y-25568094D01*
X17384819Y-24091904D02*
X17384819Y-24568094D01*
X17384819Y-24568094D02*
X17861009Y-24615713D01*
X17861009Y-24615713D02*
X17813390Y-24568094D01*
X17813390Y-24568094D02*
X17765771Y-24472856D01*
X17765771Y-24472856D02*
X17765771Y-24234761D01*
X17765771Y-24234761D02*
X17813390Y-24139523D01*
X17813390Y-24139523D02*
X17861009Y-24091904D01*
X17861009Y-24091904D02*
X17956247Y-24044285D01*
X17956247Y-24044285D02*
X18194342Y-24044285D01*
X18194342Y-24044285D02*
X18289580Y-24091904D01*
X18289580Y-24091904D02*
X18337200Y-24139523D01*
X18337200Y-24139523D02*
X18384819Y-24234761D01*
X18384819Y-24234761D02*
X18384819Y-24472856D01*
X18384819Y-24472856D02*
X18337200Y-24568094D01*
X18337200Y-24568094D02*
X18289580Y-24615713D01*
%TO.C,J1*%
X14339819Y-18138333D02*
X15054104Y-18138333D01*
X15054104Y-18138333D02*
X15196961Y-18185952D01*
X15196961Y-18185952D02*
X15292200Y-18281190D01*
X15292200Y-18281190D02*
X15339819Y-18424047D01*
X15339819Y-18424047D02*
X15339819Y-18519285D01*
X15339819Y-17138333D02*
X15339819Y-17709761D01*
X15339819Y-17424047D02*
X14339819Y-17424047D01*
X14339819Y-17424047D02*
X14482676Y-17519285D01*
X14482676Y-17519285D02*
X14577914Y-17614523D01*
X14577914Y-17614523D02*
X14625533Y-17709761D01*
%TO.C,J2*%
X48574819Y-53143333D02*
X49289104Y-53143333D01*
X49289104Y-53143333D02*
X49431961Y-53190952D01*
X49431961Y-53190952D02*
X49527200Y-53286190D01*
X49527200Y-53286190D02*
X49574819Y-53429047D01*
X49574819Y-53429047D02*
X49574819Y-53524285D01*
X48670057Y-52714761D02*
X48622438Y-52667142D01*
X48622438Y-52667142D02*
X48574819Y-52571904D01*
X48574819Y-52571904D02*
X48574819Y-52333809D01*
X48574819Y-52333809D02*
X48622438Y-52238571D01*
X48622438Y-52238571D02*
X48670057Y-52190952D01*
X48670057Y-52190952D02*
X48765295Y-52143333D01*
X48765295Y-52143333D02*
X48860533Y-52143333D01*
X48860533Y-52143333D02*
X49003390Y-52190952D01*
X49003390Y-52190952D02*
X49574819Y-52762380D01*
X49574819Y-52762380D02*
X49574819Y-52143333D01*
%TO.C,J3*%
X25039819Y-42943333D02*
X25754104Y-42943333D01*
X25754104Y-42943333D02*
X25896961Y-42990952D01*
X25896961Y-42990952D02*
X25992200Y-43086190D01*
X25992200Y-43086190D02*
X26039819Y-43229047D01*
X26039819Y-43229047D02*
X26039819Y-43324285D01*
X25039819Y-42562380D02*
X25039819Y-41943333D01*
X25039819Y-41943333D02*
X25420771Y-42276666D01*
X25420771Y-42276666D02*
X25420771Y-42133809D01*
X25420771Y-42133809D02*
X25468390Y-42038571D01*
X25468390Y-42038571D02*
X25516009Y-41990952D01*
X25516009Y-41990952D02*
X25611247Y-41943333D01*
X25611247Y-41943333D02*
X25849342Y-41943333D01*
X25849342Y-41943333D02*
X25944580Y-41990952D01*
X25944580Y-41990952D02*
X25992200Y-42038571D01*
X25992200Y-42038571D02*
X26039819Y-42133809D01*
X26039819Y-42133809D02*
X26039819Y-42419523D01*
X26039819Y-42419523D02*
X25992200Y-42514761D01*
X25992200Y-42514761D02*
X25944580Y-42562380D01*
%TO.C,J4*%
X64449819Y-18218333D02*
X65164104Y-18218333D01*
X65164104Y-18218333D02*
X65306961Y-18265952D01*
X65306961Y-18265952D02*
X65402200Y-18361190D01*
X65402200Y-18361190D02*
X65449819Y-18504047D01*
X65449819Y-18504047D02*
X65449819Y-18599285D01*
X64783152Y-17313571D02*
X65449819Y-17313571D01*
X64402200Y-17551666D02*
X65116485Y-17789761D01*
X65116485Y-17789761D02*
X65116485Y-17170714D01*
%TO.C,Q1*%
X71962557Y-30005238D02*
X71914938Y-30100476D01*
X71914938Y-30100476D02*
X71819700Y-30195714D01*
X71819700Y-30195714D02*
X71676842Y-30338571D01*
X71676842Y-30338571D02*
X71629223Y-30433809D01*
X71629223Y-30433809D02*
X71629223Y-30529047D01*
X71867319Y-30481428D02*
X71819700Y-30576666D01*
X71819700Y-30576666D02*
X71724461Y-30671904D01*
X71724461Y-30671904D02*
X71533985Y-30719523D01*
X71533985Y-30719523D02*
X71200652Y-30719523D01*
X71200652Y-30719523D02*
X71010176Y-30671904D01*
X71010176Y-30671904D02*
X70914938Y-30576666D01*
X70914938Y-30576666D02*
X70867319Y-30481428D01*
X70867319Y-30481428D02*
X70867319Y-30290952D01*
X70867319Y-30290952D02*
X70914938Y-30195714D01*
X70914938Y-30195714D02*
X71010176Y-30100476D01*
X71010176Y-30100476D02*
X71200652Y-30052857D01*
X71200652Y-30052857D02*
X71533985Y-30052857D01*
X71533985Y-30052857D02*
X71724461Y-30100476D01*
X71724461Y-30100476D02*
X71819700Y-30195714D01*
X71819700Y-30195714D02*
X71867319Y-30290952D01*
X71867319Y-30290952D02*
X71867319Y-30481428D01*
X71867319Y-29100476D02*
X71867319Y-29671904D01*
X71867319Y-29386190D02*
X70867319Y-29386190D01*
X70867319Y-29386190D02*
X71010176Y-29481428D01*
X71010176Y-29481428D02*
X71105414Y-29576666D01*
X71105414Y-29576666D02*
X71153033Y-29671904D01*
%TO.C,U1*%
X5949819Y-54801904D02*
X6759342Y-54801904D01*
X6759342Y-54801904D02*
X6854580Y-54754285D01*
X6854580Y-54754285D02*
X6902200Y-54706666D01*
X6902200Y-54706666D02*
X6949819Y-54611428D01*
X6949819Y-54611428D02*
X6949819Y-54420952D01*
X6949819Y-54420952D02*
X6902200Y-54325714D01*
X6902200Y-54325714D02*
X6854580Y-54278095D01*
X6854580Y-54278095D02*
X6759342Y-54230476D01*
X6759342Y-54230476D02*
X5949819Y-54230476D01*
X6949819Y-53230476D02*
X6949819Y-53801904D01*
X6949819Y-53516190D02*
X5949819Y-53516190D01*
X5949819Y-53516190D02*
X6092676Y-53611428D01*
X6092676Y-53611428D02*
X6187914Y-53706666D01*
X6187914Y-53706666D02*
X6235533Y-53801904D01*
D12*
%TO.C,C2*%
X35400000Y-18975431D02*
X35400000Y-20275431D01*
X36050000Y-19625431D02*
X34750000Y-19625431D01*
X38265000Y-26060000D02*
X25105000Y-26060000D01*
X38265000Y-26100000D02*
X25105000Y-26100000D01*
X38265000Y-26140000D02*
X25105000Y-26140000D01*
X38264000Y-26180000D02*
X25106000Y-26180000D01*
X38264000Y-26220000D02*
X25106000Y-26220000D01*
X38262000Y-26260000D02*
X25108000Y-26260000D01*
X38261000Y-26300000D02*
X25109000Y-26300000D01*
X38260000Y-26340000D02*
X25110000Y-26340000D01*
X38258000Y-26380000D02*
X25112000Y-26380000D01*
X38256000Y-26420000D02*
X25114000Y-26420000D01*
X38253000Y-26460000D02*
X25117000Y-26460000D01*
X38251000Y-26500000D02*
X25119000Y-26500000D01*
X38248000Y-26540000D02*
X25122000Y-26540000D01*
X38245000Y-26580000D02*
X25125000Y-26580000D01*
X38242000Y-26620000D02*
X25128000Y-26620000D01*
X38238000Y-26660000D02*
X25132000Y-26660000D01*
X38234000Y-26700000D02*
X25136000Y-26700000D01*
X38230000Y-26740000D02*
X25140000Y-26740000D01*
X38226000Y-26781000D02*
X25144000Y-26781000D01*
X38222000Y-26821000D02*
X25148000Y-26821000D01*
X38217000Y-26861000D02*
X25153000Y-26861000D01*
X38212000Y-26901000D02*
X25158000Y-26901000D01*
X38207000Y-26941000D02*
X25163000Y-26941000D01*
X38201000Y-26981000D02*
X25169000Y-26981000D01*
X38196000Y-27021000D02*
X25174000Y-27021000D01*
X38190000Y-27061000D02*
X25180000Y-27061000D01*
X38183000Y-27101000D02*
X25187000Y-27101000D01*
X38177000Y-27141000D02*
X33125000Y-27141000D01*
X30245000Y-27141000D02*
X25193000Y-27141000D01*
X38170000Y-27181000D02*
X33125000Y-27181000D01*
X30245000Y-27181000D02*
X25200000Y-27181000D01*
X38163000Y-27221000D02*
X33125000Y-27221000D01*
X30245000Y-27221000D02*
X25207000Y-27221000D01*
X38156000Y-27261000D02*
X33125000Y-27261000D01*
X30245000Y-27261000D02*
X25214000Y-27261000D01*
X38148000Y-27301000D02*
X33125000Y-27301000D01*
X30245000Y-27301000D02*
X25222000Y-27301000D01*
X38141000Y-27341000D02*
X33125000Y-27341000D01*
X30245000Y-27341000D02*
X25229000Y-27341000D01*
X38133000Y-27381000D02*
X33125000Y-27381000D01*
X30245000Y-27381000D02*
X25237000Y-27381000D01*
X38124000Y-27421000D02*
X33125000Y-27421000D01*
X30245000Y-27421000D02*
X25246000Y-27421000D01*
X38116000Y-27461000D02*
X33125000Y-27461000D01*
X30245000Y-27461000D02*
X25254000Y-27461000D01*
X38107000Y-27501000D02*
X33125000Y-27501000D01*
X30245000Y-27501000D02*
X25263000Y-27501000D01*
X38098000Y-27541000D02*
X33125000Y-27541000D01*
X30245000Y-27541000D02*
X25272000Y-27541000D01*
X38089000Y-27581000D02*
X33125000Y-27581000D01*
X30245000Y-27581000D02*
X25281000Y-27581000D01*
X38079000Y-27621000D02*
X33125000Y-27621000D01*
X30245000Y-27621000D02*
X25291000Y-27621000D01*
X38069000Y-27661000D02*
X33125000Y-27661000D01*
X30245000Y-27661000D02*
X25301000Y-27661000D01*
X38059000Y-27701000D02*
X33125000Y-27701000D01*
X30245000Y-27701000D02*
X25311000Y-27701000D01*
X38049000Y-27741000D02*
X33125000Y-27741000D01*
X30245000Y-27741000D02*
X25321000Y-27741000D01*
X38038000Y-27781000D02*
X33125000Y-27781000D01*
X30245000Y-27781000D02*
X25332000Y-27781000D01*
X38027000Y-27821000D02*
X33125000Y-27821000D01*
X30245000Y-27821000D02*
X25343000Y-27821000D01*
X38016000Y-27861000D02*
X33125000Y-27861000D01*
X30245000Y-27861000D02*
X25354000Y-27861000D01*
X38005000Y-27901000D02*
X33125000Y-27901000D01*
X30245000Y-27901000D02*
X25365000Y-27901000D01*
X37993000Y-27941000D02*
X33125000Y-27941000D01*
X30245000Y-27941000D02*
X25377000Y-27941000D01*
X37981000Y-27981000D02*
X33125000Y-27981000D01*
X30245000Y-27981000D02*
X25389000Y-27981000D01*
X37969000Y-28021000D02*
X33125000Y-28021000D01*
X30245000Y-28021000D02*
X25401000Y-28021000D01*
X37956000Y-28061000D02*
X33125000Y-28061000D01*
X30245000Y-28061000D02*
X25414000Y-28061000D01*
X37943000Y-28101000D02*
X33125000Y-28101000D01*
X30245000Y-28101000D02*
X25427000Y-28101000D01*
X37930000Y-28141000D02*
X33125000Y-28141000D01*
X30245000Y-28141000D02*
X25440000Y-28141000D01*
X37917000Y-28181000D02*
X33125000Y-28181000D01*
X30245000Y-28181000D02*
X25453000Y-28181000D01*
X37903000Y-28221000D02*
X33125000Y-28221000D01*
X30245000Y-28221000D02*
X25467000Y-28221000D01*
X37889000Y-28261000D02*
X33125000Y-28261000D01*
X30245000Y-28261000D02*
X25481000Y-28261000D01*
X37875000Y-28301000D02*
X33125000Y-28301000D01*
X30245000Y-28301000D02*
X25495000Y-28301000D01*
X37860000Y-28341000D02*
X33125000Y-28341000D01*
X30245000Y-28341000D02*
X25510000Y-28341000D01*
X37846000Y-28381000D02*
X33125000Y-28381000D01*
X30245000Y-28381000D02*
X25524000Y-28381000D01*
X37831000Y-28421000D02*
X33125000Y-28421000D01*
X30245000Y-28421000D02*
X25539000Y-28421000D01*
X37815000Y-28461000D02*
X33125000Y-28461000D01*
X30245000Y-28461000D02*
X25555000Y-28461000D01*
X37799000Y-28501000D02*
X33125000Y-28501000D01*
X30245000Y-28501000D02*
X25571000Y-28501000D01*
X37783000Y-28541000D02*
X33125000Y-28541000D01*
X30245000Y-28541000D02*
X25587000Y-28541000D01*
X37767000Y-28581000D02*
X33125000Y-28581000D01*
X30245000Y-28581000D02*
X25603000Y-28581000D01*
X37750000Y-28621000D02*
X33125000Y-28621000D01*
X30245000Y-28621000D02*
X25620000Y-28621000D01*
X37734000Y-28661000D02*
X33125000Y-28661000D01*
X30245000Y-28661000D02*
X25636000Y-28661000D01*
X37716000Y-28701000D02*
X33125000Y-28701000D01*
X30245000Y-28701000D02*
X25654000Y-28701000D01*
X37699000Y-28741000D02*
X33125000Y-28741000D01*
X30245000Y-28741000D02*
X25671000Y-28741000D01*
X37681000Y-28781000D02*
X33125000Y-28781000D01*
X30245000Y-28781000D02*
X25689000Y-28781000D01*
X37663000Y-28821000D02*
X33125000Y-28821000D01*
X30245000Y-28821000D02*
X25707000Y-28821000D01*
X37644000Y-28861000D02*
X33125000Y-28861000D01*
X30245000Y-28861000D02*
X25726000Y-28861000D01*
X37625000Y-28901000D02*
X33125000Y-28901000D01*
X30245000Y-28901000D02*
X25745000Y-28901000D01*
X37606000Y-28941000D02*
X33125000Y-28941000D01*
X30245000Y-28941000D02*
X25764000Y-28941000D01*
X37587000Y-28981000D02*
X33125000Y-28981000D01*
X30245000Y-28981000D02*
X25783000Y-28981000D01*
X37567000Y-29021000D02*
X33125000Y-29021000D01*
X30245000Y-29021000D02*
X25803000Y-29021000D01*
X37547000Y-29061000D02*
X33125000Y-29061000D01*
X30245000Y-29061000D02*
X25823000Y-29061000D01*
X37526000Y-29101000D02*
X33125000Y-29101000D01*
X30245000Y-29101000D02*
X25844000Y-29101000D01*
X37505000Y-29141000D02*
X33125000Y-29141000D01*
X30245000Y-29141000D02*
X25865000Y-29141000D01*
X37484000Y-29181000D02*
X33125000Y-29181000D01*
X30245000Y-29181000D02*
X25886000Y-29181000D01*
X37463000Y-29221000D02*
X33125000Y-29221000D01*
X30245000Y-29221000D02*
X25907000Y-29221000D01*
X37441000Y-29261000D02*
X33125000Y-29261000D01*
X30245000Y-29261000D02*
X25929000Y-29261000D01*
X37418000Y-29301000D02*
X33125000Y-29301000D01*
X30245000Y-29301000D02*
X25952000Y-29301000D01*
X37396000Y-29341000D02*
X33125000Y-29341000D01*
X30245000Y-29341000D02*
X25974000Y-29341000D01*
X37373000Y-29381000D02*
X33125000Y-29381000D01*
X30245000Y-29381000D02*
X25997000Y-29381000D01*
X37349000Y-29421000D02*
X33125000Y-29421000D01*
X30245000Y-29421000D02*
X26021000Y-29421000D01*
X37326000Y-29461000D02*
X33125000Y-29461000D01*
X30245000Y-29461000D02*
X26044000Y-29461000D01*
X37302000Y-29501000D02*
X33125000Y-29501000D01*
X30245000Y-29501000D02*
X26068000Y-29501000D01*
X37277000Y-29541000D02*
X33125000Y-29541000D01*
X30245000Y-29541000D02*
X26093000Y-29541000D01*
X37252000Y-29581000D02*
X33125000Y-29581000D01*
X30245000Y-29581000D02*
X26118000Y-29581000D01*
X37227000Y-29621000D02*
X33125000Y-29621000D01*
X30245000Y-29621000D02*
X26143000Y-29621000D01*
X37201000Y-29661000D02*
X33125000Y-29661000D01*
X30245000Y-29661000D02*
X26169000Y-29661000D01*
X37175000Y-29701000D02*
X33125000Y-29701000D01*
X30245000Y-29701000D02*
X26195000Y-29701000D01*
X37148000Y-29741000D02*
X33125000Y-29741000D01*
X30245000Y-29741000D02*
X26222000Y-29741000D01*
X37121000Y-29781000D02*
X33125000Y-29781000D01*
X30245000Y-29781000D02*
X26249000Y-29781000D01*
X37094000Y-29821000D02*
X33125000Y-29821000D01*
X30245000Y-29821000D02*
X26276000Y-29821000D01*
X37066000Y-29861000D02*
X33125000Y-29861000D01*
X30245000Y-29861000D02*
X26304000Y-29861000D01*
X37038000Y-29901000D02*
X33125000Y-29901000D01*
X30245000Y-29901000D02*
X26332000Y-29901000D01*
X37009000Y-29941000D02*
X33125000Y-29941000D01*
X30245000Y-29941000D02*
X26361000Y-29941000D01*
X36980000Y-29981000D02*
X33125000Y-29981000D01*
X30245000Y-29981000D02*
X26390000Y-29981000D01*
X36950000Y-30021000D02*
X26420000Y-30021000D01*
X36920000Y-30061000D02*
X26450000Y-30061000D01*
X36890000Y-30101000D02*
X26480000Y-30101000D01*
X36859000Y-30141000D02*
X26511000Y-30141000D01*
X36827000Y-30181000D02*
X26543000Y-30181000D01*
X36795000Y-30221000D02*
X26575000Y-30221000D01*
X36763000Y-30261000D02*
X26607000Y-30261000D01*
X36729000Y-30301000D02*
X26641000Y-30301000D01*
X36696000Y-30341000D02*
X26674000Y-30341000D01*
X36662000Y-30381000D02*
X26708000Y-30381000D01*
X36627000Y-30421000D02*
X26743000Y-30421000D01*
X36592000Y-30461000D02*
X26778000Y-30461000D01*
X36556000Y-30501000D02*
X26814000Y-30501000D01*
X36519000Y-30541000D02*
X26851000Y-30541000D01*
X36482000Y-30581000D02*
X26888000Y-30581000D01*
X36445000Y-30621000D02*
X26925000Y-30621000D01*
X36406000Y-30661000D02*
X26964000Y-30661000D01*
X36367000Y-30701000D02*
X27003000Y-30701000D01*
X36328000Y-30741000D02*
X27042000Y-30741000D01*
X36287000Y-30781000D02*
X27083000Y-30781000D01*
X36246000Y-30821000D02*
X27124000Y-30821000D01*
X36204000Y-30861000D02*
X27166000Y-30861000D01*
X36162000Y-30901000D02*
X27208000Y-30901000D01*
X36119000Y-30941000D02*
X27251000Y-30941000D01*
X36075000Y-30981000D02*
X27295000Y-30981000D01*
X36030000Y-31021000D02*
X27340000Y-31021000D01*
X35984000Y-31061000D02*
X27386000Y-31061000D01*
X35938000Y-31101000D02*
X27432000Y-31101000D01*
X35890000Y-31141000D02*
X27480000Y-31141000D01*
X35842000Y-31181000D02*
X27528000Y-31181000D01*
X35793000Y-31221000D02*
X27577000Y-31221000D01*
X35742000Y-31261000D02*
X27628000Y-31261000D01*
X35691000Y-31301000D02*
X27679000Y-31301000D01*
X35639000Y-31341000D02*
X27731000Y-31341000D01*
X35585000Y-31381000D02*
X27785000Y-31381000D01*
X35531000Y-31421000D02*
X27839000Y-31421000D01*
X35475000Y-31461000D02*
X27895000Y-31461000D01*
X35418000Y-31501000D02*
X27952000Y-31501000D01*
X35360000Y-31541000D02*
X28010000Y-31541000D01*
X35300000Y-31581000D02*
X28070000Y-31581000D01*
X35239000Y-31621000D02*
X28131000Y-31621000D01*
X35176000Y-31661000D02*
X28194000Y-31661000D01*
X35112000Y-31701000D02*
X28258000Y-31701000D01*
X35046000Y-31741000D02*
X28324000Y-31741000D01*
X34978000Y-31781000D02*
X28392000Y-31781000D01*
X34908000Y-31821000D02*
X28462000Y-31821000D01*
X34837000Y-31861000D02*
X28533000Y-31861000D01*
X34763000Y-31901000D02*
X28607000Y-31901000D01*
X34687000Y-31941000D02*
X28683000Y-31941000D01*
X34608000Y-31981000D02*
X28762000Y-31981000D01*
X34527000Y-32021000D02*
X28843000Y-32021000D01*
X34443000Y-32061000D02*
X28927000Y-32061000D01*
X34355000Y-32101000D02*
X29015000Y-32101000D01*
X34264000Y-32141000D02*
X29106000Y-32141000D01*
X34169000Y-32181000D02*
X29201000Y-32181000D01*
X34070000Y-32221000D02*
X29300000Y-32221000D01*
X33966000Y-32261000D02*
X29404000Y-32261000D01*
X33856000Y-32301000D02*
X29514000Y-32301000D01*
X33740000Y-32341000D02*
X29630000Y-32341000D01*
X33616000Y-32381000D02*
X29754000Y-32381000D01*
X33483000Y-32421000D02*
X29887000Y-32421000D01*
X33338000Y-32461000D02*
X30032000Y-32461000D01*
X33179000Y-32501000D02*
X30191000Y-32501000D01*
X33000000Y-32541000D02*
X30370000Y-32541000D01*
X32792000Y-32581000D02*
X30578000Y-32581000D01*
X32535000Y-32621000D02*
X30835000Y-32621000D01*
X32160000Y-32661000D02*
X31210000Y-32661000D01*
X38305000Y-26060000D02*
G75*
G03*
X38305000Y-26060000I-6620000J0D01*
G01*
%TO.C,D3*%
X45689000Y-31470000D02*
X45845000Y-31470000D01*
X48005000Y-31470000D02*
X48161000Y-31470000D01*
X45846392Y-28237666D02*
G75*
G03*
X45689485Y-31469999I1078608J-1672334D01*
G01*
X45845164Y-28868871D02*
G75*
G03*
X45845001Y-30950960I1079836J-1041129D01*
G01*
X48004999Y-30950960D02*
G75*
G03*
X48004836Y-28868871I-1079999J1040960D01*
G01*
X48160515Y-31469999D02*
G75*
G03*
X48003608Y-28237666I-1235515J1559999D01*
G01*
%TO.C,D4*%
X45054000Y-58140000D02*
X45210000Y-58140000D01*
X47370000Y-58140000D02*
X47526000Y-58140000D01*
X45211392Y-54907666D02*
G75*
G03*
X45054485Y-58139999I1078608J-1672334D01*
G01*
X45210164Y-55538871D02*
G75*
G03*
X45210001Y-57620960I1079836J-1041129D01*
G01*
X47369999Y-57620960D02*
G75*
G03*
X47369836Y-55538871I-1079999J1040960D01*
G01*
X47525515Y-58139999D02*
G75*
G03*
X47368608Y-54907666I-1235515J1559999D01*
G01*
%TO.C,D5*%
X19654000Y-26390000D02*
X19810000Y-26390000D01*
X21970000Y-26390000D02*
X22126000Y-26390000D01*
X19811392Y-23157666D02*
G75*
G03*
X19654485Y-26389999I1078608J-1672334D01*
G01*
X19810164Y-23788871D02*
G75*
G03*
X19810001Y-25870960I1079836J-1041129D01*
G01*
X21969999Y-25870960D02*
G75*
G03*
X21969836Y-23788871I-1079999J1040960D01*
G01*
X22125515Y-26389999D02*
G75*
G03*
X21968608Y-23157666I-1235515J1559999D01*
G01*
%TO.C,J1*%
X6265000Y-12505000D02*
X4525000Y-12505000D01*
X4525000Y-12505000D02*
X4525000Y-14005000D01*
X13885000Y-12745000D02*
X4765000Y-12745000D01*
X13885000Y-12745000D02*
X13885000Y-22865000D01*
X6325000Y-12745000D02*
X6325000Y-22865000D01*
X4765000Y-12745000D02*
X4765000Y-22865000D01*
X7849000Y-19125000D02*
X7756000Y-19031000D01*
X7609000Y-19295000D02*
X7551000Y-19236000D01*
X10100000Y-21375000D02*
X10041000Y-21316000D01*
X9894000Y-21580000D02*
X9801000Y-21486000D01*
X13885000Y-22865000D02*
X4765000Y-22865000D01*
X9614000Y-13821000D02*
G75*
G03*
X8035911Y-13821047I-789000J-1483995D01*
G01*
X10309000Y-16094000D02*
G75*
G03*
X10308953Y-14515911I-1483995J789000D01*
G01*
X7341001Y-14516000D02*
G75*
G03*
X7144551Y-15334383I1483994J-788998D01*
G01*
X7145001Y-15305000D02*
G75*
G03*
X7341649Y-16093712I1679999J0D01*
G01*
X8036000Y-16789000D02*
G75*
G03*
X9614089Y-16788952I789000J1484000D01*
G01*
X12725000Y-15305000D02*
G75*
G03*
X12725000Y-15305000I-900000J0D01*
G01*
X12725000Y-20305000D02*
G75*
G03*
X12725000Y-20305000I-900000J0D01*
G01*
X10505000Y-20305000D02*
G75*
G03*
X10505000Y-20305000I-1680000J0D01*
G01*
%TO.C,J2*%
X57740000Y-58110000D02*
X59480000Y-58110000D01*
X59480000Y-58110000D02*
X59480000Y-56610000D01*
X50120000Y-57870000D02*
X59240000Y-57870000D01*
X50120000Y-57870000D02*
X50120000Y-47750000D01*
X57680000Y-57870000D02*
X57680000Y-47750000D01*
X59240000Y-57870000D02*
X59240000Y-47750000D01*
X56156000Y-51490000D02*
X56249000Y-51584000D01*
X56396000Y-51320000D02*
X56454000Y-51379000D01*
X53905000Y-49240000D02*
X53964000Y-49299000D01*
X54111000Y-49035000D02*
X54204000Y-49129000D01*
X50120000Y-47750000D02*
X59240000Y-47750000D01*
X54391000Y-56794000D02*
G75*
G03*
X55969089Y-56793953I789000J1483995D01*
G01*
X53696000Y-54521000D02*
G75*
G03*
X53696047Y-56099089I1483995J-789000D01*
G01*
X56663999Y-56099000D02*
G75*
G03*
X56860449Y-55280617I-1483994J788998D01*
G01*
X56859999Y-55310000D02*
G75*
G03*
X56663351Y-54521288I-1679999J0D01*
G01*
X55969000Y-53826000D02*
G75*
G03*
X54390911Y-53826048I-789000J-1484000D01*
G01*
X53080000Y-55310000D02*
G75*
G03*
X53080000Y-55310000I-900000J0D01*
G01*
X53080000Y-50310000D02*
G75*
G03*
X53080000Y-50310000I-900000J0D01*
G01*
X56860000Y-50310000D02*
G75*
G03*
X56860000Y-50310000I-1680000J0D01*
G01*
%TO.C,J3*%
X31185000Y-48560000D02*
X32185000Y-48560000D01*
X32185000Y-48560000D02*
X31685000Y-47560000D01*
X31685000Y-47560000D02*
X31185000Y-48560000D01*
X26475000Y-47170000D02*
X26475000Y-38050000D01*
X32175000Y-47170000D02*
X32175000Y-45860000D01*
X41975000Y-47170000D02*
X26475000Y-47170000D01*
X27775000Y-45860000D02*
X27775000Y-39360000D01*
X32175000Y-45860000D02*
X27775000Y-45860000D01*
X36275000Y-45860000D02*
X36275000Y-47170000D01*
X36275000Y-45860000D02*
X36275000Y-45860000D01*
X40675000Y-45860000D02*
X36275000Y-45860000D01*
X27775000Y-39360000D02*
X40675000Y-39360000D01*
X40675000Y-39360000D02*
X40675000Y-45860000D01*
X26475000Y-38050000D02*
X41975000Y-38050000D01*
X41975000Y-38050000D02*
X41975000Y-47170000D01*
%TO.C,J4*%
X73615000Y-23185000D02*
X75355000Y-23185000D01*
X75355000Y-23185000D02*
X75355000Y-21685000D01*
X65995000Y-22945000D02*
X75115000Y-22945000D01*
X65995000Y-22945000D02*
X65995000Y-12825000D01*
X73555000Y-22945000D02*
X73555000Y-12825000D01*
X75115000Y-22945000D02*
X75115000Y-12825000D01*
X72031000Y-16565000D02*
X72124000Y-16659000D01*
X72271000Y-16395000D02*
X72329000Y-16454000D01*
X69780000Y-14315000D02*
X69839000Y-14374000D01*
X69986000Y-14110000D02*
X70079000Y-14204000D01*
X65995000Y-12825000D02*
X75115000Y-12825000D01*
X70266000Y-21869000D02*
G75*
G03*
X71844089Y-21868953I789000J1483995D01*
G01*
X69571000Y-19596000D02*
G75*
G03*
X69571047Y-21174089I1483995J-789000D01*
G01*
X72538999Y-21174000D02*
G75*
G03*
X72735449Y-20355617I-1483994J788998D01*
G01*
X72734999Y-20385000D02*
G75*
G03*
X72538351Y-19596288I-1679999J0D01*
G01*
X71844000Y-18901000D02*
G75*
G03*
X70265911Y-18901048I-789000J-1484000D01*
G01*
X68955000Y-20385000D02*
G75*
G03*
X68955000Y-20385000I-900000J0D01*
G01*
X68955000Y-15385000D02*
G75*
G03*
X68955000Y-15385000I-900000J0D01*
G01*
X72735000Y-15385000D02*
G75*
G03*
X72735000Y-15385000I-1680000J0D01*
G01*
%TO.C,Q1*%
X70413000Y-24660000D02*
X65472000Y-24660000D01*
X70413000Y-24660000D02*
X70413000Y-35160000D01*
X67653000Y-24660000D02*
X67653000Y-26267000D01*
X65472000Y-24660000D02*
X65472000Y-35160000D01*
X70413000Y-28060000D02*
X68395000Y-28060000D01*
X67653000Y-28473000D02*
X67653000Y-28808000D01*
X67653000Y-31013000D02*
X67653000Y-31348000D01*
X70413000Y-31761000D02*
X68395000Y-31761000D01*
X67653000Y-33553000D02*
X67653000Y-35160000D01*
X70413000Y-35160000D02*
X65472000Y-35160000D01*
%TO.C,U1*%
X7495000Y-56690000D02*
X43175000Y-56690000D01*
X43175000Y-56690000D02*
X43175000Y-51390000D01*
X7495000Y-55040000D02*
X7495000Y-56690000D01*
X7495000Y-51390000D02*
X7495000Y-53040000D01*
X43175000Y-51390000D02*
X7495000Y-51390000D01*
X7495000Y-55040000D02*
G75*
G03*
X7495000Y-53040000I0J1000000D01*
G01*
%TD*%
M02*
