%TF.GenerationSoftware,KiCad,Pcbnew,7.0.5*%
%TF.CreationDate,2024-03-07T15:26:59+01:00*%
%TF.ProjectId,g4_doorbell_module,67345f64-6f6f-4726-9265-6c6c5f6d6f64,rev?*%
%TF.SameCoordinates,Original*%
%TF.FileFunction,Copper,L2,Bot*%
%TF.FilePolarity,Positive*%
%FSLAX46Y46*%
G04 Gerber Fmt 4.6, Leading zero omitted, Abs format (unit mm)*
G04 Created by KiCad (PCBNEW 7.0.5) date 2024-03-07 15:26:59*
%MOMM*%
%LPD*%
G01*
G04 APERTURE LIST*
G04 Aperture macros list*
%AMRoundRect*
0 Rectangle with rounded corners*
0 $1 Rounding radius*
0 $2 $3 $4 $5 $6 $7 $8 $9 X,Y pos of 4 corners*
0 Add a 4 corners polygon primitive as box body*
4,1,4,$2,$3,$4,$5,$6,$7,$8,$9,$2,$3,0*
0 Add four circle primitives for the rounded corners*
1,1,$1+$1,$2,$3*
1,1,$1+$1,$4,$5*
1,1,$1+$1,$6,$7*
1,1,$1+$1,$8,$9*
0 Add four rect primitives between the rounded corners*
20,1,$1+$1,$2,$3,$4,$5,0*
20,1,$1+$1,$4,$5,$6,$7,0*
20,1,$1+$1,$6,$7,$8,$9,0*
20,1,$1+$1,$8,$9,$2,$3,0*%
G04 Aperture macros list end*
%TA.AperFunction,ComponentPad*%
%ADD10R,2.400000X2.400000*%
%TD*%
%TA.AperFunction,ComponentPad*%
%ADD11C,2.400000*%
%TD*%
%TA.AperFunction,ComponentPad*%
%ADD12R,1.800000X1.800000*%
%TD*%
%TA.AperFunction,ComponentPad*%
%ADD13C,1.800000*%
%TD*%
%TA.AperFunction,ComponentPad*%
%ADD14R,2.500000X2.500000*%
%TD*%
%TA.AperFunction,ComponentPad*%
%ADD15C,2.500000*%
%TD*%
%TA.AperFunction,ComponentPad*%
%ADD16RoundRect,0.220500X0.529500X-0.529500X0.529500X0.529500X-0.529500X0.529500X-0.529500X-0.529500X0*%
%TD*%
%TA.AperFunction,ComponentPad*%
%ADD17C,1.500000*%
%TD*%
%TA.AperFunction,ComponentPad*%
%ADD18R,2.000000X1.905000*%
%TD*%
%TA.AperFunction,ComponentPad*%
%ADD19O,2.000000X1.905000*%
%TD*%
%TA.AperFunction,ComponentPad*%
%ADD20R,1.600000X1.600000*%
%TD*%
%TA.AperFunction,ComponentPad*%
%ADD21O,1.600000X1.600000*%
%TD*%
%TA.AperFunction,SMDPad,CuDef*%
%ADD22RoundRect,0.250000X0.337500X0.475000X-0.337500X0.475000X-0.337500X-0.475000X0.337500X-0.475000X0*%
%TD*%
%TA.AperFunction,SMDPad,CuDef*%
%ADD23RoundRect,0.250000X-0.475000X0.337500X-0.475000X-0.337500X0.475000X-0.337500X0.475000X0.337500X0*%
%TD*%
%TA.AperFunction,SMDPad,CuDef*%
%ADD24RoundRect,0.249999X-0.450001X0.350001X-0.450001X-0.350001X0.450001X-0.350001X0.450001X0.350001X0*%
%TD*%
%TA.AperFunction,SMDPad,CuDef*%
%ADD25RoundRect,0.249999X-0.350001X-0.450001X0.350001X-0.450001X0.350001X0.450001X-0.350001X0.450001X0*%
%TD*%
%TA.AperFunction,SMDPad,CuDef*%
%ADD26R,1.200000X2.200000*%
%TD*%
%TA.AperFunction,SMDPad,CuDef*%
%ADD27R,5.800000X6.400000*%
%TD*%
%TA.AperFunction,SMDPad,CuDef*%
%ADD28R,1.800000X2.500000*%
%TD*%
%TA.AperFunction,SMDPad,CuDef*%
%ADD29R,2.500000X2.300000*%
%TD*%
%TA.AperFunction,SMDPad,CuDef*%
%ADD30R,0.800000X0.900000*%
%TD*%
%TA.AperFunction,SMDPad,CuDef*%
%ADD31R,2.500000X1.800000*%
%TD*%
%TA.AperFunction,Conductor*%
%ADD32C,0.300000*%
%TD*%
%TA.AperFunction,Conductor*%
%ADD33C,1.500000*%
%TD*%
G04 APERTURE END LIST*
D10*
%TO.P,C2,1*%
%TO.N,Net-(D2-K)*%
X31685000Y-23560000D03*
D11*
%TO.P,C2,2*%
%TO.N,GND*%
X31685000Y-28560000D03*
%TD*%
D12*
%TO.P,D3,1,K*%
%TO.N,GND*%
X46925000Y-31180000D03*
D13*
%TO.P,D3,2,A*%
%TO.N,Net-(D3-A)*%
X46925000Y-28640000D03*
%TD*%
D12*
%TO.P,D4,1,K*%
%TO.N,GND*%
X46290000Y-57850000D03*
D13*
%TO.P,D4,2,A*%
%TO.N,Net-(D4-A)*%
X46290000Y-55310000D03*
%TD*%
D12*
%TO.P,D5,1,K*%
%TO.N,GND*%
X20890000Y-26100000D03*
D13*
%TO.P,D5,2,A*%
%TO.N,Net-(D5-A)*%
X20890000Y-23560000D03*
%TD*%
D14*
%TO.P,J1,1,Pin_1*%
%TO.N,Net-(D1-A)*%
X8825000Y-15305000D03*
D15*
%TO.P,J1,2,Pin_2*%
%TO.N,GND*%
X8825000Y-20305000D03*
%TD*%
D14*
%TO.P,J2,1,Pin_1*%
%TO.N,GND*%
X55180000Y-55310000D03*
D15*
%TO.P,J2,2,Pin_2*%
%TO.N,Net-(J2-Pin_2)*%
X55180000Y-50310000D03*
%TD*%
D16*
%TO.P,J3,1,MISO*%
%TO.N,/MISO*%
X31685000Y-43880000D03*
D17*
%TO.P,J3,2,VCC*%
%TO.N,+5V*%
X31685000Y-41340000D03*
%TO.P,J3,3,SCK*%
%TO.N,/SCK*%
X34225000Y-43880000D03*
%TO.P,J3,4,MOSI*%
%TO.N,/MOSI*%
X34225000Y-41340000D03*
%TO.P,J3,5,~{RST}*%
%TO.N,/RST*%
X36765000Y-43880000D03*
%TO.P,J3,6,GND*%
%TO.N,GND*%
X36765000Y-41340000D03*
%TD*%
D14*
%TO.P,J4,1,Pin_1*%
%TO.N,Net-(J4-Pin_1)*%
X71055000Y-20385000D03*
D15*
%TO.P,J4,2,Pin_2*%
%TO.N,Net-(D1-K)*%
X71055000Y-15385000D03*
%TD*%
D18*
%TO.P,Q1,1,G*%
%TO.N,Net-(Q1-G)*%
X67245000Y-27370000D03*
D19*
%TO.P,Q1,2,D*%
%TO.N,Net-(J4-Pin_1)*%
X67245000Y-29910000D03*
%TO.P,Q1,3,S*%
%TO.N,GND*%
X67245000Y-32450000D03*
%TD*%
D20*
%TO.P,U1,1,PC6/~{RESET}*%
%TO.N,/RST*%
X8825000Y-57850000D03*
D21*
%TO.P,U1,2,PD0*%
%TO.N,unconnected-(U1-PD0-Pad2)*%
X11365000Y-57850000D03*
%TO.P,U1,3,PD1*%
%TO.N,unconnected-(U1-PD1-Pad3)*%
X13905000Y-57850000D03*
%TO.P,U1,4,PD2*%
%TO.N,unconnected-(U1-PD2-Pad4)*%
X16445000Y-57850000D03*
%TO.P,U1,5,PD3*%
%TO.N,unconnected-(U1-PD3-Pad5)*%
X18985000Y-57850000D03*
%TO.P,U1,6,PD4*%
%TO.N,unconnected-(U1-PD4-Pad6)*%
X21525000Y-57850000D03*
%TO.P,U1,7,VCC*%
%TO.N,+5V*%
X24065000Y-57850000D03*
%TO.P,U1,8,GND*%
%TO.N,GND*%
X26605000Y-57850000D03*
%TO.P,U1,9,PB6/XTAL1*%
%TO.N,unconnected-(U1-PB6{slash}XTAL1-Pad9)*%
X29145000Y-57850000D03*
%TO.P,U1,10,PB7/XTAL2*%
%TO.N,unconnected-(U1-PB7{slash}XTAL2-Pad10)*%
X31685000Y-57850000D03*
%TO.P,U1,11,PD5*%
%TO.N,unconnected-(U1-PD5-Pad11)*%
X34225000Y-57850000D03*
%TO.P,U1,12,PD6*%
%TO.N,unconnected-(U1-PD6-Pad12)*%
X36765000Y-57850000D03*
%TO.P,U1,13,PD7*%
%TO.N,unconnected-(U1-PD7-Pad13)*%
X39305000Y-57850000D03*
%TO.P,U1,14,PB0*%
%TO.N,Net-(U1-PB0)*%
X41845000Y-57850000D03*
%TO.P,U1,15,PB1*%
%TO.N,/g4_power*%
X41845000Y-50230000D03*
%TO.P,U1,16,PB2*%
%TO.N,/sens*%
X39305000Y-50230000D03*
%TO.P,U1,17,PB3*%
%TO.N,/MOSI*%
X36765000Y-50230000D03*
%TO.P,U1,18,PB4*%
%TO.N,/MISO*%
X34225000Y-50230000D03*
%TO.P,U1,19,PB5*%
%TO.N,/SCK*%
X31685000Y-50230000D03*
%TO.P,U1,20,AVCC*%
%TO.N,+5V*%
X29145000Y-50230000D03*
%TO.P,U1,21,AREF*%
%TO.N,unconnected-(U1-AREF-Pad21)*%
X26605000Y-50230000D03*
%TO.P,U1,22,AGND*%
%TO.N,GND*%
X24065000Y-50230000D03*
%TO.P,U1,23,PC0*%
%TO.N,unconnected-(U1-PC0-Pad23)*%
X21525000Y-50230000D03*
%TO.P,U1,24,PC1*%
%TO.N,unconnected-(U1-PC1-Pad24)*%
X18985000Y-50230000D03*
%TO.P,U1,25,PC2*%
%TO.N,unconnected-(U1-PC2-Pad25)*%
X16445000Y-50230000D03*
%TO.P,U1,26,PC3*%
%TO.N,unconnected-(U1-PC3-Pad26)*%
X13905000Y-50230000D03*
%TO.P,U1,27,PC4*%
%TO.N,unconnected-(U1-PC4-Pad27)*%
X11365000Y-50230000D03*
%TO.P,U1,28,PC5*%
%TO.N,unconnected-(U1-PC5-Pad28)*%
X8825000Y-50230000D03*
%TD*%
D22*
%TO.P,C1,1*%
%TO.N,+5V*%
X29145000Y-47690000D03*
%TO.P,C1,2*%
%TO.N,GND*%
X27070000Y-47690000D03*
%TD*%
D23*
%TO.P,C3,1*%
%TO.N,/sens*%
X52005000Y-23792500D03*
%TO.P,C3,2*%
%TO.N,GND*%
X52005000Y-25867500D03*
%TD*%
D24*
%TO.P,R1,1*%
%TO.N,+5V*%
X46925000Y-23830000D03*
%TO.P,R1,2*%
%TO.N,Net-(D3-A)*%
X46925000Y-25830000D03*
%TD*%
%TO.P,R2,1*%
%TO.N,Net-(J2-Pin_2)*%
X46290000Y-50500000D03*
%TO.P,R2,2*%
%TO.N,Net-(D4-A)*%
X46290000Y-52500000D03*
%TD*%
%TO.P,R3,1*%
%TO.N,Net-(D1-K)*%
X49465000Y-19745001D03*
%TO.P,R3,2*%
%TO.N,/sens*%
X49465000Y-21745001D03*
%TD*%
%TO.P,R4,1*%
%TO.N,/sens*%
X49465000Y-23830000D03*
%TO.P,R4,2*%
%TO.N,GND*%
X49465000Y-25830000D03*
%TD*%
%TO.P,R5,1*%
%TO.N,Net-(D1-K)*%
X20890000Y-18750000D03*
%TO.P,R5,2*%
%TO.N,Net-(D5-A)*%
X20890000Y-20750000D03*
%TD*%
D25*
%TO.P,R6,1*%
%TO.N,/g4_power*%
X61800000Y-27370000D03*
%TO.P,R6,2*%
%TO.N,Net-(Q1-G)*%
X63800000Y-27370000D03*
%TD*%
D26*
%TO.P,U2,1,VI*%
%TO.N,Net-(D2-K)*%
X37025000Y-23805000D03*
D27*
%TO.P,U2,2,GND*%
%TO.N,GND*%
X39305000Y-30105000D03*
D26*
%TO.P,U2,3,VO*%
%TO.N,+5V*%
X41585000Y-23805000D03*
%TD*%
D28*
%TO.P,D2,1,K*%
%TO.N,Net-(D2-K)*%
X31685000Y-19210000D03*
%TO.P,D2,2,A*%
%TO.N,Net-(D1-K)*%
X31685000Y-15210000D03*
%TD*%
D29*
%TO.P,D1,1,K*%
%TO.N,Net-(D1-K)*%
X21135000Y-15305000D03*
%TO.P,D1,2,A*%
%TO.N,Net-(D1-A)*%
X16835000Y-15305000D03*
%TD*%
D30*
%TO.P,U3,1,GND*%
%TO.N,GND*%
X40960000Y-52610000D03*
%TO.P,U3,2,VO*%
%TO.N,Net-(J2-Pin_2)*%
X42860000Y-52610000D03*
%TO.P,U3,3,VI*%
%TO.N,Net-(U1-PB0)*%
X41910000Y-54610000D03*
%TD*%
D31*
%TO.P,D6,1,K*%
%TO.N,+5V*%
X41434000Y-19685000D03*
%TO.P,D6,2,A*%
%TO.N,/sens*%
X45434000Y-19685000D03*
%TD*%
D32*
%TO.N,Net-(D2-K)*%
X31685000Y-19210000D02*
X31685000Y-23560000D01*
X31685000Y-23560000D02*
X36780000Y-23560000D01*
X36780000Y-23560000D02*
X37025000Y-23805000D01*
%TO.N,/sens*%
X54545000Y-25465000D02*
X54545000Y-32450000D01*
X49465000Y-21745001D02*
X49465000Y-23830000D01*
X39305000Y-47690000D02*
X39305000Y-50230000D01*
X54545000Y-32450000D02*
X39305000Y-47690000D01*
X47404999Y-19685000D02*
X49465000Y-21745001D01*
X45434000Y-19685000D02*
X47404999Y-19685000D01*
X49465000Y-23830000D02*
X51967500Y-23830000D01*
X49465000Y-21745001D02*
X49050001Y-21745001D01*
X51967500Y-23830000D02*
X52005000Y-23792500D01*
X52872500Y-23792500D02*
X54545000Y-25465000D01*
X52005000Y-23792500D02*
X52872500Y-23792500D01*
%TO.N,Net-(D1-K)*%
X49465000Y-15465000D02*
X49545000Y-15385000D01*
D33*
X31389998Y-15305000D02*
X21135000Y-15305000D01*
D32*
X20890000Y-18750000D02*
X20890000Y-15550000D01*
D33*
X71055000Y-15385000D02*
X49545000Y-15385000D01*
D32*
X20890000Y-15550000D02*
X21135000Y-15305000D01*
D33*
X31469998Y-15385000D02*
X31389998Y-15305000D01*
D32*
X49465000Y-19745001D02*
X49465000Y-15465000D01*
D33*
X49545000Y-15385000D02*
X31469998Y-15385000D01*
%TO.N,Net-(D1-A)*%
X8825000Y-15305000D02*
X16835000Y-15305000D01*
D32*
%TO.N,Net-(D3-A)*%
X46925000Y-25830000D02*
X46925000Y-28640000D01*
%TO.N,Net-(D4-A)*%
X46290000Y-52500000D02*
X46290000Y-55310000D01*
%TO.N,Net-(D5-A)*%
X20890000Y-20750000D02*
X20890000Y-23560000D01*
%TO.N,/MISO*%
X30434999Y-45130001D02*
X31685000Y-43880000D01*
X30434999Y-50830001D02*
X30434999Y-45130001D01*
X32974999Y-51480001D02*
X34225000Y-50230000D01*
X30434999Y-50830001D02*
X31084999Y-51480001D01*
X31084999Y-51480001D02*
X32974999Y-51480001D01*
%TO.N,/SCK*%
X34225000Y-47690000D02*
X31685000Y-50230000D01*
X34225000Y-43880000D02*
X34225000Y-47690000D01*
%TO.N,/RST*%
X38035000Y-49595000D02*
X38035000Y-59120000D01*
X36765000Y-48325000D02*
X38035000Y-49595000D01*
X36765000Y-43880000D02*
X36765000Y-48325000D01*
X37400000Y-59755000D02*
X10730000Y-59755000D01*
X38035000Y-59120000D02*
X37400000Y-59755000D01*
X10730000Y-59755000D02*
X8825000Y-57850000D01*
%TO.N,/MOSI*%
X35495000Y-42610000D02*
X35495000Y-48960000D01*
X35495000Y-48960000D02*
X36765000Y-50230000D01*
X34225000Y-41340000D02*
X35495000Y-42610000D01*
%TO.N,Net-(J2-Pin_2)*%
X46290000Y-50500000D02*
X44970000Y-50500000D01*
X55180000Y-50310000D02*
X46480000Y-50310000D01*
X44970000Y-50500000D02*
X42860000Y-52610000D01*
X46480000Y-50310000D02*
X46290000Y-50500000D01*
%TO.N,/g4_power*%
X41845000Y-47325000D02*
X61800000Y-27370000D01*
X41845000Y-50230000D02*
X41845000Y-47325000D01*
D33*
%TO.N,Net-(J4-Pin_1)*%
X69150000Y-29910000D02*
X71055000Y-28005000D01*
X67245000Y-29910000D02*
X69150000Y-29910000D01*
X71055000Y-28005000D02*
X71055000Y-20385000D01*
D32*
%TO.N,Net-(Q1-G)*%
X63800000Y-27370000D02*
X67245000Y-27370000D01*
%TO.N,Net-(U1-PB0)*%
X41845000Y-54675000D02*
X41910000Y-54610000D01*
X41845000Y-57850000D02*
X41845000Y-54675000D01*
%TO.N,+5V*%
X44630000Y-34745000D02*
X40575000Y-38800000D01*
X29145000Y-50230000D02*
X29145000Y-47690000D01*
X41585000Y-23805000D02*
X44630000Y-23805000D01*
X31685000Y-41340000D02*
X29145000Y-43880000D01*
X29145000Y-51500000D02*
X24065000Y-56580000D01*
X41585000Y-19836000D02*
X41434000Y-19685000D01*
X44630000Y-23805000D02*
X46900000Y-23805000D01*
X29145000Y-50230000D02*
X29145000Y-51500000D01*
X44630000Y-23805000D02*
X44630000Y-34745000D01*
X40575000Y-38800000D02*
X34225000Y-38800000D01*
X34225000Y-38800000D02*
X31685000Y-41340000D01*
X46900000Y-23805000D02*
X46925000Y-23830000D01*
X29145000Y-43880000D02*
X29145000Y-47690000D01*
X24065000Y-56580000D02*
X24065000Y-57850000D01*
X41585000Y-23805000D02*
X41585000Y-19836000D01*
%TD*%
%TA.AperFunction,Conductor*%
%TO.N,GND*%
G36*
X79866621Y-95502D02*
G01*
X79913114Y-149158D01*
X79924500Y-201500D01*
X79924500Y-79798500D01*
X79904498Y-79866621D01*
X79850842Y-79913114D01*
X79798500Y-79924500D01*
X201500Y-79924500D01*
X133379Y-79904498D01*
X86886Y-79850842D01*
X75500Y-79798500D01*
X75500Y-58694859D01*
X7724500Y-58694859D01*
X7724501Y-58694866D01*
X7727414Y-58719990D01*
X7727416Y-58719994D01*
X7772793Y-58822765D01*
X7852232Y-58902204D01*
X7852234Y-58902205D01*
X7852235Y-58902206D01*
X7955009Y-58947585D01*
X7980135Y-58950500D01*
X9236205Y-58950499D01*
X9304326Y-58970501D01*
X9325300Y-58987404D01*
X10391056Y-60053159D01*
X10395758Y-60058421D01*
X10420119Y-60088968D01*
X10420121Y-60088970D01*
X10468317Y-60121829D01*
X10470184Y-60123154D01*
X10517087Y-60157770D01*
X10517121Y-60157795D01*
X10524660Y-60161779D01*
X10532324Y-60165470D01*
X10532327Y-60165472D01*
X10568231Y-60176546D01*
X10588054Y-60182661D01*
X10590293Y-60183398D01*
X10626631Y-60196113D01*
X10645301Y-60202646D01*
X10645307Y-60202646D01*
X10653682Y-60204231D01*
X10662096Y-60205499D01*
X10662098Y-60205500D01*
X10720376Y-60205500D01*
X10722733Y-60205544D01*
X10725917Y-60205663D01*
X10781010Y-60207725D01*
X10781014Y-60207723D01*
X10790395Y-60206668D01*
X10790492Y-60207529D01*
X10805903Y-60205500D01*
X37371157Y-60205500D01*
X37378211Y-60205895D01*
X37417035Y-60210270D01*
X37474354Y-60199423D01*
X37476620Y-60199038D01*
X37534287Y-60190348D01*
X37534295Y-60190343D01*
X37542472Y-60187821D01*
X37550470Y-60185023D01*
X37550472Y-60185023D01*
X37587465Y-60165471D01*
X37602036Y-60157770D01*
X37604110Y-60156721D01*
X37656642Y-60131425D01*
X37656643Y-60131423D01*
X37663685Y-60126622D01*
X37670528Y-60121571D01*
X37670538Y-60121566D01*
X37711795Y-60080307D01*
X37713421Y-60078741D01*
X37756194Y-60039055D01*
X37756197Y-60039049D01*
X37762081Y-60031672D01*
X37762761Y-60032214D01*
X37772217Y-60019885D01*
X38333166Y-59458935D01*
X38338418Y-59454241D01*
X38368970Y-59429879D01*
X38401849Y-59381652D01*
X38403140Y-59379832D01*
X38437793Y-59332882D01*
X38437793Y-59332879D01*
X38437795Y-59332878D01*
X38441781Y-59325336D01*
X38445472Y-59317672D01*
X38455704Y-59284498D01*
X38462675Y-59261897D01*
X38463395Y-59259712D01*
X38482646Y-59204699D01*
X38482646Y-59204693D01*
X38484229Y-59196330D01*
X38485500Y-59187901D01*
X38485500Y-59129623D01*
X38485544Y-59127266D01*
X38485591Y-59125999D01*
X38487725Y-59068990D01*
X38487723Y-59068985D01*
X38486668Y-59059605D01*
X38487527Y-59059508D01*
X38485500Y-59044096D01*
X38485500Y-58863176D01*
X38505502Y-58795055D01*
X38559158Y-58748562D01*
X38629432Y-58738458D01*
X38677829Y-58756048D01*
X38812363Y-58839348D01*
X39002544Y-58913024D01*
X39203024Y-58950500D01*
X39203026Y-58950500D01*
X39406974Y-58950500D01*
X39406976Y-58950500D01*
X39607456Y-58913024D01*
X39797637Y-58839348D01*
X39971041Y-58731981D01*
X40121764Y-58594579D01*
X40244673Y-58431821D01*
X40335582Y-58249250D01*
X40391397Y-58053083D01*
X40410215Y-57850000D01*
X40739785Y-57850000D01*
X40758603Y-58053084D01*
X40814416Y-58249245D01*
X40814417Y-58249247D01*
X40814418Y-58249250D01*
X40905327Y-58431821D01*
X40905328Y-58431822D01*
X40905329Y-58431824D01*
X41028234Y-58594578D01*
X41178959Y-58731981D01*
X41178960Y-58731982D01*
X41352351Y-58839341D01*
X41352354Y-58839342D01*
X41352363Y-58839348D01*
X41542544Y-58913024D01*
X41743024Y-58950500D01*
X41743026Y-58950500D01*
X41946974Y-58950500D01*
X41946976Y-58950500D01*
X42147456Y-58913024D01*
X42337637Y-58839348D01*
X42511041Y-58731981D01*
X42661764Y-58594579D01*
X42784673Y-58431821D01*
X42875582Y-58249250D01*
X42931397Y-58053083D01*
X42950215Y-57850000D01*
X42931397Y-57646917D01*
X42875582Y-57450750D01*
X42784673Y-57268179D01*
X42784670Y-57268175D01*
X42661765Y-57105421D01*
X42511040Y-56968018D01*
X42511039Y-56968017D01*
X42355170Y-56871507D01*
X42307782Y-56818640D01*
X42295500Y-56764380D01*
X42295500Y-55476872D01*
X42315502Y-55408751D01*
X42369158Y-55362258D01*
X42371343Y-55361467D01*
X42371320Y-55361414D01*
X42482765Y-55312206D01*
X42562204Y-55232767D01*
X42562206Y-55232765D01*
X42607585Y-55129991D01*
X42610500Y-55104865D01*
X42610499Y-54115136D01*
X42607585Y-54090009D01*
X42574554Y-54015201D01*
X42562206Y-53987234D01*
X42482767Y-53907795D01*
X42482765Y-53907794D01*
X42379989Y-53862414D01*
X42379990Y-53862414D01*
X42354868Y-53859500D01*
X41465140Y-53859500D01*
X41465133Y-53859501D01*
X41440009Y-53862414D01*
X41440005Y-53862416D01*
X41337234Y-53907793D01*
X41257795Y-53987232D01*
X41257794Y-53987234D01*
X41212414Y-54090009D01*
X41209500Y-54115129D01*
X41209500Y-55104859D01*
X41209501Y-55104866D01*
X41212414Y-55129990D01*
X41212416Y-55129994D01*
X41257793Y-55232765D01*
X41337232Y-55312204D01*
X41339705Y-55313898D01*
X41343167Y-55318139D01*
X41345491Y-55320463D01*
X41345256Y-55320697D01*
X41384602Y-55368896D01*
X41394500Y-55417849D01*
X41394500Y-56764380D01*
X41374498Y-56832501D01*
X41334830Y-56871507D01*
X41178960Y-56968017D01*
X41178959Y-56968018D01*
X41028234Y-57105421D01*
X40905329Y-57268175D01*
X40814416Y-57450754D01*
X40758603Y-57646915D01*
X40739785Y-57850000D01*
X40410215Y-57850000D01*
X40391397Y-57646917D01*
X40335582Y-57450750D01*
X40244673Y-57268179D01*
X40244670Y-57268175D01*
X40121765Y-57105421D01*
X39971040Y-56968018D01*
X39971039Y-56968017D01*
X39797648Y-56860658D01*
X39797641Y-56860654D01*
X39797637Y-56860652D01*
X39671501Y-56811787D01*
X39607457Y-56786976D01*
X39540629Y-56774484D01*
X39406976Y-56749500D01*
X39203024Y-56749500D01*
X39123423Y-56764380D01*
X39002542Y-56786976D01*
X38873873Y-56836823D01*
X38812363Y-56860652D01*
X38812362Y-56860652D01*
X38812361Y-56860653D01*
X38812359Y-56860654D01*
X38677830Y-56943951D01*
X38609383Y-56962805D01*
X38541608Y-56941661D01*
X38496023Y-56887232D01*
X38485500Y-56836823D01*
X38485500Y-52760000D01*
X40260001Y-52760000D01*
X40260001Y-53104794D01*
X40262909Y-53129873D01*
X40262911Y-53129878D01*
X40308212Y-53232477D01*
X40387520Y-53311785D01*
X40387522Y-53311786D01*
X40490126Y-53357090D01*
X40490125Y-53357090D01*
X40515203Y-53359999D01*
X40810000Y-53359999D01*
X40810000Y-52760000D01*
X41110000Y-52760000D01*
X41110000Y-53359999D01*
X41404789Y-53359999D01*
X41404794Y-53359998D01*
X41429873Y-53357090D01*
X41429878Y-53357088D01*
X41532477Y-53311787D01*
X41611785Y-53232479D01*
X41611786Y-53232477D01*
X41657090Y-53129873D01*
X41659992Y-53104859D01*
X42159500Y-53104859D01*
X42159501Y-53104866D01*
X42162414Y-53129990D01*
X42162416Y-53129994D01*
X42207793Y-53232765D01*
X42287232Y-53312204D01*
X42287234Y-53312205D01*
X42287235Y-53312206D01*
X42390009Y-53357585D01*
X42415135Y-53360500D01*
X43304864Y-53360499D01*
X43329991Y-53357585D01*
X43432765Y-53312206D01*
X43512206Y-53232765D01*
X43557585Y-53129991D01*
X43560500Y-53104865D01*
X43560499Y-52598792D01*
X43580501Y-52530672D01*
X43597399Y-52509703D01*
X45114912Y-50992190D01*
X45177222Y-50958166D01*
X45248037Y-50963231D01*
X45304873Y-51005778D01*
X45321220Y-51035063D01*
X45355638Y-51122341D01*
X45355640Y-51122344D01*
X45447076Y-51242923D01*
X45520715Y-51298764D01*
X45567657Y-51334361D01*
X45688909Y-51382177D01*
X45690451Y-51382785D01*
X45746484Y-51426384D01*
X45770051Y-51493355D01*
X45753669Y-51562435D01*
X45702540Y-51611694D01*
X45690450Y-51617215D01*
X45567657Y-51665639D01*
X45567656Y-51665640D01*
X45567655Y-51665640D01*
X45447076Y-51757076D01*
X45355640Y-51877655D01*
X45355638Y-51877658D01*
X45300122Y-52018434D01*
X45289500Y-52106893D01*
X45289500Y-52893097D01*
X45289501Y-52893109D01*
X45300122Y-52981564D01*
X45355638Y-53122341D01*
X45355640Y-53122344D01*
X45447076Y-53242923D01*
X45520715Y-53298764D01*
X45567657Y-53334361D01*
X45633938Y-53360499D01*
X45708434Y-53389877D01*
X45728521Y-53392289D01*
X45793771Y-53420269D01*
X45833536Y-53479084D01*
X45839500Y-53517390D01*
X45839500Y-54110775D01*
X45819498Y-54178896D01*
X45765842Y-54225389D01*
X45759019Y-54228266D01*
X45752598Y-54230753D01*
X45752589Y-54230757D01*
X45563439Y-54347874D01*
X45563438Y-54347875D01*
X45399017Y-54497764D01*
X45264942Y-54675310D01*
X45264938Y-54675315D01*
X45165774Y-54874462D01*
X45165768Y-54874479D01*
X45104885Y-55088460D01*
X45084357Y-55310000D01*
X45104885Y-55531539D01*
X45165768Y-55745520D01*
X45165774Y-55745537D01*
X45264938Y-55944684D01*
X45264942Y-55944689D01*
X45399017Y-56122235D01*
X45563438Y-56272124D01*
X45563439Y-56272125D01*
X45752587Y-56389240D01*
X45752590Y-56389241D01*
X45752599Y-56389247D01*
X45797159Y-56406509D01*
X45853452Y-56449768D01*
X45877423Y-56516595D01*
X45861459Y-56585774D01*
X45810629Y-56635339D01*
X45751641Y-56650000D01*
X45345211Y-56650000D01*
X45345205Y-56650001D01*
X45320126Y-56652909D01*
X45320121Y-56652911D01*
X45217522Y-56698212D01*
X45138214Y-56777520D01*
X45138213Y-56777522D01*
X45092909Y-56880126D01*
X45090000Y-56905201D01*
X45090000Y-57700000D01*
X45862664Y-57700000D01*
X45836190Y-57815992D01*
X45846327Y-57951265D01*
X45865454Y-58000000D01*
X45090001Y-58000000D01*
X45090001Y-58794794D01*
X45092909Y-58819873D01*
X45092911Y-58819878D01*
X45138212Y-58922477D01*
X45217520Y-59001785D01*
X45217522Y-59001786D01*
X45320126Y-59047090D01*
X45320125Y-59047090D01*
X45345203Y-59049999D01*
X46140000Y-59049999D01*
X46140000Y-58274653D01*
X46222173Y-58300000D01*
X46323724Y-58300000D01*
X46424138Y-58284865D01*
X46440000Y-58277226D01*
X46440000Y-59049999D01*
X47234789Y-59049999D01*
X47234794Y-59049998D01*
X47259873Y-59047090D01*
X47259878Y-59047088D01*
X47362477Y-59001787D01*
X47441785Y-58922479D01*
X47441786Y-58922477D01*
X47487090Y-58819873D01*
X47489999Y-58794798D01*
X47490000Y-58794795D01*
X47490000Y-58000000D01*
X46717336Y-58000000D01*
X46743810Y-57884008D01*
X46733673Y-57748735D01*
X46714546Y-57700000D01*
X47489999Y-57700000D01*
X47489999Y-56905210D01*
X47489998Y-56905205D01*
X47487090Y-56880126D01*
X47487088Y-56880121D01*
X47441787Y-56777522D01*
X47362479Y-56698214D01*
X47362477Y-56698213D01*
X47259873Y-56652909D01*
X47259874Y-56652909D01*
X47234798Y-56650000D01*
X46828359Y-56650000D01*
X46760238Y-56629998D01*
X46713745Y-56576342D01*
X46703641Y-56506068D01*
X46733135Y-56441488D01*
X46782840Y-56406510D01*
X46827401Y-56389247D01*
X47016562Y-56272124D01*
X47180981Y-56122236D01*
X47315058Y-55944689D01*
X47315059Y-55944685D01*
X47315061Y-55944684D01*
X47414225Y-55745537D01*
X47414226Y-55745533D01*
X47414229Y-55745528D01*
X47475115Y-55531536D01*
X47495643Y-55310000D01*
X47481744Y-55160000D01*
X53630000Y-55160000D01*
X54546893Y-55160000D01*
X54526127Y-55268862D01*
X54536439Y-55432766D01*
X54545288Y-55460000D01*
X53630001Y-55460000D01*
X53630001Y-56604794D01*
X53632909Y-56629873D01*
X53632911Y-56629878D01*
X53678212Y-56732477D01*
X53757520Y-56811785D01*
X53757522Y-56811786D01*
X53860126Y-56857090D01*
X53860125Y-56857090D01*
X53885203Y-56859999D01*
X55030000Y-56859999D01*
X55030000Y-55942569D01*
X55097886Y-55960000D01*
X55220894Y-55960000D01*
X55329999Y-55946216D01*
X55330000Y-56859999D01*
X56474789Y-56859999D01*
X56474794Y-56859998D01*
X56499873Y-56857090D01*
X56499878Y-56857088D01*
X56602477Y-56811787D01*
X56681785Y-56732479D01*
X56681786Y-56732477D01*
X56727090Y-56629873D01*
X56729999Y-56604798D01*
X56730000Y-56604795D01*
X56730000Y-55460000D01*
X55813107Y-55460000D01*
X55833873Y-55351138D01*
X55823561Y-55187234D01*
X55814712Y-55160000D01*
X56729999Y-55160000D01*
X56729999Y-54015210D01*
X56729998Y-54015205D01*
X56727090Y-53990126D01*
X56727088Y-53990121D01*
X56681787Y-53887522D01*
X56602479Y-53808214D01*
X56602477Y-53808213D01*
X56499873Y-53762909D01*
X56499874Y-53762909D01*
X56474798Y-53760000D01*
X55330000Y-53760000D01*
X55330000Y-54677430D01*
X55262114Y-54660000D01*
X55139106Y-54660000D01*
X55029999Y-54673783D01*
X55029999Y-53760000D01*
X53885211Y-53760000D01*
X53885205Y-53760001D01*
X53860126Y-53762909D01*
X53860121Y-53762911D01*
X53757522Y-53808212D01*
X53678214Y-53887520D01*
X53678213Y-53887522D01*
X53632909Y-53990126D01*
X53630000Y-54015201D01*
X53630000Y-55160000D01*
X47481744Y-55160000D01*
X47475115Y-55088464D01*
X47414229Y-54874472D01*
X47414227Y-54874468D01*
X47414225Y-54874462D01*
X47315061Y-54675315D01*
X47315057Y-54675310D01*
X47180982Y-54497764D01*
X47016561Y-54347875D01*
X47016560Y-54347874D01*
X46827410Y-54230757D01*
X46827401Y-54230753D01*
X46820981Y-54228266D01*
X46764687Y-54185005D01*
X46740718Y-54118177D01*
X46740500Y-54110775D01*
X46740500Y-53517389D01*
X46760502Y-53449268D01*
X46814158Y-53402775D01*
X46851474Y-53392289D01*
X46871565Y-53389877D01*
X47012343Y-53334361D01*
X47132923Y-53242923D01*
X47224361Y-53122343D01*
X47279877Y-52981565D01*
X47290500Y-52893103D01*
X47290499Y-52106898D01*
X47279877Y-52018435D01*
X47224361Y-51877657D01*
X47188764Y-51830715D01*
X47132923Y-51757076D01*
X47012344Y-51665640D01*
X47012343Y-51665639D01*
X46889548Y-51617214D01*
X46833515Y-51573615D01*
X46809948Y-51506644D01*
X46826330Y-51437563D01*
X46877459Y-51388305D01*
X46889533Y-51382791D01*
X47012343Y-51334361D01*
X47132923Y-51242923D01*
X47224361Y-51122343D01*
X47279877Y-50981565D01*
X47290500Y-50893103D01*
X47290500Y-50886500D01*
X47310502Y-50818379D01*
X47364158Y-50771886D01*
X47416500Y-50760500D01*
X53604165Y-50760500D01*
X53672286Y-50780502D01*
X53718779Y-50834158D01*
X53720562Y-50838254D01*
X53794223Y-51016089D01*
X53918779Y-51219346D01*
X53921742Y-51224180D01*
X53921743Y-51224182D01*
X54080240Y-51409759D01*
X54265399Y-51567899D01*
X54265821Y-51568259D01*
X54473911Y-51695777D01*
X54699388Y-51789172D01*
X54936698Y-51846146D01*
X55180000Y-51865294D01*
X55423302Y-51846146D01*
X55660612Y-51789172D01*
X55886089Y-51695777D01*
X56094179Y-51568259D01*
X56279759Y-51409759D01*
X56438259Y-51224179D01*
X56565777Y-51016089D01*
X56659172Y-50790612D01*
X56716146Y-50553302D01*
X56735294Y-50310000D01*
X56716146Y-50066698D01*
X56659172Y-49829388D01*
X56565777Y-49603911D01*
X56438259Y-49395821D01*
X56434941Y-49391936D01*
X56279759Y-49210240D01*
X56094182Y-49051743D01*
X56094180Y-49051742D01*
X56094179Y-49051741D01*
X55886089Y-48924223D01*
X55660612Y-48830828D01*
X55660610Y-48830827D01*
X55660609Y-48830827D01*
X55495989Y-48791305D01*
X55423302Y-48773854D01*
X55423303Y-48773854D01*
X55180000Y-48754706D01*
X54936697Y-48773854D01*
X54699390Y-48830827D01*
X54473912Y-48924222D01*
X54265819Y-49051742D01*
X54265817Y-49051743D01*
X54080240Y-49210240D01*
X53921743Y-49395817D01*
X53921742Y-49395819D01*
X53794222Y-49603912D01*
X53768654Y-49665640D01*
X53720572Y-49781719D01*
X53676026Y-49836999D01*
X53608663Y-49859420D01*
X53604165Y-49859500D01*
X47273175Y-49859500D01*
X47205054Y-49839498D01*
X47172777Y-49809633D01*
X47132923Y-49757076D01*
X47012344Y-49665640D01*
X47012343Y-49665639D01*
X47012341Y-49665638D01*
X46871565Y-49610122D01*
X46871566Y-49610122D01*
X46783103Y-49599500D01*
X45796902Y-49599500D01*
X45796891Y-49599501D01*
X45708435Y-49610122D01*
X45567658Y-49665638D01*
X45567655Y-49665640D01*
X45447076Y-49757076D01*
X45355640Y-49877655D01*
X45355639Y-49877657D01*
X45344280Y-49906462D01*
X45319332Y-49969725D01*
X45275733Y-50025758D01*
X45208762Y-50049325D01*
X45202117Y-50049500D01*
X44998844Y-50049500D01*
X44991787Y-50049104D01*
X44952965Y-50044730D01*
X44952964Y-50044730D01*
X44952963Y-50044730D01*
X44895649Y-50055573D01*
X44893328Y-50055967D01*
X44835708Y-50064652D01*
X44827553Y-50067168D01*
X44819526Y-50069977D01*
X44767959Y-50097230D01*
X44765859Y-50098290D01*
X44713357Y-50123575D01*
X44706325Y-50128368D01*
X44699462Y-50133434D01*
X44658239Y-50174655D01*
X44656544Y-50176288D01*
X44613806Y-50215945D01*
X44607919Y-50223327D01*
X44607244Y-50222789D01*
X44597779Y-50235116D01*
X43010300Y-51822595D01*
X42947988Y-51856621D01*
X42921205Y-51859500D01*
X42415140Y-51859500D01*
X42415133Y-51859501D01*
X42390009Y-51862414D01*
X42390005Y-51862416D01*
X42287234Y-51907793D01*
X42207795Y-51987232D01*
X42207794Y-51987234D01*
X42162414Y-52090009D01*
X42159500Y-52115129D01*
X42159500Y-53104859D01*
X41659992Y-53104859D01*
X41659999Y-53104798D01*
X41660000Y-53104795D01*
X41660000Y-52760000D01*
X41110000Y-52760000D01*
X40810000Y-52760000D01*
X40260001Y-52760000D01*
X38485500Y-52760000D01*
X38485500Y-52460000D01*
X40260000Y-52460000D01*
X40810000Y-52460000D01*
X40810000Y-51860000D01*
X41110000Y-51860000D01*
X41110000Y-52460000D01*
X41659999Y-52460000D01*
X41659999Y-52115211D01*
X41659998Y-52115205D01*
X41657090Y-52090126D01*
X41657088Y-52090121D01*
X41611787Y-51987522D01*
X41532479Y-51908214D01*
X41532477Y-51908213D01*
X41429873Y-51862909D01*
X41429874Y-51862909D01*
X41404798Y-51860000D01*
X41110000Y-51860000D01*
X40810000Y-51860000D01*
X40515211Y-51860000D01*
X40515205Y-51860001D01*
X40490126Y-51862909D01*
X40490121Y-51862911D01*
X40387522Y-51908212D01*
X40308214Y-51987520D01*
X40308213Y-51987522D01*
X40262909Y-52090126D01*
X40260000Y-52115201D01*
X40260000Y-52460000D01*
X38485500Y-52460000D01*
X38485500Y-51243176D01*
X38505502Y-51175055D01*
X38559158Y-51128562D01*
X38629432Y-51118458D01*
X38677829Y-51136048D01*
X38812363Y-51219348D01*
X39002544Y-51293024D01*
X39203024Y-51330500D01*
X39203026Y-51330500D01*
X39406974Y-51330500D01*
X39406976Y-51330500D01*
X39607456Y-51293024D01*
X39797637Y-51219348D01*
X39971041Y-51111981D01*
X40121764Y-50974579D01*
X40129536Y-50964288D01*
X40188981Y-50885569D01*
X40244673Y-50811821D01*
X40335582Y-50629250D01*
X40391397Y-50433083D01*
X40410215Y-50230000D01*
X40410215Y-50229999D01*
X40739785Y-50229999D01*
X40758603Y-50433084D01*
X40814416Y-50629245D01*
X40814417Y-50629247D01*
X40814418Y-50629250D01*
X40905327Y-50811821D01*
X40905328Y-50811822D01*
X40905329Y-50811824D01*
X41028234Y-50974578D01*
X41178959Y-51111981D01*
X41178960Y-51111982D01*
X41352351Y-51219341D01*
X41352354Y-51219342D01*
X41352363Y-51219348D01*
X41542544Y-51293024D01*
X41743024Y-51330500D01*
X41743026Y-51330500D01*
X41946974Y-51330500D01*
X41946976Y-51330500D01*
X42147456Y-51293024D01*
X42337637Y-51219348D01*
X42511041Y-51111981D01*
X42661764Y-50974579D01*
X42669536Y-50964288D01*
X42728981Y-50885569D01*
X42784673Y-50811821D01*
X42875582Y-50629250D01*
X42931397Y-50433083D01*
X42950215Y-50230000D01*
X42931397Y-50026917D01*
X42875582Y-49830750D01*
X42784673Y-49648179D01*
X42784670Y-49648175D01*
X42661765Y-49485421D01*
X42511040Y-49348018D01*
X42511039Y-49348017D01*
X42355170Y-49251507D01*
X42307782Y-49198640D01*
X42295500Y-49144380D01*
X42295500Y-47563792D01*
X42315502Y-47495671D01*
X42332400Y-47474702D01*
X61399698Y-28407403D01*
X61462010Y-28373378D01*
X61488793Y-28370499D01*
X62193098Y-28370499D01*
X62193102Y-28370499D01*
X62281565Y-28359877D01*
X62422343Y-28304361D01*
X62542923Y-28212923D01*
X62634361Y-28092343D01*
X62682784Y-27969549D01*
X62726383Y-27913516D01*
X62793354Y-27889948D01*
X62862435Y-27906330D01*
X62911693Y-27957458D01*
X62917215Y-27969549D01*
X62965638Y-28092341D01*
X62965640Y-28092344D01*
X63057076Y-28212923D01*
X63115745Y-28257412D01*
X63177657Y-28304361D01*
X63248046Y-28332119D01*
X63318434Y-28359877D01*
X63318433Y-28359877D01*
X63337401Y-28362154D01*
X63406897Y-28370500D01*
X64193102Y-28370499D01*
X64281565Y-28359877D01*
X64422343Y-28304361D01*
X64542923Y-28212923D01*
X64634361Y-28092343D01*
X64689877Y-27951565D01*
X64692289Y-27931478D01*
X64720269Y-27866229D01*
X64779084Y-27826464D01*
X64817390Y-27820500D01*
X65818501Y-27820500D01*
X65886622Y-27840502D01*
X65933115Y-27894158D01*
X65944501Y-27946500D01*
X65944501Y-28367366D01*
X65947414Y-28392490D01*
X65947416Y-28392494D01*
X65992793Y-28495265D01*
X66072232Y-28574704D01*
X66072234Y-28574705D01*
X66072235Y-28574706D01*
X66175009Y-28620085D01*
X66200135Y-28623000D01*
X66449386Y-28622999D01*
X66517504Y-28643001D01*
X66563997Y-28696656D01*
X66574102Y-28766930D01*
X66544609Y-28831511D01*
X66523445Y-28850935D01*
X66369769Y-28962587D01*
X66369768Y-28962588D01*
X66213906Y-29125606D01*
X66089655Y-29313838D01*
X66089654Y-29313841D01*
X66001007Y-29521242D01*
X65950821Y-29741124D01*
X65950821Y-29741126D01*
X65940752Y-29965339D01*
X65940702Y-29966443D01*
X65953375Y-30060000D01*
X65970977Y-30189949D01*
X66040673Y-30404449D01*
X66147552Y-30603062D01*
X66147556Y-30603068D01*
X66190094Y-30656410D01*
X66288177Y-30779402D01*
X66458028Y-30927796D01*
X66651646Y-31043477D01*
X66651649Y-31043478D01*
X66701511Y-31062192D01*
X66758259Y-31104855D01*
X66782934Y-31171425D01*
X66767701Y-31240768D01*
X66717396Y-31290868D01*
X66711906Y-31293679D01*
X66552503Y-31370443D01*
X66552496Y-31370447D01*
X66370100Y-31502965D01*
X66370099Y-31502966D01*
X66214297Y-31665922D01*
X66090097Y-31854076D01*
X66090096Y-31854079D01*
X66001486Y-32061392D01*
X65951318Y-32281190D01*
X65951317Y-32281195D01*
X65950473Y-32300000D01*
X66659571Y-32300000D01*
X66639823Y-32450000D01*
X66659571Y-32600000D01*
X65953880Y-32600000D01*
X65971468Y-32729839D01*
X66041133Y-32944249D01*
X66041134Y-32944252D01*
X66147968Y-33142784D01*
X66288541Y-33319056D01*
X66458320Y-33467387D01*
X66651860Y-33583022D01*
X66651861Y-33583023D01*
X66862946Y-33662245D01*
X67084770Y-33702500D01*
X67095000Y-33702500D01*
X67095000Y-33035428D01*
X67205677Y-33050000D01*
X67284323Y-33050000D01*
X67395000Y-33035428D01*
X67395000Y-33698337D01*
X67517048Y-33687353D01*
X67517049Y-33687352D01*
X67734367Y-33627376D01*
X67734381Y-33627371D01*
X67937496Y-33529556D01*
X67937503Y-33529552D01*
X68119899Y-33397034D01*
X68119900Y-33397033D01*
X68275702Y-33234077D01*
X68399902Y-33045923D01*
X68399903Y-33045920D01*
X68488513Y-32838607D01*
X68538681Y-32618809D01*
X68538682Y-32618804D01*
X68539527Y-32600000D01*
X67830429Y-32600000D01*
X67850177Y-32450000D01*
X67830429Y-32300000D01*
X68536120Y-32300000D01*
X68518531Y-32170160D01*
X68448866Y-31955750D01*
X68448865Y-31955747D01*
X68342031Y-31757215D01*
X68201458Y-31580943D01*
X68031679Y-31432612D01*
X67838139Y-31316977D01*
X67838135Y-31316975D01*
X67788511Y-31298350D01*
X67731763Y-31255687D01*
X67707089Y-31189116D01*
X67722323Y-31119773D01*
X67772628Y-31069674D01*
X67778059Y-31066891D01*
X67937761Y-30989984D01*
X67945222Y-30984562D01*
X68012090Y-30960705D01*
X68019282Y-30960500D01*
X69095298Y-30960500D01*
X69101478Y-30960804D01*
X69149998Y-30965583D01*
X69150000Y-30965583D01*
X69150003Y-30965583D01*
X69355927Y-30945301D01*
X69355928Y-30945300D01*
X69355934Y-30945300D01*
X69553955Y-30885232D01*
X69736450Y-30787685D01*
X69797992Y-30737179D01*
X69797993Y-30737177D01*
X69797995Y-30737177D01*
X69896406Y-30656413D01*
X69896405Y-30656413D01*
X69896410Y-30656410D01*
X69927360Y-30618695D01*
X69931485Y-30614144D01*
X71759144Y-28786485D01*
X71763695Y-28782360D01*
X71801410Y-28751410D01*
X71932685Y-28591450D01*
X72030232Y-28408954D01*
X72090300Y-28210934D01*
X72090937Y-28204472D01*
X72105500Y-28056608D01*
X72110583Y-28005001D01*
X72110583Y-28004998D01*
X72105804Y-27956476D01*
X72105500Y-27950297D01*
X72105500Y-22061499D01*
X72125502Y-21993378D01*
X72179158Y-21946885D01*
X72231500Y-21935499D01*
X72349860Y-21935499D01*
X72349864Y-21935499D01*
X72374991Y-21932585D01*
X72477765Y-21887206D01*
X72557206Y-21807765D01*
X72602585Y-21704991D01*
X72605500Y-21679865D01*
X72605499Y-19090136D01*
X72602585Y-19065009D01*
X72586872Y-19029422D01*
X72557206Y-18962234D01*
X72477767Y-18882795D01*
X72477765Y-18882794D01*
X72374989Y-18837414D01*
X72374990Y-18837414D01*
X72349868Y-18834500D01*
X69760140Y-18834500D01*
X69760133Y-18834501D01*
X69735009Y-18837414D01*
X69735005Y-18837416D01*
X69632234Y-18882793D01*
X69552795Y-18962232D01*
X69552794Y-18962234D01*
X69507414Y-19065009D01*
X69504500Y-19090129D01*
X69504500Y-21679859D01*
X69504501Y-21679866D01*
X69507414Y-21704990D01*
X69507416Y-21704994D01*
X69552793Y-21807765D01*
X69632232Y-21887204D01*
X69632234Y-21887205D01*
X69632235Y-21887206D01*
X69735009Y-21932585D01*
X69735008Y-21932585D01*
X69739478Y-21933103D01*
X69760135Y-21935500D01*
X69878500Y-21935499D01*
X69946620Y-21955500D01*
X69993113Y-22009156D01*
X70004500Y-22061499D01*
X70004500Y-27517679D01*
X69984498Y-27585800D01*
X69967595Y-27606774D01*
X68751774Y-28822595D01*
X68689462Y-28856621D01*
X68662679Y-28859500D01*
X68370073Y-28859500D01*
X68301952Y-28839498D01*
X68255459Y-28785842D01*
X68245355Y-28715568D01*
X68274849Y-28650988D01*
X68319179Y-28618236D01*
X68417765Y-28574706D01*
X68497204Y-28495267D01*
X68497206Y-28495265D01*
X68542585Y-28392491D01*
X68545500Y-28367365D01*
X68545499Y-26372636D01*
X68542585Y-26347509D01*
X68497206Y-26244735D01*
X68497206Y-26244734D01*
X68417767Y-26165295D01*
X68417765Y-26165294D01*
X68314989Y-26119914D01*
X68314990Y-26119914D01*
X68289868Y-26117000D01*
X66200140Y-26117000D01*
X66200133Y-26117001D01*
X66175009Y-26119914D01*
X66175005Y-26119916D01*
X66072234Y-26165293D01*
X65992795Y-26244732D01*
X65992794Y-26244734D01*
X65947414Y-26347509D01*
X65944500Y-26372629D01*
X65944500Y-26793500D01*
X65924498Y-26861621D01*
X65870842Y-26908114D01*
X65818500Y-26919500D01*
X64817390Y-26919500D01*
X64749269Y-26899498D01*
X64702776Y-26845842D01*
X64692289Y-26808521D01*
X64689877Y-26788435D01*
X64667927Y-26732775D01*
X64634361Y-26647657D01*
X64577689Y-26572923D01*
X64542923Y-26527076D01*
X64422344Y-26435640D01*
X64422343Y-26435639D01*
X64422341Y-26435638D01*
X64281565Y-26380122D01*
X64281566Y-26380122D01*
X64193103Y-26369500D01*
X63406902Y-26369500D01*
X63406890Y-26369501D01*
X63318435Y-26380122D01*
X63177658Y-26435638D01*
X63177655Y-26435640D01*
X63057076Y-26527076D01*
X62965640Y-26647655D01*
X62965636Y-26647662D01*
X62917213Y-26770451D01*
X62873615Y-26826484D01*
X62806644Y-26850051D01*
X62737563Y-26833669D01*
X62688305Y-26782540D01*
X62682788Y-26770459D01*
X62634361Y-26647657D01*
X62577689Y-26572923D01*
X62542923Y-26527076D01*
X62422344Y-26435640D01*
X62422343Y-26435639D01*
X62422341Y-26435638D01*
X62281565Y-26380122D01*
X62281566Y-26380122D01*
X62193103Y-26369500D01*
X61406902Y-26369500D01*
X61406890Y-26369501D01*
X61318435Y-26380122D01*
X61177658Y-26435638D01*
X61177655Y-26435640D01*
X61057076Y-26527076D01*
X60965640Y-26647655D01*
X60965638Y-26647658D01*
X60910122Y-26788434D01*
X60899500Y-26876893D01*
X60899499Y-26876900D01*
X60899499Y-27581206D01*
X60879497Y-27649327D01*
X60862594Y-27670301D01*
X41546843Y-46986053D01*
X41541572Y-46990764D01*
X41511029Y-47015121D01*
X41478177Y-47063305D01*
X41476815Y-47065224D01*
X41442206Y-47112117D01*
X41438215Y-47119669D01*
X41434527Y-47127327D01*
X41417342Y-47183040D01*
X41416606Y-47185275D01*
X41397354Y-47240301D01*
X41395766Y-47248688D01*
X41394500Y-47257096D01*
X41394500Y-47315391D01*
X41394456Y-47317747D01*
X41392276Y-47376011D01*
X41393333Y-47385390D01*
X41392470Y-47385487D01*
X41394500Y-47400896D01*
X41394500Y-49144380D01*
X41374498Y-49212501D01*
X41334830Y-49251507D01*
X41178960Y-49348017D01*
X41178959Y-49348018D01*
X41028234Y-49485421D01*
X40905329Y-49648175D01*
X40814416Y-49830754D01*
X40758603Y-50026915D01*
X40739785Y-50229999D01*
X40410215Y-50229999D01*
X40391397Y-50026917D01*
X40335582Y-49830750D01*
X40244673Y-49648179D01*
X40244670Y-49648175D01*
X40121765Y-49485421D01*
X39971040Y-49348018D01*
X39971039Y-49348017D01*
X39815170Y-49251507D01*
X39767782Y-49198640D01*
X39755500Y-49144380D01*
X39755500Y-47928792D01*
X39775502Y-47860671D01*
X39792400Y-47839702D01*
X54843170Y-32788931D01*
X54848414Y-32784245D01*
X54878970Y-32759879D01*
X54911849Y-32711652D01*
X54913140Y-32709832D01*
X54947793Y-32662882D01*
X54947793Y-32662879D01*
X54947795Y-32662878D01*
X54951781Y-32655336D01*
X54955472Y-32647672D01*
X54972675Y-32591897D01*
X54973395Y-32589712D01*
X54992646Y-32534699D01*
X54992646Y-32534693D01*
X54994229Y-32526330D01*
X54995500Y-32517901D01*
X54995500Y-32459623D01*
X54995544Y-32457266D01*
X54995816Y-32450000D01*
X54997725Y-32398990D01*
X54997723Y-32398985D01*
X54996668Y-32389605D01*
X54997532Y-32389507D01*
X54995499Y-32374103D01*
X54995499Y-25493836D01*
X54995896Y-25486775D01*
X55000270Y-25447966D01*
X55000270Y-25447965D01*
X54989425Y-25390653D01*
X54989036Y-25388361D01*
X54980348Y-25330713D01*
X54980344Y-25330705D01*
X54977820Y-25322520D01*
X54975025Y-25314532D01*
X54975023Y-25314528D01*
X54947769Y-25262964D01*
X54946721Y-25260888D01*
X54945283Y-25257902D01*
X54921425Y-25208358D01*
X54921422Y-25208355D01*
X54921422Y-25208354D01*
X54916633Y-25201329D01*
X54911566Y-25194463D01*
X54911565Y-25194462D01*
X54870331Y-25153228D01*
X54868740Y-25151577D01*
X54829055Y-25108806D01*
X54829054Y-25108805D01*
X54829050Y-25108801D01*
X54821674Y-25102919D01*
X54822213Y-25102242D01*
X54809880Y-25092777D01*
X54017605Y-24300502D01*
X53211442Y-23494339D01*
X53206739Y-23489076D01*
X53182380Y-23458531D01*
X53150649Y-23436897D01*
X53134176Y-23425665D01*
X53132295Y-23424330D01*
X53106710Y-23405448D01*
X53085379Y-23389704D01*
X53077034Y-23385294D01*
X53078861Y-23381836D01*
X53036358Y-23351269D01*
X53018549Y-23320069D01*
X53010526Y-23299725D01*
X52964361Y-23182658D01*
X52964358Y-23182654D01*
X52872922Y-23062077D01*
X52752345Y-22970641D01*
X52752341Y-22970638D01*
X52611564Y-22915122D01*
X52611565Y-22915122D01*
X52523105Y-22904500D01*
X52523102Y-22904500D01*
X51486898Y-22904500D01*
X51486894Y-22904500D01*
X51398435Y-22915122D01*
X51257658Y-22970638D01*
X51257654Y-22970641D01*
X51137077Y-23062077D01*
X51045641Y-23182654D01*
X51045638Y-23182658D01*
X50999474Y-23299724D01*
X50955876Y-23355757D01*
X50888905Y-23379325D01*
X50882259Y-23379500D01*
X50552883Y-23379500D01*
X50484762Y-23359498D01*
X50438269Y-23305842D01*
X50435668Y-23299725D01*
X50435668Y-23299724D01*
X50399361Y-23207657D01*
X50336286Y-23124479D01*
X50307923Y-23087076D01*
X50187344Y-22995640D01*
X50187343Y-22995639D01*
X50187341Y-22995638D01*
X50046566Y-22940123D01*
X50026475Y-22937710D01*
X49961225Y-22909727D01*
X49921463Y-22850910D01*
X49915500Y-22812609D01*
X49915500Y-22762390D01*
X49935502Y-22694269D01*
X49989158Y-22647776D01*
X50026474Y-22637290D01*
X50046565Y-22634878D01*
X50187343Y-22579362D01*
X50307923Y-22487924D01*
X50399361Y-22367344D01*
X50454877Y-22226566D01*
X50465500Y-22138104D01*
X50465499Y-21351899D01*
X50454877Y-21263436D01*
X50399361Y-21122658D01*
X50363764Y-21075716D01*
X50307923Y-21002077D01*
X50187344Y-20910641D01*
X50187343Y-20910640D01*
X50064548Y-20862215D01*
X50008515Y-20818616D01*
X49984948Y-20751645D01*
X50001330Y-20682564D01*
X50052459Y-20633306D01*
X50064533Y-20627792D01*
X50187343Y-20579362D01*
X50307923Y-20487924D01*
X50399361Y-20367344D01*
X50454877Y-20226566D01*
X50465500Y-20138104D01*
X50465499Y-19351899D01*
X50454877Y-19263436D01*
X50399361Y-19122658D01*
X50355642Y-19065005D01*
X50307923Y-19002077D01*
X50187344Y-18910641D01*
X50187343Y-18910640D01*
X50187341Y-18910639D01*
X50046566Y-18855124D01*
X50026475Y-18852711D01*
X49961225Y-18824728D01*
X49921463Y-18765911D01*
X49915500Y-18727610D01*
X49915500Y-16561500D01*
X49935502Y-16493379D01*
X49989158Y-16446886D01*
X50041500Y-16435500D01*
X69855083Y-16435500D01*
X69923204Y-16455502D01*
X69950894Y-16479670D01*
X69955240Y-16484759D01*
X70122682Y-16627767D01*
X70140821Y-16643259D01*
X70348911Y-16770777D01*
X70574388Y-16864172D01*
X70811698Y-16921146D01*
X71055000Y-16940294D01*
X71298302Y-16921146D01*
X71535612Y-16864172D01*
X71761089Y-16770777D01*
X71969179Y-16643259D01*
X72154759Y-16484759D01*
X72313259Y-16299179D01*
X72440777Y-16091089D01*
X72534172Y-15865612D01*
X72591146Y-15628302D01*
X72610294Y-15385000D01*
X72591146Y-15141698D01*
X72534172Y-14904388D01*
X72440777Y-14678911D01*
X72313259Y-14470821D01*
X72313256Y-14470817D01*
X72154759Y-14285240D01*
X71969182Y-14126743D01*
X71969180Y-14126742D01*
X71969179Y-14126741D01*
X71761089Y-13999223D01*
X71726763Y-13985005D01*
X71558093Y-13915140D01*
X71535612Y-13905828D01*
X71535610Y-13905827D01*
X71535609Y-13905827D01*
X71407900Y-13875166D01*
X71298302Y-13848854D01*
X71298303Y-13848854D01*
X71176650Y-13839280D01*
X71055000Y-13829706D01*
X71054999Y-13829706D01*
X70811697Y-13848854D01*
X70574390Y-13905827D01*
X70348912Y-13999222D01*
X70140819Y-14126742D01*
X70140817Y-14126743D01*
X69955240Y-14285240D01*
X69950894Y-14290330D01*
X69891444Y-14329140D01*
X69855083Y-14334500D01*
X33011499Y-14334500D01*
X32943378Y-14314498D01*
X32896885Y-14260842D01*
X32885499Y-14208500D01*
X32885499Y-13915140D01*
X32885499Y-13915136D01*
X32882585Y-13890009D01*
X32855959Y-13829706D01*
X32837206Y-13787234D01*
X32757767Y-13707795D01*
X32757765Y-13707794D01*
X32654989Y-13662414D01*
X32654990Y-13662414D01*
X32629868Y-13659500D01*
X30740140Y-13659500D01*
X30740133Y-13659501D01*
X30715009Y-13662414D01*
X30715005Y-13662416D01*
X30612234Y-13707793D01*
X30532795Y-13787232D01*
X30532794Y-13787234D01*
X30487414Y-13890009D01*
X30484500Y-13915129D01*
X30484500Y-14128500D01*
X30464498Y-14196621D01*
X30410842Y-14243114D01*
X30358500Y-14254500D01*
X22811499Y-14254500D01*
X22743378Y-14234498D01*
X22696885Y-14180842D01*
X22685499Y-14128500D01*
X22685499Y-14110140D01*
X22685499Y-14110136D01*
X22682585Y-14085009D01*
X22649527Y-14010140D01*
X22637206Y-13982234D01*
X22557767Y-13902795D01*
X22557765Y-13902794D01*
X22454989Y-13857414D01*
X22454990Y-13857414D01*
X22429868Y-13854500D01*
X19840140Y-13854500D01*
X19840133Y-13854501D01*
X19815009Y-13857414D01*
X19815005Y-13857416D01*
X19712234Y-13902793D01*
X19632795Y-13982232D01*
X19632794Y-13982234D01*
X19587414Y-14085009D01*
X19584500Y-14110129D01*
X19584500Y-16499859D01*
X19584501Y-16499866D01*
X19587414Y-16524990D01*
X19587416Y-16524994D01*
X19632793Y-16627765D01*
X19712232Y-16707204D01*
X19712234Y-16707205D01*
X19712235Y-16707206D01*
X19815009Y-16752585D01*
X19815008Y-16752585D01*
X19819478Y-16753103D01*
X19840135Y-16755500D01*
X20313500Y-16755499D01*
X20381621Y-16775501D01*
X20428114Y-16829156D01*
X20439500Y-16881499D01*
X20439500Y-17732610D01*
X20419498Y-17800731D01*
X20365842Y-17847224D01*
X20328521Y-17857711D01*
X20308435Y-17860122D01*
X20167658Y-17915638D01*
X20167655Y-17915640D01*
X20047076Y-18007076D01*
X19955640Y-18127655D01*
X19955638Y-18127658D01*
X19900122Y-18268434D01*
X19889500Y-18356893D01*
X19889500Y-19143097D01*
X19889501Y-19143109D01*
X19900122Y-19231564D01*
X19955638Y-19372341D01*
X19955640Y-19372344D01*
X20047076Y-19492923D01*
X20120715Y-19548764D01*
X20167657Y-19584361D01*
X20288909Y-19632177D01*
X20290451Y-19632785D01*
X20346484Y-19676384D01*
X20370051Y-19743355D01*
X20353669Y-19812435D01*
X20302540Y-19861694D01*
X20290450Y-19867215D01*
X20167657Y-19915639D01*
X20167656Y-19915640D01*
X20167655Y-19915640D01*
X20047076Y-20007076D01*
X19955640Y-20127655D01*
X19955638Y-20127658D01*
X19900122Y-20268434D01*
X19889500Y-20356893D01*
X19889500Y-21143097D01*
X19889501Y-21143109D01*
X19900122Y-21231564D01*
X19955638Y-21372341D01*
X19955640Y-21372344D01*
X20047076Y-21492923D01*
X20120715Y-21548764D01*
X20167657Y-21584361D01*
X20238046Y-21612118D01*
X20308434Y-21639877D01*
X20328521Y-21642289D01*
X20393771Y-21670269D01*
X20433536Y-21729084D01*
X20439500Y-21767390D01*
X20439500Y-22360775D01*
X20419498Y-22428896D01*
X20365842Y-22475389D01*
X20359019Y-22478266D01*
X20352598Y-22480753D01*
X20352589Y-22480757D01*
X20163439Y-22597874D01*
X20163438Y-22597875D01*
X19999017Y-22747764D01*
X19864942Y-22925310D01*
X19864938Y-22925315D01*
X19765774Y-23124462D01*
X19765768Y-23124479D01*
X19704885Y-23338460D01*
X19684357Y-23560000D01*
X19704885Y-23781539D01*
X19765768Y-23995520D01*
X19765774Y-23995537D01*
X19864938Y-24194684D01*
X19864942Y-24194689D01*
X19999017Y-24372235D01*
X20163438Y-24522124D01*
X20163439Y-24522125D01*
X20352587Y-24639240D01*
X20352590Y-24639241D01*
X20352599Y-24639247D01*
X20397159Y-24656509D01*
X20453452Y-24699768D01*
X20477423Y-24766595D01*
X20461459Y-24835774D01*
X20410629Y-24885339D01*
X20351641Y-24900000D01*
X19945211Y-24900000D01*
X19945205Y-24900001D01*
X19920126Y-24902909D01*
X19920121Y-24902911D01*
X19817522Y-24948212D01*
X19738214Y-25027520D01*
X19738213Y-25027522D01*
X19692909Y-25130126D01*
X19690000Y-25155201D01*
X19690000Y-25950000D01*
X20462664Y-25950000D01*
X20436190Y-26065992D01*
X20446327Y-26201265D01*
X20465454Y-26250000D01*
X19690001Y-26250000D01*
X19690001Y-27044794D01*
X19692909Y-27069873D01*
X19692911Y-27069878D01*
X19738212Y-27172477D01*
X19817520Y-27251785D01*
X19817522Y-27251786D01*
X19920126Y-27297090D01*
X19920125Y-27297090D01*
X19945203Y-27299999D01*
X20740000Y-27299999D01*
X20740000Y-26524653D01*
X20822173Y-26550000D01*
X20923724Y-26550000D01*
X21024138Y-26534865D01*
X21040000Y-26527226D01*
X21040000Y-27299999D01*
X21834789Y-27299999D01*
X21834794Y-27299998D01*
X21859873Y-27297090D01*
X21859878Y-27297088D01*
X21962477Y-27251787D01*
X22041785Y-27172479D01*
X22041786Y-27172477D01*
X22087090Y-27069873D01*
X22089999Y-27044798D01*
X22090000Y-27044795D01*
X22090000Y-26250000D01*
X21317336Y-26250000D01*
X21343810Y-26134008D01*
X21333673Y-25998735D01*
X21314546Y-25950000D01*
X22089999Y-25950000D01*
X22089999Y-25155211D01*
X22089998Y-25155205D01*
X22087090Y-25130126D01*
X22087088Y-25130121D01*
X22041787Y-25027522D01*
X21962479Y-24948214D01*
X21962477Y-24948213D01*
X21859873Y-24902909D01*
X21859874Y-24902909D01*
X21834798Y-24900000D01*
X21428359Y-24900000D01*
X21360238Y-24879998D01*
X21313745Y-24826342D01*
X21310656Y-24804859D01*
X30184500Y-24804859D01*
X30184501Y-24804866D01*
X30187414Y-24829990D01*
X30187416Y-24829994D01*
X30232793Y-24932765D01*
X30312232Y-25012204D01*
X30312234Y-25012205D01*
X30312235Y-25012206D01*
X30415009Y-25057585D01*
X30440135Y-25060500D01*
X32929864Y-25060499D01*
X32954991Y-25057585D01*
X33057765Y-25012206D01*
X33137206Y-24932765D01*
X33182585Y-24829991D01*
X33185500Y-24804865D01*
X33185500Y-24136499D01*
X33205502Y-24068379D01*
X33259158Y-24021886D01*
X33311500Y-24010500D01*
X35998501Y-24010500D01*
X36066622Y-24030502D01*
X36113115Y-24084158D01*
X36124501Y-24136500D01*
X36124501Y-24949866D01*
X36127414Y-24974990D01*
X36127416Y-24974994D01*
X36172793Y-25077765D01*
X36252232Y-25157204D01*
X36252234Y-25157205D01*
X36252235Y-25157206D01*
X36355009Y-25202585D01*
X36380135Y-25205500D01*
X37669864Y-25205499D01*
X37694991Y-25202585D01*
X37797765Y-25157206D01*
X37877206Y-25077765D01*
X37922585Y-24974991D01*
X37925500Y-24949865D01*
X37925499Y-22660136D01*
X37922585Y-22635009D01*
X37877206Y-22532235D01*
X37877206Y-22532234D01*
X37797767Y-22452795D01*
X37797765Y-22452794D01*
X37694989Y-22407414D01*
X37694990Y-22407414D01*
X37669868Y-22404500D01*
X36380140Y-22404500D01*
X36380133Y-22404501D01*
X36355009Y-22407414D01*
X36355005Y-22407416D01*
X36252234Y-22452793D01*
X36172795Y-22532232D01*
X36172794Y-22532234D01*
X36127414Y-22635009D01*
X36124500Y-22660129D01*
X36124500Y-22983500D01*
X36104498Y-23051621D01*
X36050842Y-23098114D01*
X35998500Y-23109500D01*
X33311499Y-23109500D01*
X33243378Y-23089498D01*
X33196885Y-23035842D01*
X33185499Y-22983500D01*
X33185499Y-22315140D01*
X33185499Y-22315136D01*
X33182585Y-22290009D01*
X33137206Y-22187235D01*
X33137206Y-22187234D01*
X33057767Y-22107795D01*
X33057765Y-22107794D01*
X32954989Y-22062414D01*
X32954990Y-22062414D01*
X32929870Y-22059500D01*
X32929865Y-22059500D01*
X32261500Y-22059500D01*
X32193379Y-22039498D01*
X32146886Y-21985842D01*
X32135500Y-21933500D01*
X32135500Y-20886499D01*
X32155502Y-20818378D01*
X32209158Y-20771885D01*
X32261500Y-20760499D01*
X32629860Y-20760499D01*
X32629864Y-20760499D01*
X32654991Y-20757585D01*
X32757765Y-20712206D01*
X32837206Y-20632765D01*
X32882585Y-20529991D01*
X32885500Y-20504865D01*
X32885499Y-17915136D01*
X32882585Y-17890009D01*
X32837206Y-17787235D01*
X32837206Y-17787234D01*
X32757767Y-17707795D01*
X32757765Y-17707794D01*
X32654989Y-17662414D01*
X32654990Y-17662414D01*
X32629868Y-17659500D01*
X30740140Y-17659500D01*
X30740133Y-17659501D01*
X30715009Y-17662414D01*
X30715005Y-17662416D01*
X30612234Y-17707793D01*
X30532795Y-17787232D01*
X30532794Y-17787234D01*
X30487414Y-17890009D01*
X30484500Y-17915129D01*
X30484500Y-20504859D01*
X30484501Y-20504866D01*
X30487414Y-20529990D01*
X30487416Y-20529994D01*
X30532793Y-20632765D01*
X30612232Y-20712204D01*
X30612234Y-20712205D01*
X30612235Y-20712206D01*
X30715009Y-20757585D01*
X30715008Y-20757585D01*
X30719478Y-20758103D01*
X30740135Y-20760500D01*
X31108499Y-20760499D01*
X31176619Y-20780501D01*
X31223112Y-20834156D01*
X31234499Y-20886499D01*
X31234499Y-21933500D01*
X31214497Y-22001621D01*
X31160841Y-22048114D01*
X31108499Y-22059500D01*
X30440140Y-22059500D01*
X30440133Y-22059501D01*
X30415009Y-22062414D01*
X30415005Y-22062416D01*
X30312234Y-22107793D01*
X30232795Y-22187232D01*
X30232794Y-22187234D01*
X30187414Y-22290009D01*
X30184500Y-22315129D01*
X30184500Y-24804859D01*
X21310656Y-24804859D01*
X21303641Y-24756068D01*
X21333135Y-24691488D01*
X21382840Y-24656510D01*
X21427401Y-24639247D01*
X21616562Y-24522124D01*
X21780981Y-24372236D01*
X21915058Y-24194689D01*
X21915059Y-24194685D01*
X21915061Y-24194684D01*
X22014225Y-23995537D01*
X22014226Y-23995533D01*
X22014229Y-23995528D01*
X22075115Y-23781536D01*
X22095643Y-23560000D01*
X22075115Y-23338464D01*
X22072922Y-23330758D01*
X22014231Y-23124479D01*
X22014225Y-23124462D01*
X21915061Y-22925315D01*
X21915057Y-22925310D01*
X21907363Y-22915122D01*
X21858873Y-22850910D01*
X21780982Y-22747764D01*
X21616561Y-22597875D01*
X21616560Y-22597874D01*
X21427410Y-22480757D01*
X21427401Y-22480753D01*
X21420981Y-22478266D01*
X21364687Y-22435005D01*
X21340718Y-22368177D01*
X21340500Y-22360775D01*
X21340500Y-21767389D01*
X21360502Y-21699268D01*
X21414158Y-21652775D01*
X21451474Y-21642289D01*
X21471565Y-21639877D01*
X21612343Y-21584361D01*
X21732923Y-21492923D01*
X21824361Y-21372343D01*
X21879877Y-21231565D01*
X21890500Y-21143103D01*
X21890499Y-20356898D01*
X21879877Y-20268435D01*
X21824361Y-20127657D01*
X21774403Y-20061777D01*
X21732923Y-20007076D01*
X21612344Y-19915640D01*
X21612343Y-19915639D01*
X21489548Y-19867214D01*
X21433515Y-19823615D01*
X21409948Y-19756644D01*
X21426330Y-19687563D01*
X21477459Y-19638305D01*
X21489533Y-19632791D01*
X21612343Y-19584361D01*
X21732923Y-19492923D01*
X21824361Y-19372343D01*
X21879877Y-19231565D01*
X21890500Y-19143103D01*
X21890499Y-18356898D01*
X21879877Y-18268435D01*
X21824361Y-18127657D01*
X21788764Y-18080715D01*
X21732923Y-18007076D01*
X21612344Y-17915640D01*
X21612343Y-17915639D01*
X21612341Y-17915638D01*
X21471566Y-17860123D01*
X21451475Y-17857710D01*
X21386225Y-17829727D01*
X21346463Y-17770910D01*
X21340500Y-17732609D01*
X21340500Y-16881499D01*
X21360502Y-16813378D01*
X21414158Y-16766885D01*
X21466500Y-16755499D01*
X22429860Y-16755499D01*
X22429864Y-16755499D01*
X22454991Y-16752585D01*
X22557765Y-16707206D01*
X22637206Y-16627765D01*
X22682585Y-16524991D01*
X22685500Y-16499865D01*
X22685500Y-16481500D01*
X22705502Y-16413379D01*
X22759158Y-16366886D01*
X22811500Y-16355500D01*
X30358501Y-16355500D01*
X30426622Y-16375502D01*
X30473115Y-16429158D01*
X30484501Y-16481500D01*
X30484501Y-16504866D01*
X30487414Y-16529990D01*
X30487416Y-16529994D01*
X30532793Y-16632765D01*
X30612232Y-16712204D01*
X30612234Y-16712205D01*
X30612235Y-16712206D01*
X30715009Y-16757585D01*
X30740135Y-16760500D01*
X32629864Y-16760499D01*
X32654991Y-16757585D01*
X32757765Y-16712206D01*
X32837206Y-16632765D01*
X32882585Y-16529991D01*
X32882585Y-16529984D01*
X32883011Y-16528424D01*
X32883954Y-16526890D01*
X32886413Y-16521321D01*
X32887171Y-16521656D01*
X32920194Y-16467943D01*
X32984172Y-16437166D01*
X33004592Y-16435500D01*
X48888500Y-16435500D01*
X48956621Y-16455502D01*
X49003114Y-16509158D01*
X49014500Y-16561500D01*
X49014500Y-18727611D01*
X48994498Y-18795732D01*
X48940842Y-18842225D01*
X48903521Y-18852712D01*
X48883435Y-18855123D01*
X48742658Y-18910639D01*
X48742655Y-18910641D01*
X48622076Y-19002077D01*
X48530640Y-19122656D01*
X48530638Y-19122659D01*
X48475122Y-19263435D01*
X48464500Y-19351894D01*
X48464500Y-19803207D01*
X48444498Y-19871328D01*
X48390842Y-19917821D01*
X48320568Y-19927925D01*
X48255988Y-19898431D01*
X48249405Y-19892303D01*
X47996979Y-19639877D01*
X47743941Y-19386839D01*
X47739238Y-19381576D01*
X47714879Y-19351031D01*
X47669377Y-19320008D01*
X47666675Y-19318165D01*
X47664794Y-19316830D01*
X47639209Y-19297948D01*
X47617878Y-19282204D01*
X47610329Y-19278214D01*
X47602673Y-19274528D01*
X47546943Y-19257338D01*
X47544728Y-19256609D01*
X47489698Y-19237354D01*
X47489696Y-19237353D01*
X47489694Y-19237353D01*
X47481319Y-19235767D01*
X47472904Y-19234500D01*
X47472901Y-19234500D01*
X47414606Y-19234500D01*
X47412250Y-19234456D01*
X47353988Y-19232275D01*
X47344609Y-19233333D01*
X47344511Y-19232471D01*
X47329102Y-19234500D01*
X47110499Y-19234500D01*
X47042378Y-19214498D01*
X46995885Y-19160842D01*
X46984499Y-19108500D01*
X46984499Y-18740140D01*
X46984499Y-18740136D01*
X46981585Y-18715009D01*
X46936206Y-18612235D01*
X46936206Y-18612234D01*
X46856767Y-18532795D01*
X46856765Y-18532794D01*
X46753989Y-18487414D01*
X46753990Y-18487414D01*
X46728868Y-18484500D01*
X44139140Y-18484500D01*
X44139133Y-18484501D01*
X44114009Y-18487414D01*
X44114005Y-18487416D01*
X44011234Y-18532793D01*
X43931795Y-18612232D01*
X43931794Y-18612234D01*
X43886414Y-18715009D01*
X43883500Y-18740129D01*
X43883500Y-20629859D01*
X43883501Y-20629866D01*
X43886414Y-20654990D01*
X43886416Y-20654994D01*
X43931793Y-20757765D01*
X44011232Y-20837204D01*
X44011234Y-20837205D01*
X44011235Y-20837206D01*
X44114009Y-20882585D01*
X44139135Y-20885500D01*
X46728864Y-20885499D01*
X46753991Y-20882585D01*
X46856765Y-20837206D01*
X46936206Y-20757765D01*
X46981585Y-20654991D01*
X46984500Y-20629865D01*
X46984500Y-20261500D01*
X47004502Y-20193379D01*
X47058158Y-20146886D01*
X47110500Y-20135500D01*
X47166205Y-20135500D01*
X47234326Y-20155502D01*
X47255300Y-20172405D01*
X48427595Y-21344700D01*
X48461621Y-21407012D01*
X48464500Y-21433795D01*
X48464500Y-22138098D01*
X48464501Y-22138110D01*
X48475122Y-22226565D01*
X48530638Y-22367342D01*
X48530640Y-22367345D01*
X48622076Y-22487924D01*
X48680506Y-22532232D01*
X48742657Y-22579362D01*
X48789605Y-22597876D01*
X48883434Y-22634878D01*
X48903520Y-22637290D01*
X48968771Y-22665270D01*
X49008535Y-22724086D01*
X49014499Y-22762391D01*
X49014499Y-22812610D01*
X48994497Y-22880731D01*
X48940841Y-22927224D01*
X48903521Y-22937711D01*
X48883435Y-22940122D01*
X48742658Y-22995638D01*
X48742655Y-22995640D01*
X48622076Y-23087076D01*
X48530640Y-23207655D01*
X48530638Y-23207658D01*
X48475122Y-23348434D01*
X48464500Y-23436893D01*
X48464500Y-24223097D01*
X48464501Y-24223109D01*
X48475122Y-24311564D01*
X48530638Y-24452341D01*
X48530640Y-24452344D01*
X48622076Y-24572923D01*
X48695715Y-24628764D01*
X48742657Y-24664361D01*
X48859592Y-24710474D01*
X48866133Y-24713054D01*
X48922166Y-24756653D01*
X48945733Y-24823624D01*
X48929351Y-24892705D01*
X48878222Y-24941963D01*
X48866132Y-24947484D01*
X48742905Y-24996078D01*
X48742901Y-24996081D01*
X48622434Y-25087434D01*
X48531081Y-25207901D01*
X48531078Y-25207905D01*
X48475613Y-25348553D01*
X48465000Y-25436936D01*
X48465000Y-25680000D01*
X50464999Y-25680000D01*
X50464999Y-25436944D01*
X50464998Y-25436935D01*
X50454386Y-25348554D01*
X50398921Y-25207905D01*
X50398918Y-25207901D01*
X50307565Y-25087434D01*
X50187098Y-24996081D01*
X50187096Y-24996080D01*
X50063866Y-24947483D01*
X50007833Y-24903884D01*
X49984266Y-24836913D01*
X50000648Y-24767832D01*
X50051777Y-24718574D01*
X50063852Y-24713059D01*
X50187343Y-24664361D01*
X50307923Y-24572923D01*
X50399361Y-24452343D01*
X50435668Y-24360274D01*
X50479267Y-24304242D01*
X50546238Y-24280675D01*
X50552883Y-24280500D01*
X50911835Y-24280500D01*
X50979956Y-24300502D01*
X51026449Y-24354158D01*
X51029045Y-24360264D01*
X51045639Y-24402342D01*
X51045640Y-24402343D01*
X51045641Y-24402345D01*
X51137077Y-24522922D01*
X51257654Y-24614358D01*
X51257658Y-24614361D01*
X51398435Y-24669877D01*
X51398434Y-24669877D01*
X51426394Y-24673234D01*
X51486898Y-24680500D01*
X51486901Y-24680500D01*
X52523099Y-24680500D01*
X52523102Y-24680500D01*
X52611564Y-24669877D01*
X52752342Y-24614361D01*
X52838212Y-24549243D01*
X52904578Y-24524019D01*
X52974044Y-24538679D01*
X53003441Y-24560544D01*
X54057595Y-25614699D01*
X54091620Y-25677009D01*
X54094499Y-25703792D01*
X54094499Y-32211206D01*
X54074497Y-32279327D01*
X54057594Y-32300301D01*
X39006843Y-47351053D01*
X39001572Y-47355764D01*
X38971029Y-47380121D01*
X38938177Y-47428305D01*
X38936815Y-47430224D01*
X38902206Y-47477117D01*
X38898215Y-47484669D01*
X38894527Y-47492327D01*
X38877342Y-47548040D01*
X38876606Y-47550275D01*
X38857354Y-47605301D01*
X38855766Y-47613688D01*
X38854500Y-47622096D01*
X38854500Y-47680391D01*
X38854456Y-47682747D01*
X38852276Y-47741011D01*
X38853333Y-47750390D01*
X38852470Y-47750487D01*
X38854500Y-47765896D01*
X38854500Y-49144380D01*
X38834498Y-49212501D01*
X38794830Y-49251507D01*
X38638960Y-49348017D01*
X38638959Y-49348018D01*
X38609083Y-49375253D01*
X38545265Y-49406363D01*
X38474759Y-49398031D01*
X38419950Y-49352904D01*
X38412368Y-49339741D01*
X38406633Y-49331329D01*
X38401566Y-49324463D01*
X38386028Y-49308925D01*
X38360331Y-49283228D01*
X38358740Y-49281577D01*
X38319055Y-49238806D01*
X38319054Y-49238805D01*
X38319050Y-49238801D01*
X38311674Y-49232919D01*
X38312213Y-49232242D01*
X38299880Y-49222777D01*
X37252405Y-48175302D01*
X37218379Y-48112990D01*
X37215500Y-48086207D01*
X37215500Y-44905873D01*
X37235502Y-44837752D01*
X37282103Y-44794751D01*
X37351450Y-44757685D01*
X37511410Y-44626410D01*
X37642685Y-44466450D01*
X37740232Y-44283954D01*
X37800300Y-44085934D01*
X37814626Y-43940487D01*
X37820583Y-43880003D01*
X37820583Y-43879996D01*
X37800301Y-43674072D01*
X37800300Y-43674070D01*
X37800300Y-43674066D01*
X37740232Y-43476046D01*
X37642685Y-43293550D01*
X37511410Y-43133590D01*
X37351450Y-43002315D01*
X37351448Y-43002314D01*
X37351447Y-43002313D01*
X37168954Y-42904768D01*
X37127183Y-42892097D01*
X36970934Y-42844700D01*
X36970933Y-42844699D01*
X36970927Y-42844698D01*
X36765003Y-42824417D01*
X36764997Y-42824417D01*
X36559072Y-42844698D01*
X36361045Y-42904768D01*
X36178551Y-43002314D01*
X36178548Y-43002316D01*
X36151431Y-43024570D01*
X36086083Y-43052322D01*
X36016105Y-43040339D01*
X35963715Y-42992425D01*
X35945500Y-42927169D01*
X35945500Y-42638842D01*
X35945896Y-42631783D01*
X35950270Y-42592965D01*
X35939425Y-42535653D01*
X35939036Y-42533361D01*
X35930348Y-42475713D01*
X35930344Y-42475705D01*
X35927820Y-42467520D01*
X35925025Y-42459532D01*
X35925023Y-42459528D01*
X35897769Y-42407964D01*
X35896721Y-42405888D01*
X35871425Y-42353358D01*
X35871422Y-42353355D01*
X35871422Y-42353354D01*
X35866633Y-42346329D01*
X35861566Y-42339463D01*
X35852655Y-42330552D01*
X35820331Y-42298228D01*
X35818740Y-42296577D01*
X35779055Y-42253806D01*
X35779054Y-42253805D01*
X35779050Y-42253801D01*
X35771674Y-42247919D01*
X35772213Y-42247242D01*
X35759880Y-42237777D01*
X35268953Y-41746850D01*
X35234927Y-41684538D01*
X35237474Y-41621181D01*
X35260300Y-41545934D01*
X35260300Y-41545929D01*
X35260301Y-41545928D01*
X35280583Y-41340003D01*
X35709919Y-41340003D01*
X35730190Y-41545829D01*
X35790232Y-41743762D01*
X35887732Y-41926172D01*
X35923324Y-41969541D01*
X36320184Y-41572682D01*
X36383239Y-41670798D01*
X36491900Y-41764952D01*
X36533281Y-41783850D01*
X36135456Y-42181674D01*
X36178827Y-42217267D01*
X36361237Y-42314767D01*
X36559170Y-42374809D01*
X36764997Y-42395081D01*
X36765003Y-42395081D01*
X36970829Y-42374809D01*
X37168762Y-42314767D01*
X37351166Y-42217270D01*
X37351177Y-42217263D01*
X37394542Y-42181674D01*
X37394542Y-42181673D01*
X36996719Y-41783850D01*
X37038100Y-41764952D01*
X37146761Y-41670798D01*
X37209814Y-41572683D01*
X37606673Y-41969542D01*
X37606674Y-41969542D01*
X37642263Y-41926177D01*
X37642270Y-41926166D01*
X37739767Y-41743762D01*
X37799809Y-41545829D01*
X37820081Y-41340003D01*
X37820081Y-41339996D01*
X37799809Y-41134170D01*
X37739767Y-40936237D01*
X37642267Y-40753827D01*
X37606673Y-40710456D01*
X37209814Y-41107315D01*
X37146761Y-41009202D01*
X37038100Y-40915048D01*
X36996717Y-40896149D01*
X37394542Y-40498324D01*
X37351172Y-40462732D01*
X37168762Y-40365232D01*
X36970829Y-40305190D01*
X36765003Y-40284919D01*
X36764997Y-40284919D01*
X36559170Y-40305190D01*
X36361237Y-40365232D01*
X36178828Y-40462731D01*
X36178826Y-40462733D01*
X36135457Y-40498325D01*
X36135456Y-40498326D01*
X36533280Y-40896149D01*
X36491900Y-40915048D01*
X36383239Y-41009202D01*
X36320185Y-41107316D01*
X35923326Y-40710457D01*
X35923325Y-40710457D01*
X35887733Y-40753826D01*
X35887731Y-40753828D01*
X35790232Y-40936237D01*
X35730190Y-41134170D01*
X35709919Y-41339996D01*
X35709919Y-41340003D01*
X35280583Y-41340003D01*
X35280583Y-41339996D01*
X35260301Y-41134072D01*
X35260300Y-41134070D01*
X35260300Y-41134066D01*
X35200232Y-40936046D01*
X35102685Y-40753550D01*
X34971410Y-40593590D01*
X34811450Y-40462315D01*
X34811448Y-40462314D01*
X34811447Y-40462313D01*
X34628954Y-40364768D01*
X34430927Y-40304698D01*
X34225003Y-40284417D01*
X34224997Y-40284417D01*
X34019072Y-40304698D01*
X33821045Y-40364768D01*
X33638552Y-40462313D01*
X33478590Y-40593590D01*
X33347313Y-40753552D01*
X33249768Y-40936045D01*
X33189698Y-41134072D01*
X33169417Y-41339996D01*
X33169417Y-41340003D01*
X33189698Y-41545927D01*
X33189699Y-41545933D01*
X33189700Y-41545934D01*
X33249768Y-41743954D01*
X33347315Y-41926450D01*
X33478590Y-42086410D01*
X33638550Y-42217685D01*
X33821046Y-42315232D01*
X34019066Y-42375300D01*
X34019070Y-42375300D01*
X34019072Y-42375301D01*
X34224997Y-42395583D01*
X34225000Y-42395583D01*
X34225003Y-42395583D01*
X34430926Y-42375301D01*
X34430928Y-42375300D01*
X34430934Y-42375300D01*
X34506177Y-42352475D01*
X34577172Y-42351841D01*
X34631849Y-42383953D01*
X35007595Y-42759698D01*
X35041620Y-42822011D01*
X35044500Y-42848794D01*
X35044500Y-42927169D01*
X35024498Y-42995290D01*
X34970842Y-43041783D01*
X34900568Y-43051887D01*
X34838569Y-43024570D01*
X34811451Y-43002316D01*
X34811452Y-43002316D01*
X34811450Y-43002315D01*
X34628954Y-42904768D01*
X34430934Y-42844700D01*
X34430933Y-42844699D01*
X34430927Y-42844698D01*
X34225003Y-42824417D01*
X34224997Y-42824417D01*
X34019072Y-42844698D01*
X33821045Y-42904768D01*
X33638552Y-43002313D01*
X33478590Y-43133590D01*
X33347313Y-43293552D01*
X33249768Y-43476045D01*
X33189698Y-43674072D01*
X33169417Y-43879996D01*
X33169417Y-43880003D01*
X33189698Y-44085927D01*
X33189699Y-44085933D01*
X33189700Y-44085934D01*
X33249768Y-44283954D01*
X33347315Y-44466450D01*
X33478590Y-44626410D01*
X33638550Y-44757685D01*
X33707896Y-44794751D01*
X33758544Y-44844503D01*
X33774500Y-44905873D01*
X33774500Y-47451206D01*
X33754498Y-47519327D01*
X33737595Y-47540301D01*
X32134500Y-49143395D01*
X32072188Y-49177421D01*
X32001372Y-49172356D01*
X31999894Y-49171794D01*
X31992087Y-49168770D01*
X31987456Y-49166976D01*
X31786976Y-49129500D01*
X31583024Y-49129500D01*
X31502567Y-49144540D01*
X31382542Y-49166976D01*
X31254340Y-49216642D01*
X31192363Y-49240652D01*
X31192362Y-49240652D01*
X31192361Y-49240653D01*
X31192359Y-49240654D01*
X31077829Y-49311568D01*
X31009382Y-49330422D01*
X30941607Y-49309278D01*
X30896022Y-49254849D01*
X30885499Y-49204440D01*
X30885499Y-45368795D01*
X30905501Y-45300674D01*
X30922404Y-45279699D01*
X31234700Y-44967404D01*
X31297012Y-44933379D01*
X31323795Y-44930500D01*
X32255283Y-44930500D01*
X32255286Y-44930500D01*
X32339014Y-44920445D01*
X32472248Y-44867904D01*
X32586366Y-44781366D01*
X32672904Y-44667248D01*
X32725445Y-44534014D01*
X32735500Y-44450286D01*
X32735500Y-43309714D01*
X32725445Y-43225986D01*
X32672904Y-43092752D01*
X32604324Y-43002315D01*
X32586366Y-42978633D01*
X32472249Y-42892097D01*
X32472248Y-42892096D01*
X32405630Y-42865825D01*
X32339013Y-42839554D01*
X32255288Y-42829500D01*
X32255286Y-42829500D01*
X31136793Y-42829500D01*
X31068672Y-42809498D01*
X31022179Y-42755842D01*
X31012075Y-42685568D01*
X31041569Y-42620988D01*
X31047698Y-42614405D01*
X31278149Y-42383954D01*
X31340461Y-42349928D01*
X31403818Y-42352473D01*
X31479066Y-42375300D01*
X31479070Y-42375300D01*
X31479072Y-42375301D01*
X31684997Y-42395583D01*
X31685000Y-42395583D01*
X31685003Y-42395583D01*
X31890927Y-42375301D01*
X31890928Y-42375300D01*
X31890934Y-42375300D01*
X32088954Y-42315232D01*
X32271450Y-42217685D01*
X32431410Y-42086410D01*
X32562685Y-41926450D01*
X32660232Y-41743954D01*
X32720300Y-41545934D01*
X32720311Y-41545829D01*
X32740583Y-41340003D01*
X32740583Y-41339996D01*
X32720301Y-41134072D01*
X32720300Y-41134070D01*
X32720300Y-41134066D01*
X32697473Y-41058818D01*
X32696841Y-40987825D01*
X32728954Y-40933149D01*
X34374699Y-39287405D01*
X34437011Y-39253379D01*
X34463794Y-39250500D01*
X40546157Y-39250500D01*
X40553211Y-39250895D01*
X40592035Y-39255270D01*
X40649354Y-39244423D01*
X40651620Y-39244038D01*
X40709287Y-39235348D01*
X40709295Y-39235343D01*
X40717472Y-39232821D01*
X40725470Y-39230023D01*
X40725472Y-39230023D01*
X40725474Y-39230022D01*
X40777036Y-39202770D01*
X40779110Y-39201721D01*
X40831642Y-39176425D01*
X40831643Y-39176423D01*
X40838685Y-39171622D01*
X40845528Y-39166571D01*
X40845538Y-39166566D01*
X40886796Y-39125306D01*
X40888422Y-39123740D01*
X40931194Y-39084055D01*
X40931197Y-39084049D01*
X40937081Y-39076672D01*
X40937762Y-39077215D01*
X40947219Y-39064883D01*
X44928170Y-35083931D01*
X44933414Y-35079245D01*
X44963970Y-35054879D01*
X44996849Y-35006652D01*
X44998140Y-35004832D01*
X45032793Y-34957882D01*
X45032793Y-34957879D01*
X45032795Y-34957878D01*
X45036781Y-34950336D01*
X45040472Y-34942672D01*
X45057675Y-34886897D01*
X45058395Y-34884712D01*
X45077646Y-34829699D01*
X45077646Y-34829689D01*
X45079230Y-34821322D01*
X45080500Y-34812899D01*
X45080500Y-34754607D01*
X45080544Y-34752251D01*
X45080611Y-34750434D01*
X45082724Y-34693990D01*
X45082722Y-34693984D01*
X45081667Y-34684608D01*
X45082528Y-34684510D01*
X45080500Y-34669102D01*
X45080500Y-24381500D01*
X45100502Y-24313379D01*
X45154158Y-24266886D01*
X45206500Y-24255500D01*
X45827259Y-24255500D01*
X45895380Y-24275502D01*
X45941873Y-24329158D01*
X45944466Y-24335258D01*
X45970922Y-24402345D01*
X45990638Y-24452341D01*
X45990640Y-24452344D01*
X46082076Y-24572923D01*
X46155715Y-24628764D01*
X46202657Y-24664361D01*
X46323909Y-24712177D01*
X46325451Y-24712785D01*
X46381484Y-24756384D01*
X46405051Y-24823355D01*
X46388669Y-24892435D01*
X46337540Y-24941694D01*
X46325450Y-24947215D01*
X46202657Y-24995639D01*
X46202656Y-24995640D01*
X46202655Y-24995640D01*
X46082076Y-25087076D01*
X45990640Y-25207655D01*
X45990638Y-25207658D01*
X45935122Y-25348434D01*
X45924500Y-25436893D01*
X45924500Y-26223097D01*
X45924501Y-26223109D01*
X45935122Y-26311564D01*
X45990638Y-26452341D01*
X45990640Y-26452344D01*
X46082076Y-26572923D01*
X46128213Y-26607909D01*
X46202657Y-26664361D01*
X46273046Y-26692119D01*
X46343434Y-26719877D01*
X46363521Y-26722289D01*
X46428771Y-26750269D01*
X46468536Y-26809084D01*
X46474500Y-26847390D01*
X46474500Y-27440775D01*
X46454498Y-27508896D01*
X46400842Y-27555389D01*
X46394019Y-27558266D01*
X46387598Y-27560753D01*
X46387589Y-27560757D01*
X46198439Y-27677874D01*
X46198438Y-27677875D01*
X46034017Y-27827764D01*
X45899942Y-28005310D01*
X45899938Y-28005315D01*
X45800774Y-28204462D01*
X45800768Y-28204479D01*
X45739885Y-28418460D01*
X45719357Y-28640000D01*
X45739885Y-28861539D01*
X45800768Y-29075520D01*
X45800774Y-29075537D01*
X45899938Y-29274684D01*
X45899942Y-29274689D01*
X46034017Y-29452235D01*
X46198438Y-29602124D01*
X46198439Y-29602125D01*
X46387587Y-29719240D01*
X46387590Y-29719241D01*
X46387599Y-29719247D01*
X46432159Y-29736509D01*
X46488452Y-29779768D01*
X46512423Y-29846595D01*
X46496459Y-29915774D01*
X46445629Y-29965339D01*
X46386641Y-29980000D01*
X45980211Y-29980000D01*
X45980205Y-29980001D01*
X45955126Y-29982909D01*
X45955121Y-29982911D01*
X45852522Y-30028212D01*
X45773214Y-30107520D01*
X45773213Y-30107522D01*
X45727909Y-30210126D01*
X45725000Y-30235201D01*
X45725000Y-31030000D01*
X46497664Y-31030000D01*
X46471190Y-31145992D01*
X46481327Y-31281265D01*
X46500454Y-31330000D01*
X45725001Y-31330000D01*
X45725001Y-32124794D01*
X45727909Y-32149873D01*
X45727911Y-32149878D01*
X45773212Y-32252477D01*
X45852520Y-32331785D01*
X45852522Y-32331786D01*
X45955126Y-32377090D01*
X45955125Y-32377090D01*
X45980203Y-32379999D01*
X46775000Y-32379999D01*
X46775000Y-31604653D01*
X46857173Y-31630000D01*
X46958724Y-31630000D01*
X47059138Y-31614865D01*
X47075000Y-31607226D01*
X47075000Y-32379999D01*
X47869789Y-32379999D01*
X47869794Y-32379998D01*
X47894873Y-32377090D01*
X47894878Y-32377088D01*
X47997477Y-32331787D01*
X48076785Y-32252479D01*
X48076786Y-32252477D01*
X48122090Y-32149873D01*
X48124999Y-32124798D01*
X48125000Y-32124795D01*
X48125000Y-31330000D01*
X47352336Y-31330000D01*
X47378810Y-31214008D01*
X47368673Y-31078735D01*
X47349546Y-31030000D01*
X48124999Y-31030000D01*
X48124999Y-30235210D01*
X48124998Y-30235205D01*
X48122090Y-30210126D01*
X48122088Y-30210121D01*
X48076787Y-30107522D01*
X47997479Y-30028214D01*
X47997477Y-30028213D01*
X47894873Y-29982909D01*
X47894874Y-29982909D01*
X47869798Y-29980000D01*
X47463359Y-29980000D01*
X47395238Y-29959998D01*
X47348745Y-29906342D01*
X47338641Y-29836068D01*
X47368135Y-29771488D01*
X47417840Y-29736510D01*
X47462401Y-29719247D01*
X47651562Y-29602124D01*
X47815981Y-29452236D01*
X47950058Y-29274689D01*
X47950059Y-29274685D01*
X47950061Y-29274684D01*
X48049225Y-29075537D01*
X48049226Y-29075533D01*
X48049229Y-29075528D01*
X48110115Y-28861536D01*
X48130643Y-28640000D01*
X48110115Y-28418464D01*
X48096467Y-28370498D01*
X48049231Y-28204479D01*
X48049225Y-28204462D01*
X47950061Y-28005315D01*
X47950057Y-28005310D01*
X47949821Y-28004998D01*
X47909471Y-27951565D01*
X47815982Y-27827764D01*
X47651561Y-27677875D01*
X47651560Y-27677874D01*
X47462410Y-27560757D01*
X47462401Y-27560753D01*
X47455981Y-27558266D01*
X47399687Y-27515005D01*
X47375718Y-27448177D01*
X47375500Y-27440775D01*
X47375500Y-26847389D01*
X47395502Y-26779268D01*
X47449158Y-26732775D01*
X47486474Y-26722289D01*
X47506565Y-26719877D01*
X47647343Y-26664361D01*
X47767923Y-26572923D01*
X47859361Y-26452343D01*
X47914877Y-26311565D01*
X47925500Y-26223103D01*
X47925500Y-25980000D01*
X48465001Y-25980000D01*
X48465001Y-26223064D01*
X48475613Y-26311445D01*
X48531078Y-26452094D01*
X48531081Y-26452098D01*
X48622434Y-26572565D01*
X48742901Y-26663918D01*
X48742905Y-26663921D01*
X48883553Y-26719386D01*
X48883552Y-26719386D01*
X48971938Y-26729999D01*
X49315000Y-26729999D01*
X49315000Y-25980000D01*
X49615000Y-25980000D01*
X49615000Y-26729999D01*
X49958056Y-26729999D01*
X49958064Y-26729998D01*
X50046445Y-26719386D01*
X50187094Y-26663921D01*
X50187098Y-26663918D01*
X50307565Y-26572565D01*
X50398918Y-26452098D01*
X50398921Y-26452094D01*
X50454386Y-26311446D01*
X50464999Y-26223063D01*
X50465000Y-26223057D01*
X50465000Y-26017500D01*
X50980000Y-26017500D01*
X50980000Y-26248062D01*
X50990613Y-26336441D01*
X50990614Y-26336447D01*
X51046080Y-26477097D01*
X51137434Y-26597565D01*
X51257902Y-26688919D01*
X51398552Y-26744385D01*
X51398558Y-26744386D01*
X51486937Y-26754999D01*
X51486943Y-26755000D01*
X51855000Y-26755000D01*
X51855000Y-26017500D01*
X52155000Y-26017500D01*
X52155000Y-26755000D01*
X52523057Y-26755000D01*
X52523062Y-26754999D01*
X52611441Y-26744386D01*
X52611447Y-26744385D01*
X52752097Y-26688919D01*
X52872565Y-26597565D01*
X52963919Y-26477097D01*
X53019385Y-26336447D01*
X53019386Y-26336441D01*
X53029999Y-26248062D01*
X53030000Y-26248057D01*
X53030000Y-26017500D01*
X52155000Y-26017500D01*
X51855000Y-26017500D01*
X50980000Y-26017500D01*
X50465000Y-26017500D01*
X50465000Y-25980000D01*
X49615000Y-25980000D01*
X49315000Y-25980000D01*
X48465001Y-25980000D01*
X47925500Y-25980000D01*
X47925500Y-25717500D01*
X50980000Y-25717500D01*
X51855000Y-25717500D01*
X51855000Y-24980000D01*
X52155000Y-24980000D01*
X52155000Y-25717500D01*
X53030000Y-25717500D01*
X53030000Y-25486942D01*
X53029999Y-25486937D01*
X53019386Y-25398558D01*
X53019385Y-25398552D01*
X52963919Y-25257902D01*
X52872565Y-25137434D01*
X52752097Y-25046080D01*
X52611447Y-24990614D01*
X52611441Y-24990613D01*
X52523062Y-24980000D01*
X52155000Y-24980000D01*
X51855000Y-24980000D01*
X51486937Y-24980000D01*
X51398558Y-24990613D01*
X51398552Y-24990614D01*
X51257902Y-25046080D01*
X51137434Y-25137434D01*
X51046080Y-25257902D01*
X50990614Y-25398552D01*
X50990613Y-25398558D01*
X50980000Y-25486937D01*
X50980000Y-25717500D01*
X47925500Y-25717500D01*
X47925499Y-25436898D01*
X47914877Y-25348435D01*
X47859361Y-25207657D01*
X47818108Y-25153256D01*
X47767923Y-25087076D01*
X47647926Y-24996081D01*
X47647343Y-24995639D01*
X47634598Y-24990613D01*
X47524548Y-24947214D01*
X47468515Y-24903615D01*
X47444948Y-24836644D01*
X47461330Y-24767563D01*
X47512459Y-24718305D01*
X47524533Y-24712791D01*
X47647343Y-24664361D01*
X47767923Y-24572923D01*
X47859361Y-24452343D01*
X47914877Y-24311565D01*
X47925500Y-24223103D01*
X47925499Y-23436898D01*
X47914877Y-23348435D01*
X47859361Y-23207657D01*
X47796286Y-23124479D01*
X47767923Y-23087076D01*
X47647344Y-22995640D01*
X47647343Y-22995639D01*
X47647341Y-22995638D01*
X47506565Y-22940122D01*
X47506566Y-22940122D01*
X47418103Y-22929500D01*
X46431902Y-22929500D01*
X46431891Y-22929501D01*
X46343435Y-22940122D01*
X46202658Y-22995638D01*
X46202655Y-22995640D01*
X46082076Y-23087076D01*
X45990640Y-23207655D01*
X45990639Y-23207657D01*
X45990639Y-23207658D01*
X45964191Y-23274725D01*
X45920592Y-23330758D01*
X45853621Y-23354325D01*
X45846976Y-23354500D01*
X44694957Y-23354500D01*
X44666921Y-23351341D01*
X44664048Y-23350685D01*
X44664046Y-23350685D01*
X44636149Y-23352775D01*
X44615487Y-23354324D01*
X44610778Y-23354500D01*
X42611499Y-23354500D01*
X42543378Y-23334498D01*
X42496885Y-23280842D01*
X42485499Y-23228500D01*
X42485499Y-22660140D01*
X42485499Y-22660136D01*
X42482585Y-22635009D01*
X42437206Y-22532235D01*
X42437206Y-22532234D01*
X42357767Y-22452795D01*
X42357765Y-22452794D01*
X42254989Y-22407414D01*
X42254990Y-22407414D01*
X42229870Y-22404500D01*
X42229865Y-22404500D01*
X42161500Y-22404500D01*
X42093379Y-22384498D01*
X42046886Y-22330842D01*
X42035500Y-22278500D01*
X42035500Y-21011499D01*
X42055502Y-20943378D01*
X42109158Y-20896885D01*
X42161500Y-20885499D01*
X42728860Y-20885499D01*
X42728864Y-20885499D01*
X42753991Y-20882585D01*
X42856765Y-20837206D01*
X42936206Y-20757765D01*
X42981585Y-20654991D01*
X42984500Y-20629865D01*
X42984499Y-18740136D01*
X42981585Y-18715009D01*
X42936206Y-18612235D01*
X42936206Y-18612234D01*
X42856767Y-18532795D01*
X42856765Y-18532794D01*
X42753989Y-18487414D01*
X42753990Y-18487414D01*
X42728868Y-18484500D01*
X40139140Y-18484500D01*
X40139133Y-18484501D01*
X40114009Y-18487414D01*
X40114005Y-18487416D01*
X40011234Y-18532793D01*
X39931795Y-18612232D01*
X39931794Y-18612234D01*
X39886414Y-18715009D01*
X39883500Y-18740129D01*
X39883500Y-20629859D01*
X39883501Y-20629866D01*
X39886414Y-20654990D01*
X39886416Y-20654994D01*
X39931793Y-20757765D01*
X40011232Y-20837204D01*
X40011234Y-20837205D01*
X40011235Y-20837206D01*
X40114009Y-20882585D01*
X40139135Y-20885500D01*
X41008500Y-20885499D01*
X41076621Y-20905501D01*
X41123114Y-20959157D01*
X41134500Y-21011499D01*
X41134500Y-22278500D01*
X41114498Y-22346621D01*
X41060842Y-22393114D01*
X41008502Y-22404500D01*
X40940139Y-22404500D01*
X40940133Y-22404501D01*
X40915010Y-22407414D01*
X40915005Y-22407416D01*
X40812234Y-22452793D01*
X40732795Y-22532232D01*
X40732794Y-22532234D01*
X40687414Y-22635009D01*
X40684500Y-22660129D01*
X40684500Y-24949859D01*
X40684501Y-24949866D01*
X40687414Y-24974990D01*
X40687416Y-24974994D01*
X40732793Y-25077765D01*
X40812232Y-25157204D01*
X40812234Y-25157205D01*
X40812235Y-25157206D01*
X40915009Y-25202585D01*
X40940135Y-25205500D01*
X42229864Y-25205499D01*
X42254991Y-25202585D01*
X42357765Y-25157206D01*
X42437206Y-25077765D01*
X42482585Y-24974991D01*
X42485500Y-24949865D01*
X42485500Y-24381500D01*
X42505502Y-24313379D01*
X42559158Y-24266886D01*
X42611500Y-24255500D01*
X44053500Y-24255500D01*
X44121621Y-24275502D01*
X44168114Y-24329158D01*
X44179500Y-24381500D01*
X44179500Y-34506206D01*
X44159498Y-34574327D01*
X44142595Y-34595301D01*
X40425302Y-38312595D01*
X40362990Y-38346621D01*
X40336207Y-38349500D01*
X34253843Y-38349500D01*
X34246788Y-38349104D01*
X34207965Y-38344730D01*
X34207964Y-38344730D01*
X34150674Y-38355569D01*
X34148354Y-38355963D01*
X34090715Y-38364651D01*
X34082536Y-38367174D01*
X34074528Y-38369977D01*
X34022992Y-38397215D01*
X34020889Y-38398277D01*
X33968359Y-38423573D01*
X33961331Y-38428365D01*
X33954461Y-38433435D01*
X33913239Y-38474655D01*
X33911544Y-38476288D01*
X33868806Y-38515945D01*
X33862919Y-38523327D01*
X33862244Y-38522789D01*
X33852779Y-38535116D01*
X32091850Y-40296045D01*
X32029538Y-40330071D01*
X31966181Y-40327525D01*
X31890929Y-40304698D01*
X31685003Y-40284417D01*
X31684997Y-40284417D01*
X31479072Y-40304698D01*
X31281045Y-40364768D01*
X31098552Y-40462313D01*
X30938590Y-40593590D01*
X30807313Y-40753552D01*
X30709768Y-40936045D01*
X30649698Y-41134072D01*
X30629417Y-41339996D01*
X30629417Y-41340003D01*
X30649698Y-41545929D01*
X30672525Y-41621181D01*
X30673158Y-41692175D01*
X30641045Y-41746850D01*
X28846843Y-43541053D01*
X28841572Y-43545764D01*
X28811029Y-43570121D01*
X28778177Y-43618305D01*
X28776815Y-43620224D01*
X28742206Y-43667117D01*
X28738215Y-43674669D01*
X28734527Y-43682327D01*
X28717342Y-43738040D01*
X28716606Y-43740275D01*
X28697354Y-43795301D01*
X28695766Y-43803688D01*
X28694500Y-43812096D01*
X28694500Y-43870391D01*
X28694456Y-43872747D01*
X28692276Y-43931011D01*
X28693333Y-43940390D01*
X28692470Y-43940487D01*
X28694500Y-43955896D01*
X28694500Y-46582047D01*
X28674498Y-46650168D01*
X28620842Y-46696661D01*
X28614724Y-46699262D01*
X28535158Y-46730638D01*
X28535154Y-46730641D01*
X28414577Y-46822077D01*
X28323141Y-46942654D01*
X28323138Y-46942658D01*
X28267622Y-47083435D01*
X28257000Y-47171894D01*
X28257000Y-48208105D01*
X28267622Y-48296564D01*
X28323138Y-48437341D01*
X28323141Y-48437345D01*
X28414577Y-48557922D01*
X28535154Y-48649358D01*
X28535160Y-48649362D01*
X28556722Y-48657865D01*
X28614724Y-48680738D01*
X28670757Y-48724334D01*
X28694325Y-48791305D01*
X28694500Y-48797952D01*
X28694500Y-49144380D01*
X28674498Y-49212501D01*
X28634830Y-49251507D01*
X28478960Y-49348017D01*
X28478959Y-49348018D01*
X28328234Y-49485421D01*
X28205329Y-49648175D01*
X28114416Y-49830754D01*
X28058603Y-50026915D01*
X28039785Y-50229999D01*
X28058603Y-50433084D01*
X28114416Y-50629245D01*
X28114417Y-50629247D01*
X28114418Y-50629250D01*
X28205327Y-50811821D01*
X28205328Y-50811822D01*
X28205329Y-50811824D01*
X28328234Y-50974578D01*
X28478956Y-51111979D01*
X28478958Y-51111980D01*
X28478959Y-51111981D01*
X28601226Y-51187685D01*
X28648612Y-51240550D01*
X28659895Y-51310644D01*
X28631492Y-51375712D01*
X28623989Y-51383906D01*
X23766843Y-56241053D01*
X23761572Y-56245764D01*
X23731029Y-56270121D01*
X23698177Y-56318305D01*
X23696815Y-56320224D01*
X23662206Y-56367117D01*
X23658215Y-56374669D01*
X23654527Y-56382327D01*
X23637342Y-56438040D01*
X23636606Y-56440275D01*
X23617354Y-56495301D01*
X23615766Y-56503688D01*
X23614500Y-56512096D01*
X23614500Y-56570391D01*
X23614456Y-56572747D01*
X23612276Y-56631011D01*
X23613333Y-56640390D01*
X23612470Y-56640487D01*
X23614500Y-56655896D01*
X23614500Y-56764380D01*
X23594498Y-56832501D01*
X23554830Y-56871507D01*
X23398960Y-56968017D01*
X23398959Y-56968018D01*
X23248234Y-57105421D01*
X23125329Y-57268175D01*
X23034416Y-57450754D01*
X22978603Y-57646915D01*
X22959785Y-57850000D01*
X22978603Y-58053084D01*
X23034416Y-58249245D01*
X23034417Y-58249247D01*
X23034418Y-58249250D01*
X23125327Y-58431821D01*
X23125328Y-58431822D01*
X23125329Y-58431824D01*
X23248234Y-58594578D01*
X23398959Y-58731981D01*
X23398960Y-58731982D01*
X23572351Y-58839341D01*
X23572354Y-58839342D01*
X23572363Y-58839348D01*
X23762544Y-58913024D01*
X23963024Y-58950500D01*
X23963026Y-58950500D01*
X24166974Y-58950500D01*
X24166976Y-58950500D01*
X24367456Y-58913024D01*
X24557637Y-58839348D01*
X24731041Y-58731981D01*
X24881764Y-58594579D01*
X25004673Y-58431821D01*
X25095582Y-58249250D01*
X25151397Y-58053083D01*
X25156316Y-58000000D01*
X25514187Y-58000000D01*
X25519097Y-58052991D01*
X25574883Y-58249059D01*
X25574886Y-58249067D01*
X25665755Y-58431558D01*
X25788605Y-58594239D01*
X25939260Y-58731579D01*
X26112581Y-58838895D01*
X26112585Y-58838897D01*
X26302679Y-58912540D01*
X26455000Y-58941013D01*
X26455000Y-58222502D01*
X26479852Y-58235165D01*
X26573519Y-58250000D01*
X26636481Y-58250000D01*
X26730148Y-58235165D01*
X26755000Y-58222502D01*
X26755000Y-58941013D01*
X26907320Y-58912540D01*
X27097414Y-58838897D01*
X27097418Y-58838895D01*
X27270739Y-58731579D01*
X27421394Y-58594239D01*
X27544244Y-58431558D01*
X27635113Y-58249067D01*
X27635116Y-58249059D01*
X27690902Y-58052991D01*
X27695813Y-58000000D01*
X26977502Y-58000000D01*
X26990165Y-57975148D01*
X27009986Y-57850000D01*
X28039785Y-57850000D01*
X28058603Y-58053084D01*
X28114416Y-58249245D01*
X28114417Y-58249247D01*
X28114418Y-58249250D01*
X28205327Y-58431821D01*
X28205328Y-58431822D01*
X28205329Y-58431824D01*
X28328234Y-58594578D01*
X28478959Y-58731981D01*
X28478960Y-58731982D01*
X28652351Y-58839341D01*
X28652354Y-58839342D01*
X28652363Y-58839348D01*
X28842544Y-58913024D01*
X29043024Y-58950500D01*
X29043026Y-58950500D01*
X29246974Y-58950500D01*
X29246976Y-58950500D01*
X29447456Y-58913024D01*
X29637637Y-58839348D01*
X29811041Y-58731981D01*
X29961764Y-58594579D01*
X30084673Y-58431821D01*
X30175582Y-58249250D01*
X30231397Y-58053083D01*
X30250215Y-57850000D01*
X30579785Y-57850000D01*
X30598603Y-58053084D01*
X30654416Y-58249245D01*
X30654417Y-58249247D01*
X30654418Y-58249250D01*
X30745327Y-58431821D01*
X30745328Y-58431822D01*
X30745329Y-58431824D01*
X30868234Y-58594578D01*
X31018959Y-58731981D01*
X31018960Y-58731982D01*
X31192351Y-58839341D01*
X31192354Y-58839342D01*
X31192363Y-58839348D01*
X31382544Y-58913024D01*
X31583024Y-58950500D01*
X31583026Y-58950500D01*
X31786974Y-58950500D01*
X31786976Y-58950500D01*
X31987456Y-58913024D01*
X32177637Y-58839348D01*
X32351041Y-58731981D01*
X32501764Y-58594579D01*
X32624673Y-58431821D01*
X32715582Y-58249250D01*
X32771397Y-58053083D01*
X32790215Y-57850000D01*
X33119785Y-57850000D01*
X33138603Y-58053084D01*
X33194416Y-58249245D01*
X33194417Y-58249247D01*
X33194418Y-58249250D01*
X33285327Y-58431821D01*
X33285328Y-58431822D01*
X33285329Y-58431824D01*
X33408234Y-58594578D01*
X33558959Y-58731981D01*
X33558960Y-58731982D01*
X33732351Y-58839341D01*
X33732354Y-58839342D01*
X33732363Y-58839348D01*
X33922544Y-58913024D01*
X34123024Y-58950500D01*
X34123026Y-58950500D01*
X34326974Y-58950500D01*
X34326976Y-58950500D01*
X34527456Y-58913024D01*
X34717637Y-58839348D01*
X34891041Y-58731981D01*
X35041764Y-58594579D01*
X35164673Y-58431821D01*
X35255582Y-58249250D01*
X35311397Y-58053083D01*
X35330215Y-57850000D01*
X35311397Y-57646917D01*
X35255582Y-57450750D01*
X35164673Y-57268179D01*
X35164670Y-57268175D01*
X35041765Y-57105421D01*
X34891040Y-56968018D01*
X34891039Y-56968017D01*
X34717648Y-56860658D01*
X34717641Y-56860654D01*
X34717637Y-56860652D01*
X34591501Y-56811787D01*
X34527457Y-56786976D01*
X34460629Y-56774484D01*
X34326976Y-56749500D01*
X34123024Y-56749500D01*
X34043423Y-56764380D01*
X33922542Y-56786976D01*
X33793873Y-56836823D01*
X33732363Y-56860652D01*
X33732362Y-56860652D01*
X33732361Y-56860653D01*
X33732351Y-56860658D01*
X33558960Y-56968017D01*
X33558959Y-56968018D01*
X33408234Y-57105421D01*
X33285329Y-57268175D01*
X33194416Y-57450754D01*
X33138603Y-57646915D01*
X33119785Y-57850000D01*
X32790215Y-57850000D01*
X32771397Y-57646917D01*
X32715582Y-57450750D01*
X32624673Y-57268179D01*
X32624670Y-57268175D01*
X32501765Y-57105421D01*
X32351040Y-56968018D01*
X32351039Y-56968017D01*
X32177648Y-56860658D01*
X32177641Y-56860654D01*
X32177637Y-56860652D01*
X32051501Y-56811787D01*
X31987457Y-56786976D01*
X31920629Y-56774484D01*
X31786976Y-56749500D01*
X31583024Y-56749500D01*
X31503423Y-56764380D01*
X31382542Y-56786976D01*
X31253873Y-56836823D01*
X31192363Y-56860652D01*
X31192362Y-56860652D01*
X31192361Y-56860653D01*
X31192351Y-56860658D01*
X31018960Y-56968017D01*
X31018959Y-56968018D01*
X30868234Y-57105421D01*
X30745329Y-57268175D01*
X30654416Y-57450754D01*
X30598603Y-57646915D01*
X30579785Y-57850000D01*
X30250215Y-57850000D01*
X30231397Y-57646917D01*
X30175582Y-57450750D01*
X30084673Y-57268179D01*
X30084670Y-57268175D01*
X29961765Y-57105421D01*
X29811040Y-56968018D01*
X29811039Y-56968017D01*
X29637648Y-56860658D01*
X29637641Y-56860654D01*
X29637637Y-56860652D01*
X29511501Y-56811787D01*
X29447457Y-56786976D01*
X29380629Y-56774484D01*
X29246976Y-56749500D01*
X29043024Y-56749500D01*
X28963423Y-56764380D01*
X28842542Y-56786976D01*
X28713873Y-56836823D01*
X28652363Y-56860652D01*
X28652362Y-56860652D01*
X28652361Y-56860653D01*
X28652351Y-56860658D01*
X28478960Y-56968017D01*
X28478959Y-56968018D01*
X28328234Y-57105421D01*
X28205329Y-57268175D01*
X28114416Y-57450754D01*
X28058603Y-57646915D01*
X28039785Y-57850000D01*
X27009986Y-57850000D01*
X26990165Y-57724852D01*
X26977502Y-57700000D01*
X27695813Y-57700000D01*
X27690902Y-57647008D01*
X27635116Y-57450940D01*
X27635113Y-57450932D01*
X27544244Y-57268441D01*
X27421394Y-57105760D01*
X27270739Y-56968420D01*
X27097418Y-56861104D01*
X27097414Y-56861102D01*
X26907320Y-56787459D01*
X26755000Y-56758985D01*
X26755000Y-57477497D01*
X26730148Y-57464835D01*
X26636481Y-57450000D01*
X26573519Y-57450000D01*
X26479852Y-57464835D01*
X26455000Y-57477497D01*
X26455000Y-56758985D01*
X26302679Y-56787459D01*
X26112585Y-56861102D01*
X26112581Y-56861104D01*
X25939260Y-56968420D01*
X25788605Y-57105760D01*
X25665755Y-57268441D01*
X25574886Y-57450932D01*
X25574883Y-57450940D01*
X25519097Y-57647008D01*
X25514187Y-57700000D01*
X26232498Y-57700000D01*
X26219835Y-57724852D01*
X26200014Y-57850000D01*
X26219835Y-57975148D01*
X26232498Y-58000000D01*
X25514187Y-58000000D01*
X25156316Y-58000000D01*
X25170215Y-57850000D01*
X25151397Y-57646917D01*
X25095582Y-57450750D01*
X25004673Y-57268179D01*
X25004670Y-57268175D01*
X24881765Y-57105421D01*
X24731042Y-56968019D01*
X24608774Y-56892314D01*
X24561387Y-56839447D01*
X24550104Y-56769353D01*
X24578508Y-56704286D01*
X24585999Y-56696103D01*
X29443170Y-51838931D01*
X29448414Y-51834245D01*
X29478970Y-51809879D01*
X29511849Y-51761652D01*
X29513140Y-51759832D01*
X29547793Y-51712882D01*
X29547793Y-51712879D01*
X29547795Y-51712878D01*
X29551781Y-51705336D01*
X29555472Y-51697672D01*
X29572675Y-51641897D01*
X29573395Y-51639712D01*
X29592646Y-51584699D01*
X29592646Y-51584689D01*
X29594230Y-51576322D01*
X29595500Y-51567899D01*
X29595500Y-51509607D01*
X29595544Y-51507251D01*
X29596064Y-51493355D01*
X29597724Y-51448990D01*
X29597722Y-51448984D01*
X29596667Y-51439608D01*
X29597528Y-51439510D01*
X29595500Y-51424102D01*
X29595500Y-51315619D01*
X29615502Y-51247498D01*
X29655167Y-51208493D01*
X29811041Y-51111981D01*
X29867104Y-51060872D01*
X29930920Y-51029761D01*
X30001426Y-51038090D01*
X30052084Y-51079714D01*
X30052118Y-51079684D01*
X30052344Y-51079927D01*
X30056098Y-51083012D01*
X30063380Y-51093694D01*
X30068431Y-51100537D01*
X30068432Y-51100538D01*
X30068433Y-51100539D01*
X30109678Y-51141784D01*
X30111270Y-51143436D01*
X30150944Y-51186195D01*
X30150945Y-51186196D01*
X30158328Y-51192083D01*
X30157786Y-51192762D01*
X30170113Y-51202219D01*
X30746050Y-51778155D01*
X30750760Y-51783426D01*
X30755343Y-51789172D01*
X30775120Y-51813971D01*
X30823316Y-51846830D01*
X30825183Y-51848155D01*
X30872086Y-51882771D01*
X30872120Y-51882796D01*
X30879659Y-51886780D01*
X30887323Y-51890471D01*
X30887326Y-51890473D01*
X30923230Y-51901547D01*
X30943053Y-51907662D01*
X30945292Y-51908399D01*
X30981630Y-51921114D01*
X31000300Y-51927647D01*
X31000306Y-51927647D01*
X31008681Y-51929232D01*
X31017095Y-51930500D01*
X31017097Y-51930501D01*
X31075375Y-51930501D01*
X31077732Y-51930545D01*
X31080916Y-51930664D01*
X31136009Y-51932726D01*
X31136013Y-51932724D01*
X31145394Y-51931669D01*
X31145491Y-51932530D01*
X31160902Y-51930501D01*
X32946156Y-51930501D01*
X32953210Y-51930896D01*
X32992034Y-51935271D01*
X33049353Y-51924424D01*
X33051619Y-51924039D01*
X33109286Y-51915349D01*
X33109294Y-51915344D01*
X33117471Y-51912822D01*
X33125469Y-51910024D01*
X33125471Y-51910024D01*
X33128896Y-51908214D01*
X33177035Y-51882771D01*
X33179109Y-51881722D01*
X33231641Y-51856426D01*
X33231642Y-51856424D01*
X33238684Y-51851623D01*
X33245527Y-51846572D01*
X33245537Y-51846567D01*
X33286795Y-51805307D01*
X33288421Y-51803741D01*
X33331193Y-51764056D01*
X33331196Y-51764050D01*
X33337080Y-51756673D01*
X33337761Y-51757216D01*
X33347218Y-51744884D01*
X33775501Y-51316601D01*
X33837811Y-51282577D01*
X33908626Y-51287642D01*
X33910012Y-51288169D01*
X33920312Y-51292159D01*
X33921294Y-51292540D01*
X33922544Y-51293024D01*
X34123024Y-51330500D01*
X34123026Y-51330500D01*
X34326974Y-51330500D01*
X34326976Y-51330500D01*
X34527456Y-51293024D01*
X34717637Y-51219348D01*
X34891041Y-51111981D01*
X35041764Y-50974579D01*
X35049536Y-50964288D01*
X35108981Y-50885569D01*
X35164673Y-50811821D01*
X35255582Y-50629250D01*
X35311397Y-50433083D01*
X35330215Y-50230000D01*
X35311397Y-50026917D01*
X35255582Y-49830750D01*
X35164673Y-49648179D01*
X35164670Y-49648175D01*
X35082230Y-49539006D01*
X35057140Y-49472590D01*
X35070965Y-49407724D01*
X35004285Y-49419167D01*
X34938927Y-49391439D01*
X34933939Y-49387124D01*
X34891046Y-49348022D01*
X34891039Y-49348017D01*
X34717648Y-49240658D01*
X34717641Y-49240654D01*
X34717637Y-49240652D01*
X34601133Y-49195518D01*
X34527457Y-49166976D01*
X34407433Y-49144540D01*
X34326976Y-49129500D01*
X34123024Y-49129500D01*
X34042567Y-49144540D01*
X33922542Y-49166976D01*
X33794340Y-49216642D01*
X33732363Y-49240652D01*
X33732362Y-49240652D01*
X33732361Y-49240653D01*
X33732351Y-49240658D01*
X33558959Y-49348017D01*
X33558117Y-49348654D01*
X33557643Y-49348832D01*
X33554006Y-49351085D01*
X33553565Y-49350372D01*
X33491698Y-49373734D01*
X33422263Y-49358923D01*
X33371858Y-49308925D01*
X33356486Y-49239612D01*
X33381027Y-49172992D01*
X33393098Y-49159004D01*
X34523175Y-48028927D01*
X34528419Y-48024241D01*
X34558970Y-47999879D01*
X34591820Y-47951695D01*
X34593156Y-47949812D01*
X34627792Y-47902883D01*
X34627792Y-47902880D01*
X34627794Y-47902879D01*
X34631789Y-47895320D01*
X34635471Y-47887674D01*
X34635470Y-47887674D01*
X34635472Y-47887673D01*
X34646531Y-47851815D01*
X34652662Y-47831943D01*
X34653399Y-47829703D01*
X34656406Y-47821107D01*
X34672646Y-47774700D01*
X34672646Y-47774697D01*
X34674228Y-47766335D01*
X34675500Y-47757901D01*
X34675500Y-47699607D01*
X34675544Y-47697251D01*
X34677724Y-47638989D01*
X34676667Y-47629610D01*
X34677528Y-47629512D01*
X34675500Y-47614103D01*
X34675500Y-44905873D01*
X34695502Y-44837752D01*
X34742103Y-44794751D01*
X34811450Y-44757685D01*
X34838568Y-44735429D01*
X34903914Y-44707677D01*
X34973893Y-44719659D01*
X35026284Y-44767572D01*
X35044500Y-44832830D01*
X35044500Y-48931156D01*
X35044104Y-48938215D01*
X35039730Y-48977036D01*
X35039730Y-48977038D01*
X35050564Y-49034296D01*
X35050959Y-49036618D01*
X35059651Y-49094287D01*
X35062160Y-49102421D01*
X35064978Y-49110476D01*
X35085606Y-49149504D01*
X35090623Y-49158997D01*
X35092224Y-49162025D01*
X35093286Y-49164129D01*
X35118576Y-49216644D01*
X35122933Y-49223035D01*
X35144778Y-49290588D01*
X35128746Y-49351228D01*
X35191241Y-49337358D01*
X35257865Y-49361890D01*
X35271875Y-49373979D01*
X35680780Y-49782884D01*
X35714806Y-49845196D01*
X35712875Y-49906460D01*
X35678603Y-50026913D01*
X35659785Y-50229999D01*
X35678603Y-50433084D01*
X35734416Y-50629245D01*
X35734417Y-50629247D01*
X35734418Y-50629250D01*
X35825327Y-50811821D01*
X35825328Y-50811822D01*
X35825329Y-50811824D01*
X35948234Y-50974578D01*
X36098959Y-51111981D01*
X36098960Y-51111982D01*
X36272351Y-51219341D01*
X36272354Y-51219342D01*
X36272363Y-51219348D01*
X36462544Y-51293024D01*
X36663024Y-51330500D01*
X36663026Y-51330500D01*
X36866974Y-51330500D01*
X36866976Y-51330500D01*
X37067456Y-51293024D01*
X37257637Y-51219348D01*
X37392170Y-51136048D01*
X37460616Y-51117194D01*
X37528392Y-51138337D01*
X37573977Y-51192766D01*
X37584500Y-51243176D01*
X37584500Y-56836823D01*
X37564498Y-56904944D01*
X37510842Y-56951437D01*
X37440568Y-56961541D01*
X37392170Y-56943951D01*
X37289089Y-56880126D01*
X37257637Y-56860652D01*
X37131501Y-56811787D01*
X37067457Y-56786976D01*
X37000629Y-56774484D01*
X36866976Y-56749500D01*
X36663024Y-56749500D01*
X36583423Y-56764380D01*
X36462542Y-56786976D01*
X36333873Y-56836823D01*
X36272363Y-56860652D01*
X36272362Y-56860652D01*
X36272361Y-56860653D01*
X36272351Y-56860658D01*
X36098960Y-56968017D01*
X36098959Y-56968018D01*
X35948234Y-57105421D01*
X35825329Y-57268175D01*
X35734416Y-57450754D01*
X35678603Y-57646915D01*
X35659785Y-57850000D01*
X35678603Y-58053084D01*
X35734416Y-58249245D01*
X35734417Y-58249247D01*
X35734418Y-58249250D01*
X35825327Y-58431821D01*
X35825328Y-58431822D01*
X35825329Y-58431824D01*
X35948234Y-58594578D01*
X36098959Y-58731981D01*
X36098960Y-58731982D01*
X36272351Y-58839341D01*
X36272354Y-58839342D01*
X36272363Y-58839348D01*
X36462544Y-58913024D01*
X36663024Y-58950500D01*
X36663026Y-58950500D01*
X36866974Y-58950500D01*
X36866976Y-58950500D01*
X37067456Y-58913024D01*
X37257637Y-58839348D01*
X37392170Y-58756048D01*
X37460616Y-58737194D01*
X37528392Y-58758337D01*
X37573977Y-58812766D01*
X37584500Y-58863176D01*
X37584500Y-58881205D01*
X37564498Y-58949326D01*
X37547596Y-58970300D01*
X37250302Y-59267595D01*
X37187989Y-59301620D01*
X37161206Y-59304500D01*
X10968794Y-59304500D01*
X10900673Y-59284498D01*
X10879699Y-59267595D01*
X10533107Y-58921003D01*
X10499081Y-58858691D01*
X10504146Y-58787876D01*
X10546693Y-58731040D01*
X10613213Y-58706229D01*
X10682587Y-58721320D01*
X10698137Y-58731360D01*
X10698966Y-58731986D01*
X10872351Y-58839341D01*
X10872354Y-58839342D01*
X10872363Y-58839348D01*
X11062544Y-58913024D01*
X11263024Y-58950500D01*
X11263026Y-58950500D01*
X11466974Y-58950500D01*
X11466976Y-58950500D01*
X11667456Y-58913024D01*
X11857637Y-58839348D01*
X12031041Y-58731981D01*
X12181764Y-58594579D01*
X12304673Y-58431821D01*
X12395582Y-58249250D01*
X12451397Y-58053083D01*
X12470215Y-57850000D01*
X12799785Y-57850000D01*
X12818603Y-58053084D01*
X12874416Y-58249245D01*
X12874417Y-58249247D01*
X12874418Y-58249250D01*
X12965327Y-58431821D01*
X12965328Y-58431822D01*
X12965329Y-58431824D01*
X13088234Y-58594578D01*
X13238959Y-58731981D01*
X13238960Y-58731982D01*
X13412351Y-58839341D01*
X13412354Y-58839342D01*
X13412363Y-58839348D01*
X13602544Y-58913024D01*
X13803024Y-58950500D01*
X13803026Y-58950500D01*
X14006974Y-58950500D01*
X14006976Y-58950500D01*
X14207456Y-58913024D01*
X14397637Y-58839348D01*
X14571041Y-58731981D01*
X14721764Y-58594579D01*
X14844673Y-58431821D01*
X14935582Y-58249250D01*
X14991397Y-58053083D01*
X15010215Y-57850000D01*
X15339785Y-57850000D01*
X15358603Y-58053084D01*
X15414416Y-58249245D01*
X15414417Y-58249247D01*
X15414418Y-58249250D01*
X15505327Y-58431821D01*
X15505328Y-58431822D01*
X15505329Y-58431824D01*
X15628234Y-58594578D01*
X15778959Y-58731981D01*
X15778960Y-58731982D01*
X15952351Y-58839341D01*
X15952354Y-58839342D01*
X15952363Y-58839348D01*
X16142544Y-58913024D01*
X16343024Y-58950500D01*
X16343026Y-58950500D01*
X16546974Y-58950500D01*
X16546976Y-58950500D01*
X16747456Y-58913024D01*
X16937637Y-58839348D01*
X17111041Y-58731981D01*
X17261764Y-58594579D01*
X17384673Y-58431821D01*
X17475582Y-58249250D01*
X17531397Y-58053083D01*
X17550215Y-57850000D01*
X17879785Y-57850000D01*
X17898603Y-58053084D01*
X17954416Y-58249245D01*
X17954417Y-58249247D01*
X17954418Y-58249250D01*
X18045327Y-58431821D01*
X18045328Y-58431822D01*
X18045329Y-58431824D01*
X18168234Y-58594578D01*
X18318959Y-58731981D01*
X18318960Y-58731982D01*
X18492351Y-58839341D01*
X18492354Y-58839342D01*
X18492363Y-58839348D01*
X18682544Y-58913024D01*
X18883024Y-58950500D01*
X18883026Y-58950500D01*
X19086974Y-58950500D01*
X19086976Y-58950500D01*
X19287456Y-58913024D01*
X19477637Y-58839348D01*
X19651041Y-58731981D01*
X19801764Y-58594579D01*
X19924673Y-58431821D01*
X20015582Y-58249250D01*
X20071397Y-58053083D01*
X20090215Y-57850000D01*
X20419785Y-57850000D01*
X20438603Y-58053084D01*
X20494416Y-58249245D01*
X20494417Y-58249247D01*
X20494418Y-58249250D01*
X20585327Y-58431821D01*
X20585328Y-58431822D01*
X20585329Y-58431824D01*
X20708234Y-58594578D01*
X20858959Y-58731981D01*
X20858960Y-58731982D01*
X21032351Y-58839341D01*
X21032354Y-58839342D01*
X21032363Y-58839348D01*
X21222544Y-58913024D01*
X21423024Y-58950500D01*
X21423026Y-58950500D01*
X21626974Y-58950500D01*
X21626976Y-58950500D01*
X21827456Y-58913024D01*
X22017637Y-58839348D01*
X22191041Y-58731981D01*
X22341764Y-58594579D01*
X22464673Y-58431821D01*
X22555582Y-58249250D01*
X22611397Y-58053083D01*
X22630215Y-57850000D01*
X22611397Y-57646917D01*
X22555582Y-57450750D01*
X22464673Y-57268179D01*
X22464670Y-57268175D01*
X22341765Y-57105421D01*
X22191040Y-56968018D01*
X22191039Y-56968017D01*
X22017648Y-56860658D01*
X22017641Y-56860654D01*
X22017637Y-56860652D01*
X21891501Y-56811787D01*
X21827457Y-56786976D01*
X21760629Y-56774484D01*
X21626976Y-56749500D01*
X21423024Y-56749500D01*
X21343423Y-56764380D01*
X21222542Y-56786976D01*
X21093873Y-56836823D01*
X21032363Y-56860652D01*
X21032362Y-56860652D01*
X21032361Y-56860653D01*
X21032351Y-56860658D01*
X20858960Y-56968017D01*
X20858959Y-56968018D01*
X20708234Y-57105421D01*
X20585329Y-57268175D01*
X20494416Y-57450754D01*
X20438603Y-57646915D01*
X20419785Y-57850000D01*
X20090215Y-57850000D01*
X20071397Y-57646917D01*
X20015582Y-57450750D01*
X19924673Y-57268179D01*
X19924670Y-57268175D01*
X19801765Y-57105421D01*
X19651040Y-56968018D01*
X19651039Y-56968017D01*
X19477648Y-56860658D01*
X19477641Y-56860654D01*
X19477637Y-56860652D01*
X19351501Y-56811787D01*
X19287457Y-56786976D01*
X19220629Y-56774484D01*
X19086976Y-56749500D01*
X18883024Y-56749500D01*
X18803423Y-56764380D01*
X18682542Y-56786976D01*
X18553873Y-56836823D01*
X18492363Y-56860652D01*
X18492362Y-56860652D01*
X18492361Y-56860653D01*
X18492351Y-56860658D01*
X18318960Y-56968017D01*
X18318959Y-56968018D01*
X18168234Y-57105421D01*
X18045329Y-57268175D01*
X17954416Y-57450754D01*
X17898603Y-57646915D01*
X17879785Y-57850000D01*
X17550215Y-57850000D01*
X17531397Y-57646917D01*
X17475582Y-57450750D01*
X17384673Y-57268179D01*
X17384670Y-57268175D01*
X17261765Y-57105421D01*
X17111040Y-56968018D01*
X17111039Y-56968017D01*
X16937648Y-56860658D01*
X16937641Y-56860654D01*
X16937637Y-56860652D01*
X16811501Y-56811787D01*
X16747457Y-56786976D01*
X16680629Y-56774484D01*
X16546976Y-56749500D01*
X16343024Y-56749500D01*
X16263423Y-56764380D01*
X16142542Y-56786976D01*
X16013873Y-56836823D01*
X15952363Y-56860652D01*
X15952362Y-56860652D01*
X15952361Y-56860653D01*
X15952351Y-56860658D01*
X15778960Y-56968017D01*
X15778959Y-56968018D01*
X15628234Y-57105421D01*
X15505329Y-57268175D01*
X15414416Y-57450754D01*
X15358603Y-57646915D01*
X15339785Y-57850000D01*
X15010215Y-57850000D01*
X14991397Y-57646917D01*
X14935582Y-57450750D01*
X14844673Y-57268179D01*
X14844670Y-57268175D01*
X14721765Y-57105421D01*
X14571040Y-56968018D01*
X14571039Y-56968017D01*
X14397648Y-56860658D01*
X14397641Y-56860654D01*
X14397637Y-56860652D01*
X14271501Y-56811787D01*
X14207457Y-56786976D01*
X14140629Y-56774484D01*
X14006976Y-56749500D01*
X13803024Y-56749500D01*
X13723423Y-56764380D01*
X13602542Y-56786976D01*
X13473873Y-56836823D01*
X13412363Y-56860652D01*
X13412362Y-56860652D01*
X13412361Y-56860653D01*
X13412351Y-56860658D01*
X13238960Y-56968017D01*
X13238959Y-56968018D01*
X13088234Y-57105421D01*
X12965329Y-57268175D01*
X12874416Y-57450754D01*
X12818603Y-57646915D01*
X12799785Y-57850000D01*
X12470215Y-57850000D01*
X12451397Y-57646917D01*
X12395582Y-57450750D01*
X12304673Y-57268179D01*
X12304670Y-57268175D01*
X12181765Y-57105421D01*
X12031040Y-56968018D01*
X12031039Y-56968017D01*
X11857648Y-56860658D01*
X11857641Y-56860654D01*
X11857637Y-56860652D01*
X11731501Y-56811787D01*
X11667457Y-56786976D01*
X11600629Y-56774484D01*
X11466976Y-56749500D01*
X11263024Y-56749500D01*
X11183423Y-56764380D01*
X11062542Y-56786976D01*
X10933873Y-56836823D01*
X10872363Y-56860652D01*
X10872362Y-56860652D01*
X10872361Y-56860653D01*
X10872351Y-56860658D01*
X10698960Y-56968017D01*
X10698959Y-56968018D01*
X10548234Y-57105421D01*
X10425329Y-57268175D01*
X10334416Y-57450754D01*
X10278603Y-57646915D01*
X10259785Y-57850000D01*
X10278603Y-58053084D01*
X10334416Y-58249245D01*
X10334417Y-58249247D01*
X10334418Y-58249250D01*
X10425327Y-58431821D01*
X10425328Y-58431822D01*
X10425329Y-58431824D01*
X10507772Y-58540997D01*
X10532861Y-58607412D01*
X10518061Y-58676849D01*
X10468070Y-58727261D01*
X10398760Y-58742644D01*
X10332136Y-58718112D01*
X10318135Y-58706031D01*
X9962402Y-58350299D01*
X9928378Y-58287988D01*
X9925499Y-58261205D01*
X9925499Y-57005140D01*
X9925499Y-57005136D01*
X9922585Y-56980009D01*
X9881620Y-56887232D01*
X9877206Y-56877234D01*
X9797767Y-56797795D01*
X9797765Y-56797794D01*
X9694989Y-56752414D01*
X9694990Y-56752414D01*
X9669868Y-56749500D01*
X7980140Y-56749500D01*
X7980133Y-56749501D01*
X7955009Y-56752414D01*
X7955005Y-56752416D01*
X7852234Y-56797793D01*
X7772795Y-56877232D01*
X7772794Y-56877234D01*
X7727414Y-56980009D01*
X7724500Y-57005129D01*
X7724500Y-58694859D01*
X75500Y-58694859D01*
X75500Y-50230000D01*
X7719785Y-50230000D01*
X7738603Y-50433084D01*
X7794416Y-50629245D01*
X7794417Y-50629247D01*
X7794418Y-50629250D01*
X7885327Y-50811821D01*
X7885328Y-50811822D01*
X7885329Y-50811824D01*
X8008234Y-50974578D01*
X8158959Y-51111981D01*
X8158960Y-51111982D01*
X8332351Y-51219341D01*
X8332354Y-51219342D01*
X8332363Y-51219348D01*
X8522544Y-51293024D01*
X8723024Y-51330500D01*
X8723026Y-51330500D01*
X8926974Y-51330500D01*
X8926976Y-51330500D01*
X9127456Y-51293024D01*
X9317637Y-51219348D01*
X9491041Y-51111981D01*
X9641764Y-50974579D01*
X9649536Y-50964288D01*
X9708981Y-50885569D01*
X9764673Y-50811821D01*
X9855582Y-50629250D01*
X9911397Y-50433083D01*
X9930215Y-50230000D01*
X10259785Y-50230000D01*
X10278603Y-50433084D01*
X10334416Y-50629245D01*
X10334417Y-50629247D01*
X10334418Y-50629250D01*
X10425327Y-50811821D01*
X10425328Y-50811822D01*
X10425329Y-50811824D01*
X10548234Y-50974578D01*
X10698959Y-51111981D01*
X10698960Y-51111982D01*
X10872351Y-51219341D01*
X10872354Y-51219342D01*
X10872363Y-51219348D01*
X11062544Y-51293024D01*
X11263024Y-51330500D01*
X11263026Y-51330500D01*
X11466974Y-51330500D01*
X11466976Y-51330500D01*
X11667456Y-51293024D01*
X11857637Y-51219348D01*
X12031041Y-51111981D01*
X12181764Y-50974579D01*
X12189536Y-50964288D01*
X12248981Y-50885569D01*
X12304673Y-50811821D01*
X12395582Y-50629250D01*
X12451397Y-50433083D01*
X12470215Y-50230000D01*
X12799785Y-50230000D01*
X12818603Y-50433084D01*
X12874416Y-50629245D01*
X12874417Y-50629247D01*
X12874418Y-50629250D01*
X12965327Y-50811821D01*
X12965328Y-50811822D01*
X12965329Y-50811824D01*
X13088234Y-50974578D01*
X13238959Y-51111981D01*
X13238960Y-51111982D01*
X13412351Y-51219341D01*
X13412354Y-51219342D01*
X13412363Y-51219348D01*
X13602544Y-51293024D01*
X13803024Y-51330500D01*
X13803026Y-51330500D01*
X14006974Y-51330500D01*
X14006976Y-51330500D01*
X14207456Y-51293024D01*
X14397637Y-51219348D01*
X14571041Y-51111981D01*
X14721764Y-50974579D01*
X14729536Y-50964288D01*
X14788981Y-50885569D01*
X14844673Y-50811821D01*
X14935582Y-50629250D01*
X14991397Y-50433083D01*
X15010215Y-50230000D01*
X15339785Y-50230000D01*
X15358603Y-50433084D01*
X15414416Y-50629245D01*
X15414417Y-50629247D01*
X15414418Y-50629250D01*
X15505327Y-50811821D01*
X15505328Y-50811822D01*
X15505329Y-50811824D01*
X15628234Y-50974578D01*
X15778959Y-51111981D01*
X15778960Y-51111982D01*
X15952351Y-51219341D01*
X15952354Y-51219342D01*
X15952363Y-51219348D01*
X16142544Y-51293024D01*
X16343024Y-51330500D01*
X16343026Y-51330500D01*
X16546974Y-51330500D01*
X16546976Y-51330500D01*
X16747456Y-51293024D01*
X16937637Y-51219348D01*
X17111041Y-51111981D01*
X17261764Y-50974579D01*
X17269536Y-50964288D01*
X17328981Y-50885569D01*
X17384673Y-50811821D01*
X17475582Y-50629250D01*
X17531397Y-50433083D01*
X17550215Y-50230000D01*
X17879785Y-50230000D01*
X17898603Y-50433084D01*
X17954416Y-50629245D01*
X17954417Y-50629247D01*
X17954418Y-50629250D01*
X18045327Y-50811821D01*
X18045328Y-50811822D01*
X18045329Y-50811824D01*
X18168234Y-50974578D01*
X18318959Y-51111981D01*
X18318960Y-51111982D01*
X18492351Y-51219341D01*
X18492354Y-51219342D01*
X18492363Y-51219348D01*
X18682544Y-51293024D01*
X18883024Y-51330500D01*
X18883026Y-51330500D01*
X19086974Y-51330500D01*
X19086976Y-51330500D01*
X19287456Y-51293024D01*
X19477637Y-51219348D01*
X19651041Y-51111981D01*
X19801764Y-50974579D01*
X19809536Y-50964288D01*
X19868981Y-50885569D01*
X19924673Y-50811821D01*
X20015582Y-50629250D01*
X20071397Y-50433083D01*
X20090215Y-50230000D01*
X20090215Y-50229999D01*
X20419785Y-50229999D01*
X20438603Y-50433084D01*
X20494416Y-50629245D01*
X20494417Y-50629247D01*
X20494418Y-50629250D01*
X20585327Y-50811821D01*
X20585328Y-50811822D01*
X20585329Y-50811824D01*
X20708234Y-50974578D01*
X20858959Y-51111981D01*
X20858960Y-51111982D01*
X21032351Y-51219341D01*
X21032354Y-51219342D01*
X21032363Y-51219348D01*
X21222544Y-51293024D01*
X21423024Y-51330500D01*
X21423026Y-51330500D01*
X21626974Y-51330500D01*
X21626976Y-51330500D01*
X21827456Y-51293024D01*
X22017637Y-51219348D01*
X22191041Y-51111981D01*
X22341764Y-50974579D01*
X22349536Y-50964288D01*
X22408981Y-50885569D01*
X22464673Y-50811821D01*
X22555582Y-50629250D01*
X22611397Y-50433083D01*
X22616316Y-50380000D01*
X22974187Y-50380000D01*
X22979097Y-50432991D01*
X23034883Y-50629059D01*
X23034886Y-50629067D01*
X23125755Y-50811558D01*
X23248605Y-50974239D01*
X23399260Y-51111579D01*
X23572581Y-51218895D01*
X23572585Y-51218897D01*
X23762679Y-51292540D01*
X23915000Y-51321013D01*
X23915000Y-50602502D01*
X23939852Y-50615165D01*
X24033519Y-50630000D01*
X24096481Y-50630000D01*
X24190148Y-50615165D01*
X24214999Y-50602502D01*
X24215000Y-51321012D01*
X24367320Y-51292540D01*
X24557414Y-51218897D01*
X24557418Y-51218895D01*
X24730739Y-51111579D01*
X24881394Y-50974239D01*
X25004244Y-50811558D01*
X25095113Y-50629067D01*
X25095116Y-50629059D01*
X25150902Y-50432991D01*
X25155813Y-50380000D01*
X24437502Y-50380000D01*
X24450165Y-50355148D01*
X24469986Y-50230000D01*
X24469986Y-50229999D01*
X25499785Y-50229999D01*
X25518603Y-50433084D01*
X25574416Y-50629245D01*
X25574417Y-50629247D01*
X25574418Y-50629250D01*
X25665327Y-50811821D01*
X25665328Y-50811822D01*
X25665329Y-50811824D01*
X25788234Y-50974578D01*
X25938959Y-51111981D01*
X25938960Y-51111982D01*
X26112351Y-51219341D01*
X26112354Y-51219342D01*
X26112363Y-51219348D01*
X26302544Y-51293024D01*
X26503024Y-51330500D01*
X26503026Y-51330500D01*
X26706974Y-51330500D01*
X26706976Y-51330500D01*
X26907456Y-51293024D01*
X27097637Y-51219348D01*
X27271041Y-51111981D01*
X27421764Y-50974579D01*
X27429536Y-50964288D01*
X27488981Y-50885569D01*
X27544673Y-50811821D01*
X27635582Y-50629250D01*
X27691397Y-50433083D01*
X27710215Y-50230000D01*
X27691397Y-50026917D01*
X27635582Y-49830750D01*
X27544673Y-49648179D01*
X27544670Y-49648175D01*
X27421765Y-49485421D01*
X27271040Y-49348018D01*
X27271039Y-49348017D01*
X27097648Y-49240658D01*
X27097641Y-49240654D01*
X27097637Y-49240652D01*
X26981133Y-49195518D01*
X26907457Y-49166976D01*
X26787433Y-49144540D01*
X26706976Y-49129500D01*
X26503024Y-49129500D01*
X26422567Y-49144540D01*
X26302542Y-49166976D01*
X26174340Y-49216642D01*
X26112363Y-49240652D01*
X26112362Y-49240652D01*
X26112361Y-49240653D01*
X26112351Y-49240658D01*
X25938960Y-49348017D01*
X25938959Y-49348018D01*
X25788234Y-49485421D01*
X25665329Y-49648175D01*
X25574416Y-49830754D01*
X25518603Y-50026915D01*
X25499785Y-50229999D01*
X24469986Y-50229999D01*
X24450165Y-50104852D01*
X24437502Y-50080000D01*
X25155813Y-50080000D01*
X25150902Y-50027008D01*
X25095116Y-49830940D01*
X25095113Y-49830932D01*
X25004244Y-49648441D01*
X24881394Y-49485760D01*
X24730739Y-49348420D01*
X24557418Y-49241104D01*
X24557414Y-49241102D01*
X24367320Y-49167459D01*
X24215000Y-49138985D01*
X24215000Y-49857497D01*
X24190148Y-49844835D01*
X24096481Y-49830000D01*
X24033519Y-49830000D01*
X23939852Y-49844835D01*
X23915000Y-49857497D01*
X23915000Y-49138985D01*
X23762679Y-49167459D01*
X23572585Y-49241102D01*
X23572581Y-49241104D01*
X23399260Y-49348420D01*
X23248605Y-49485760D01*
X23125755Y-49648441D01*
X23034886Y-49830932D01*
X23034883Y-49830940D01*
X22979097Y-50027008D01*
X22974187Y-50080000D01*
X23692498Y-50080000D01*
X23679835Y-50104852D01*
X23660014Y-50230000D01*
X23679835Y-50355148D01*
X23692498Y-50380000D01*
X22974187Y-50380000D01*
X22616316Y-50380000D01*
X22630215Y-50230000D01*
X22611397Y-50026917D01*
X22555582Y-49830750D01*
X22464673Y-49648179D01*
X22464670Y-49648175D01*
X22341765Y-49485421D01*
X22191040Y-49348018D01*
X22191039Y-49348017D01*
X22017648Y-49240658D01*
X22017641Y-49240654D01*
X22017637Y-49240652D01*
X21901132Y-49195518D01*
X21827457Y-49166976D01*
X21707433Y-49144540D01*
X21626976Y-49129500D01*
X21423024Y-49129500D01*
X21342567Y-49144540D01*
X21222542Y-49166976D01*
X21094340Y-49216642D01*
X21032363Y-49240652D01*
X21032362Y-49240652D01*
X21032361Y-49240653D01*
X21032351Y-49240658D01*
X20858960Y-49348017D01*
X20858959Y-49348018D01*
X20708234Y-49485421D01*
X20585329Y-49648175D01*
X20494416Y-49830754D01*
X20438603Y-50026915D01*
X20419785Y-50229999D01*
X20090215Y-50229999D01*
X20071397Y-50026917D01*
X20015582Y-49830750D01*
X19924673Y-49648179D01*
X19924670Y-49648175D01*
X19801765Y-49485421D01*
X19651040Y-49348018D01*
X19651039Y-49348017D01*
X19477648Y-49240658D01*
X19477641Y-49240654D01*
X19477637Y-49240652D01*
X19361133Y-49195518D01*
X19287457Y-49166976D01*
X19167433Y-49144540D01*
X19086976Y-49129500D01*
X18883024Y-49129500D01*
X18802567Y-49144540D01*
X18682542Y-49166976D01*
X18554340Y-49216642D01*
X18492363Y-49240652D01*
X18492362Y-49240652D01*
X18492361Y-49240653D01*
X18492351Y-49240658D01*
X18318960Y-49348017D01*
X18318959Y-49348018D01*
X18168234Y-49485421D01*
X18045329Y-49648175D01*
X17954416Y-49830754D01*
X17898603Y-50026915D01*
X17879785Y-50230000D01*
X17550215Y-50230000D01*
X17531397Y-50026917D01*
X17475582Y-49830750D01*
X17384673Y-49648179D01*
X17384670Y-49648175D01*
X17261765Y-49485421D01*
X17111040Y-49348018D01*
X17111039Y-49348017D01*
X16937648Y-49240658D01*
X16937641Y-49240654D01*
X16937637Y-49240652D01*
X16821133Y-49195518D01*
X16747457Y-49166976D01*
X16627433Y-49144540D01*
X16546976Y-49129500D01*
X16343024Y-49129500D01*
X16262567Y-49144540D01*
X16142542Y-49166976D01*
X16014340Y-49216642D01*
X15952363Y-49240652D01*
X15952362Y-49240652D01*
X15952361Y-49240653D01*
X15952351Y-49240658D01*
X15778960Y-49348017D01*
X15778959Y-49348018D01*
X15628234Y-49485421D01*
X15505329Y-49648175D01*
X15414416Y-49830754D01*
X15358603Y-50026915D01*
X15339785Y-50230000D01*
X15010215Y-50230000D01*
X14991397Y-50026917D01*
X14935582Y-49830750D01*
X14844673Y-49648179D01*
X14844670Y-49648175D01*
X14721765Y-49485421D01*
X14571040Y-49348018D01*
X14571039Y-49348017D01*
X14397648Y-49240658D01*
X14397641Y-49240654D01*
X14397637Y-49240652D01*
X14281133Y-49195518D01*
X14207457Y-49166976D01*
X14087433Y-49144540D01*
X14006976Y-49129500D01*
X13803024Y-49129500D01*
X13722567Y-49144540D01*
X13602542Y-49166976D01*
X13474340Y-49216642D01*
X13412363Y-49240652D01*
X13412362Y-49240652D01*
X13412361Y-49240653D01*
X13412351Y-49240658D01*
X13238960Y-49348017D01*
X13238959Y-49348018D01*
X13088234Y-49485421D01*
X12965329Y-49648175D01*
X12874416Y-49830754D01*
X12818603Y-50026915D01*
X12799785Y-50230000D01*
X12470215Y-50230000D01*
X12451397Y-50026917D01*
X12395582Y-49830750D01*
X12304673Y-49648179D01*
X12304670Y-49648175D01*
X12181765Y-49485421D01*
X12031040Y-49348018D01*
X12031039Y-49348017D01*
X11857648Y-49240658D01*
X11857641Y-49240654D01*
X11857637Y-49240652D01*
X11741132Y-49195518D01*
X11667457Y-49166976D01*
X11547433Y-49144540D01*
X11466976Y-49129500D01*
X11263024Y-49129500D01*
X11182567Y-49144540D01*
X11062542Y-49166976D01*
X10934340Y-49216642D01*
X10872363Y-49240652D01*
X10872362Y-49240652D01*
X10872361Y-49240653D01*
X10872351Y-49240658D01*
X10698960Y-49348017D01*
X10698959Y-49348018D01*
X10548234Y-49485421D01*
X10425329Y-49648175D01*
X10334416Y-49830754D01*
X10278603Y-50026915D01*
X10259785Y-50230000D01*
X9930215Y-50230000D01*
X9911397Y-50026917D01*
X9855582Y-49830750D01*
X9764673Y-49648179D01*
X9764670Y-49648175D01*
X9641765Y-49485421D01*
X9491040Y-49348018D01*
X9491039Y-49348017D01*
X9317648Y-49240658D01*
X9317641Y-49240654D01*
X9317637Y-49240652D01*
X9201132Y-49195518D01*
X9127457Y-49166976D01*
X9007433Y-49144540D01*
X8926976Y-49129500D01*
X8723024Y-49129500D01*
X8642567Y-49144540D01*
X8522542Y-49166976D01*
X8394340Y-49216642D01*
X8332363Y-49240652D01*
X8332362Y-49240652D01*
X8332361Y-49240653D01*
X8332351Y-49240658D01*
X8158960Y-49348017D01*
X8158959Y-49348018D01*
X8008234Y-49485421D01*
X7885329Y-49648175D01*
X7794416Y-49830754D01*
X7738603Y-50026915D01*
X7719785Y-50230000D01*
X75500Y-50230000D01*
X75500Y-47840000D01*
X26182500Y-47840000D01*
X26182500Y-48208062D01*
X26193113Y-48296441D01*
X26193114Y-48296447D01*
X26248580Y-48437097D01*
X26339934Y-48557565D01*
X26460402Y-48648919D01*
X26601052Y-48704385D01*
X26601058Y-48704386D01*
X26689437Y-48714999D01*
X26689443Y-48715000D01*
X26920000Y-48715000D01*
X26920000Y-47840000D01*
X27220000Y-47840000D01*
X27220000Y-48715000D01*
X27450557Y-48715000D01*
X27450562Y-48714999D01*
X27538941Y-48704386D01*
X27538947Y-48704385D01*
X27679597Y-48648919D01*
X27800065Y-48557565D01*
X27891419Y-48437097D01*
X27946885Y-48296447D01*
X27946886Y-48296441D01*
X27957499Y-48208062D01*
X27957500Y-48208057D01*
X27957500Y-47840000D01*
X27220000Y-47840000D01*
X26920000Y-47840000D01*
X26182500Y-47840000D01*
X75500Y-47840000D01*
X75500Y-47540000D01*
X26182500Y-47540000D01*
X26920000Y-47540000D01*
X26920000Y-46665000D01*
X27220000Y-46665000D01*
X27220000Y-47540000D01*
X27957500Y-47540000D01*
X27957500Y-47171942D01*
X27957499Y-47171937D01*
X27946886Y-47083558D01*
X27946885Y-47083552D01*
X27891419Y-46942902D01*
X27800065Y-46822434D01*
X27679597Y-46731080D01*
X27538947Y-46675614D01*
X27538941Y-46675613D01*
X27450562Y-46665000D01*
X27220000Y-46665000D01*
X26920000Y-46665000D01*
X26689437Y-46665000D01*
X26601058Y-46675613D01*
X26601052Y-46675614D01*
X26460402Y-46731080D01*
X26339934Y-46822434D01*
X26248580Y-46942902D01*
X26193114Y-47083552D01*
X26193113Y-47083558D01*
X26182500Y-47171937D01*
X26182500Y-47540000D01*
X75500Y-47540000D01*
X75500Y-30255000D01*
X36105001Y-30255000D01*
X36105001Y-33349794D01*
X36107909Y-33374873D01*
X36107911Y-33374878D01*
X36153212Y-33477477D01*
X36232520Y-33556785D01*
X36232522Y-33556786D01*
X36335126Y-33602090D01*
X36335125Y-33602090D01*
X36360203Y-33604999D01*
X39155000Y-33604999D01*
X39155000Y-30255000D01*
X39455000Y-30255000D01*
X39455000Y-33604999D01*
X42249789Y-33604999D01*
X42249794Y-33604998D01*
X42274873Y-33602090D01*
X42274878Y-33602088D01*
X42377477Y-33556787D01*
X42456785Y-33477479D01*
X42456786Y-33477477D01*
X42502090Y-33374873D01*
X42504999Y-33349798D01*
X42505000Y-33349795D01*
X42505000Y-30255000D01*
X39455000Y-30255000D01*
X39155000Y-30255000D01*
X36105001Y-30255000D01*
X75500Y-30255000D01*
X75500Y-28560000D01*
X30179859Y-28560000D01*
X30200388Y-28807743D01*
X30261411Y-29048716D01*
X30361266Y-29276364D01*
X30361270Y-29276370D01*
X30497229Y-29484473D01*
X30521753Y-29511113D01*
X31164972Y-28867894D01*
X31257075Y-28987925D01*
X31377104Y-29080026D01*
X30735417Y-29721712D01*
X30735417Y-29721713D01*
X30861765Y-29820053D01*
X30861766Y-29820054D01*
X31080392Y-29938367D01*
X31080394Y-29938369D01*
X31315505Y-30019082D01*
X31315512Y-30019084D01*
X31560710Y-30060000D01*
X31809290Y-30060000D01*
X32054487Y-30019084D01*
X32054494Y-30019082D01*
X32241160Y-29955000D01*
X36105000Y-29955000D01*
X39155000Y-29955000D01*
X39155000Y-26605000D01*
X39455000Y-26605000D01*
X39455000Y-29955000D01*
X42504999Y-29955000D01*
X42504999Y-26860211D01*
X42504998Y-26860205D01*
X42502090Y-26835126D01*
X42502088Y-26835121D01*
X42456787Y-26732522D01*
X42377479Y-26653214D01*
X42377477Y-26653213D01*
X42274873Y-26607909D01*
X42274874Y-26607909D01*
X42249798Y-26605000D01*
X39455000Y-26605000D01*
X39155000Y-26605000D01*
X36360211Y-26605000D01*
X36360205Y-26605001D01*
X36335126Y-26607909D01*
X36335121Y-26607911D01*
X36232522Y-26653212D01*
X36153214Y-26732520D01*
X36153213Y-26732522D01*
X36107909Y-26835126D01*
X36105000Y-26860201D01*
X36105000Y-29955000D01*
X32241160Y-29955000D01*
X32289605Y-29938369D01*
X32289607Y-29938367D01*
X32508231Y-29820054D01*
X32508241Y-29820048D01*
X32634580Y-29721713D01*
X32634581Y-29721712D01*
X31992895Y-29080026D01*
X32112925Y-28987925D01*
X32205027Y-28867895D01*
X32848245Y-29511114D01*
X32848246Y-29511113D01*
X32872764Y-29484481D01*
X32872769Y-29484475D01*
X33008729Y-29276370D01*
X33008733Y-29276364D01*
X33108588Y-29048716D01*
X33169611Y-28807743D01*
X33190140Y-28560000D01*
X33169611Y-28312256D01*
X33108588Y-28071283D01*
X33008733Y-27843635D01*
X33008729Y-27843629D01*
X32872770Y-27635526D01*
X32848245Y-27608884D01*
X32205025Y-28252103D01*
X32112925Y-28132075D01*
X31992894Y-28039972D01*
X32634580Y-27398287D01*
X32634580Y-27398286D01*
X32508234Y-27299946D01*
X32508233Y-27299945D01*
X32289607Y-27181632D01*
X32289605Y-27181630D01*
X32054494Y-27100917D01*
X32054487Y-27100915D01*
X31809290Y-27060000D01*
X31560710Y-27060000D01*
X31315512Y-27100915D01*
X31315505Y-27100917D01*
X31080394Y-27181630D01*
X31080392Y-27181631D01*
X30861763Y-27299948D01*
X30735418Y-27398286D01*
X30735418Y-27398287D01*
X31377104Y-28039973D01*
X31257075Y-28132075D01*
X31164973Y-28252104D01*
X30521753Y-27608884D01*
X30521753Y-27608885D01*
X30497232Y-27635523D01*
X30497227Y-27635528D01*
X30361270Y-27843629D01*
X30361266Y-27843635D01*
X30261411Y-28071283D01*
X30200388Y-28312256D01*
X30179859Y-28560000D01*
X75500Y-28560000D01*
X75500Y-20305000D01*
X7270207Y-20305000D01*
X7289349Y-20548222D01*
X7346303Y-20785455D01*
X7439668Y-21010859D01*
X7567148Y-21218886D01*
X7627875Y-21289990D01*
X7627876Y-21289991D01*
X8271680Y-20646186D01*
X8320186Y-20722619D01*
X8439903Y-20835040D01*
X8483256Y-20858873D01*
X7840007Y-21502122D01*
X7840008Y-21502123D01*
X7911113Y-21562851D01*
X8119140Y-21690331D01*
X8344544Y-21783696D01*
X8581777Y-21840650D01*
X8824999Y-21859792D01*
X9068222Y-21840650D01*
X9305455Y-21783696D01*
X9530859Y-21690331D01*
X9738885Y-21562852D01*
X9738887Y-21562851D01*
X9809990Y-21502123D01*
X9809991Y-21502122D01*
X9167483Y-20859614D01*
X9273492Y-20782595D01*
X9378175Y-20656055D01*
X9381378Y-20649247D01*
X10022122Y-21289991D01*
X10022123Y-21289990D01*
X10082851Y-21218887D01*
X10082852Y-21218885D01*
X10210331Y-21010859D01*
X10303696Y-20785455D01*
X10360650Y-20548222D01*
X10379792Y-20304999D01*
X10360650Y-20061777D01*
X10303696Y-19824544D01*
X10210331Y-19599140D01*
X10082851Y-19391113D01*
X10022123Y-19320008D01*
X10022122Y-19320007D01*
X9378318Y-19963811D01*
X9329814Y-19887381D01*
X9210097Y-19774960D01*
X9166742Y-19751125D01*
X9809991Y-19107876D01*
X9809990Y-19107875D01*
X9738886Y-19047148D01*
X9530859Y-18919668D01*
X9305455Y-18826303D01*
X9068222Y-18769349D01*
X8825000Y-18750207D01*
X8581777Y-18769349D01*
X8344544Y-18826303D01*
X8119140Y-18919668D01*
X7911113Y-19047148D01*
X7840007Y-19107875D01*
X7840007Y-19107876D01*
X8482516Y-19750385D01*
X8376508Y-19827405D01*
X8271825Y-19953945D01*
X8268621Y-19960752D01*
X7627876Y-19320007D01*
X7627875Y-19320007D01*
X7567148Y-19391113D01*
X7439668Y-19599140D01*
X7346303Y-19824544D01*
X7289349Y-20061777D01*
X7270207Y-20305000D01*
X75500Y-20305000D01*
X75500Y-16599859D01*
X7274500Y-16599859D01*
X7274501Y-16599866D01*
X7277414Y-16624990D01*
X7277416Y-16624994D01*
X7322793Y-16727765D01*
X7402232Y-16807204D01*
X7402234Y-16807205D01*
X7402235Y-16807206D01*
X7505009Y-16852585D01*
X7530135Y-16855500D01*
X10119864Y-16855499D01*
X10144991Y-16852585D01*
X10247765Y-16807206D01*
X10327206Y-16727765D01*
X10372585Y-16624991D01*
X10375500Y-16599865D01*
X10375500Y-16481500D01*
X10395502Y-16413379D01*
X10449158Y-16366886D01*
X10501500Y-16355500D01*
X15158501Y-16355500D01*
X15226622Y-16375502D01*
X15273115Y-16429158D01*
X15284501Y-16481500D01*
X15284501Y-16499866D01*
X15287414Y-16524990D01*
X15287416Y-16524994D01*
X15332793Y-16627765D01*
X15412232Y-16707204D01*
X15412234Y-16707205D01*
X15412235Y-16707206D01*
X15515009Y-16752585D01*
X15540135Y-16755500D01*
X18129864Y-16755499D01*
X18154991Y-16752585D01*
X18257765Y-16707206D01*
X18337206Y-16627765D01*
X18382585Y-16524991D01*
X18385500Y-16499865D01*
X18385499Y-14110136D01*
X18382585Y-14085009D01*
X18349527Y-14010140D01*
X18337206Y-13982234D01*
X18257767Y-13902795D01*
X18257765Y-13902794D01*
X18154989Y-13857414D01*
X18154990Y-13857414D01*
X18129868Y-13854500D01*
X15540140Y-13854500D01*
X15540133Y-13854501D01*
X15515009Y-13857414D01*
X15515005Y-13857416D01*
X15412234Y-13902793D01*
X15332795Y-13982232D01*
X15332794Y-13982234D01*
X15287414Y-14085009D01*
X15284500Y-14110129D01*
X15284500Y-14128500D01*
X15264498Y-14196621D01*
X15210842Y-14243114D01*
X15158500Y-14254500D01*
X10501499Y-14254500D01*
X10433378Y-14234498D01*
X10386885Y-14180842D01*
X10375499Y-14128500D01*
X10375499Y-14010140D01*
X10375499Y-14010136D01*
X10372585Y-13985009D01*
X10341730Y-13915129D01*
X10327206Y-13882234D01*
X10247767Y-13802795D01*
X10247765Y-13802794D01*
X10144989Y-13757414D01*
X10144990Y-13757414D01*
X10119868Y-13754500D01*
X7530140Y-13754500D01*
X7530133Y-13754501D01*
X7505009Y-13757414D01*
X7505005Y-13757416D01*
X7402234Y-13802793D01*
X7322795Y-13882232D01*
X7322794Y-13882234D01*
X7277414Y-13985009D01*
X7274500Y-14010129D01*
X7274500Y-16599859D01*
X75500Y-16599859D01*
X75500Y-5000000D01*
X18319802Y-5000000D01*
X18338568Y-5250424D01*
X18388936Y-5471096D01*
X18394448Y-5495247D01*
X18423133Y-5568336D01*
X18486190Y-5729004D01*
X18486192Y-5729008D01*
X18611752Y-5946485D01*
X18611754Y-5946488D01*
X18611755Y-5946489D01*
X18768328Y-6142825D01*
X18952414Y-6313632D01*
X18952420Y-6313636D01*
X19159898Y-6455092D01*
X19159906Y-6455097D01*
X19386146Y-6564048D01*
X19386147Y-6564048D01*
X19386155Y-6564052D01*
X19598488Y-6629548D01*
X19626114Y-6638070D01*
X19626121Y-6638072D01*
X19874439Y-6675500D01*
X19874444Y-6675500D01*
X20125556Y-6675500D01*
X20125561Y-6675500D01*
X20373879Y-6638072D01*
X20613845Y-6564052D01*
X20840099Y-6455094D01*
X21047586Y-6313632D01*
X21231672Y-6142825D01*
X21388245Y-5946489D01*
X21513806Y-5729011D01*
X21605552Y-5495247D01*
X21661432Y-5250421D01*
X21680198Y-5000000D01*
X58319802Y-5000000D01*
X58338568Y-5250424D01*
X58388936Y-5471096D01*
X58394448Y-5495247D01*
X58423133Y-5568336D01*
X58486190Y-5729004D01*
X58486192Y-5729008D01*
X58611752Y-5946485D01*
X58611754Y-5946488D01*
X58611755Y-5946489D01*
X58768328Y-6142825D01*
X58952414Y-6313632D01*
X58952420Y-6313636D01*
X59159898Y-6455092D01*
X59159906Y-6455097D01*
X59386146Y-6564048D01*
X59386147Y-6564048D01*
X59386155Y-6564052D01*
X59598488Y-6629548D01*
X59626114Y-6638070D01*
X59626121Y-6638072D01*
X59874439Y-6675500D01*
X59874444Y-6675500D01*
X60125556Y-6675500D01*
X60125561Y-6675500D01*
X60373879Y-6638072D01*
X60613845Y-6564052D01*
X60840099Y-6455094D01*
X61047586Y-6313632D01*
X61231672Y-6142825D01*
X61388245Y-5946489D01*
X61513806Y-5729011D01*
X61605552Y-5495247D01*
X61661432Y-5250421D01*
X61680198Y-5000000D01*
X61661432Y-4749579D01*
X61605552Y-4504753D01*
X61528289Y-4307891D01*
X61513809Y-4270995D01*
X61513807Y-4270991D01*
X61388247Y-4053514D01*
X61388245Y-4053511D01*
X61231672Y-3857175D01*
X61047586Y-3686368D01*
X60847738Y-3550114D01*
X60840101Y-3544907D01*
X60840093Y-3544902D01*
X60613853Y-3435951D01*
X60613848Y-3435949D01*
X60613845Y-3435948D01*
X60521494Y-3407461D01*
X60373885Y-3361929D01*
X60373880Y-3361928D01*
X60373879Y-3361928D01*
X60125561Y-3324500D01*
X59874439Y-3324500D01*
X59626121Y-3361928D01*
X59626120Y-3361928D01*
X59626114Y-3361929D01*
X59424985Y-3423970D01*
X59386155Y-3435948D01*
X59386153Y-3435948D01*
X59386146Y-3435951D01*
X59159906Y-3544902D01*
X59159898Y-3544907D01*
X58952420Y-3686363D01*
X58952415Y-3686367D01*
X58768329Y-3857174D01*
X58611752Y-4053514D01*
X58486192Y-4270991D01*
X58486190Y-4270995D01*
X58394447Y-4504756D01*
X58338568Y-4749575D01*
X58319802Y-5000000D01*
X21680198Y-5000000D01*
X21661432Y-4749579D01*
X21605552Y-4504753D01*
X21528289Y-4307891D01*
X21513809Y-4270995D01*
X21513807Y-4270991D01*
X21388247Y-4053514D01*
X21388245Y-4053511D01*
X21231672Y-3857175D01*
X21047586Y-3686368D01*
X20847738Y-3550114D01*
X20840101Y-3544907D01*
X20840093Y-3544902D01*
X20613853Y-3435951D01*
X20613848Y-3435949D01*
X20613845Y-3435948D01*
X20521494Y-3407461D01*
X20373885Y-3361929D01*
X20373880Y-3361928D01*
X20373879Y-3361928D01*
X20125561Y-3324500D01*
X19874439Y-3324500D01*
X19626121Y-3361928D01*
X19626120Y-3361928D01*
X19626114Y-3361929D01*
X19424985Y-3423970D01*
X19386155Y-3435948D01*
X19386153Y-3435948D01*
X19386146Y-3435951D01*
X19159906Y-3544902D01*
X19159898Y-3544907D01*
X18952420Y-3686363D01*
X18952415Y-3686367D01*
X18768329Y-3857174D01*
X18611752Y-4053514D01*
X18486192Y-4270991D01*
X18486190Y-4270995D01*
X18394447Y-4504756D01*
X18338568Y-4749575D01*
X18319802Y-5000000D01*
X75500Y-5000000D01*
X75500Y-201500D01*
X95502Y-133379D01*
X149158Y-86886D01*
X201500Y-75500D01*
X79798500Y-75500D01*
X79866621Y-95502D01*
G37*
%TD.AperFunction*%
%TD*%
M02*
