%TF.GenerationSoftware,KiCad,Pcbnew,7.0.5*%
%TF.CreationDate,2024-03-07T15:26:59+01:00*%
%TF.ProjectId,g4_doorbell_module,67345f64-6f6f-4726-9265-6c6c5f6d6f64,rev?*%
%TF.SameCoordinates,Original*%
%TF.FileFunction,Legend,Bot*%
%TF.FilePolarity,Positive*%
%FSLAX46Y46*%
G04 Gerber Fmt 4.6, Leading zero omitted, Abs format (unit mm)*
G04 Created by KiCad (PCBNEW 7.0.5) date 2024-03-07 15:26:59*
%MOMM*%
%LPD*%
G01*
G04 APERTURE LIST*
%ADD10C,0.150000*%
%ADD11C,0.120000*%
G04 APERTURE END LIST*
D10*
%TO.C,C1*%
X28274166Y-46369580D02*
X28321785Y-46417200D01*
X28321785Y-46417200D02*
X28464642Y-46464819D01*
X28464642Y-46464819D02*
X28559880Y-46464819D01*
X28559880Y-46464819D02*
X28702737Y-46417200D01*
X28702737Y-46417200D02*
X28797975Y-46321961D01*
X28797975Y-46321961D02*
X28845594Y-46226723D01*
X28845594Y-46226723D02*
X28893213Y-46036247D01*
X28893213Y-46036247D02*
X28893213Y-45893390D01*
X28893213Y-45893390D02*
X28845594Y-45702914D01*
X28845594Y-45702914D02*
X28797975Y-45607676D01*
X28797975Y-45607676D02*
X28702737Y-45512438D01*
X28702737Y-45512438D02*
X28559880Y-45464819D01*
X28559880Y-45464819D02*
X28464642Y-45464819D01*
X28464642Y-45464819D02*
X28321785Y-45512438D01*
X28321785Y-45512438D02*
X28274166Y-45560057D01*
X27321785Y-46464819D02*
X27893213Y-46464819D01*
X27607499Y-46464819D02*
X27607499Y-45464819D01*
X27607499Y-45464819D02*
X27702737Y-45607676D01*
X27702737Y-45607676D02*
X27797975Y-45702914D01*
X27797975Y-45702914D02*
X27893213Y-45750533D01*
%TO.C,C3*%
X52429580Y-27519333D02*
X52477200Y-27471714D01*
X52477200Y-27471714D02*
X52524819Y-27328857D01*
X52524819Y-27328857D02*
X52524819Y-27233619D01*
X52524819Y-27233619D02*
X52477200Y-27090762D01*
X52477200Y-27090762D02*
X52381961Y-26995524D01*
X52381961Y-26995524D02*
X52286723Y-26947905D01*
X52286723Y-26947905D02*
X52096247Y-26900286D01*
X52096247Y-26900286D02*
X51953390Y-26900286D01*
X51953390Y-26900286D02*
X51762914Y-26947905D01*
X51762914Y-26947905D02*
X51667676Y-26995524D01*
X51667676Y-26995524D02*
X51572438Y-27090762D01*
X51572438Y-27090762D02*
X51524819Y-27233619D01*
X51524819Y-27233619D02*
X51524819Y-27328857D01*
X51524819Y-27328857D02*
X51572438Y-27471714D01*
X51572438Y-27471714D02*
X51620057Y-27519333D01*
X51524819Y-27852667D02*
X51524819Y-28471714D01*
X51524819Y-28471714D02*
X51905771Y-28138381D01*
X51905771Y-28138381D02*
X51905771Y-28281238D01*
X51905771Y-28281238D02*
X51953390Y-28376476D01*
X51953390Y-28376476D02*
X52001009Y-28424095D01*
X52001009Y-28424095D02*
X52096247Y-28471714D01*
X52096247Y-28471714D02*
X52334342Y-28471714D01*
X52334342Y-28471714D02*
X52429580Y-28424095D01*
X52429580Y-28424095D02*
X52477200Y-28376476D01*
X52477200Y-28376476D02*
X52524819Y-28281238D01*
X52524819Y-28281238D02*
X52524819Y-27995524D01*
X52524819Y-27995524D02*
X52477200Y-27900286D01*
X52477200Y-27900286D02*
X52429580Y-27852667D01*
%TO.C,R1*%
X45729819Y-24663333D02*
X45253628Y-24330000D01*
X45729819Y-24091905D02*
X44729819Y-24091905D01*
X44729819Y-24091905D02*
X44729819Y-24472857D01*
X44729819Y-24472857D02*
X44777438Y-24568095D01*
X44777438Y-24568095D02*
X44825057Y-24615714D01*
X44825057Y-24615714D02*
X44920295Y-24663333D01*
X44920295Y-24663333D02*
X45063152Y-24663333D01*
X45063152Y-24663333D02*
X45158390Y-24615714D01*
X45158390Y-24615714D02*
X45206009Y-24568095D01*
X45206009Y-24568095D02*
X45253628Y-24472857D01*
X45253628Y-24472857D02*
X45253628Y-24091905D01*
X45729819Y-25615714D02*
X45729819Y-25044286D01*
X45729819Y-25330000D02*
X44729819Y-25330000D01*
X44729819Y-25330000D02*
X44872676Y-25234762D01*
X44872676Y-25234762D02*
X44967914Y-25139524D01*
X44967914Y-25139524D02*
X45015533Y-25044286D01*
%TO.C,R2*%
X45094819Y-51333333D02*
X44618628Y-51000000D01*
X45094819Y-50761905D02*
X44094819Y-50761905D01*
X44094819Y-50761905D02*
X44094819Y-51142857D01*
X44094819Y-51142857D02*
X44142438Y-51238095D01*
X44142438Y-51238095D02*
X44190057Y-51285714D01*
X44190057Y-51285714D02*
X44285295Y-51333333D01*
X44285295Y-51333333D02*
X44428152Y-51333333D01*
X44428152Y-51333333D02*
X44523390Y-51285714D01*
X44523390Y-51285714D02*
X44571009Y-51238095D01*
X44571009Y-51238095D02*
X44618628Y-51142857D01*
X44618628Y-51142857D02*
X44618628Y-50761905D01*
X44190057Y-51714286D02*
X44142438Y-51761905D01*
X44142438Y-51761905D02*
X44094819Y-51857143D01*
X44094819Y-51857143D02*
X44094819Y-52095238D01*
X44094819Y-52095238D02*
X44142438Y-52190476D01*
X44142438Y-52190476D02*
X44190057Y-52238095D01*
X44190057Y-52238095D02*
X44285295Y-52285714D01*
X44285295Y-52285714D02*
X44380533Y-52285714D01*
X44380533Y-52285714D02*
X44523390Y-52238095D01*
X44523390Y-52238095D02*
X45094819Y-51666667D01*
X45094819Y-51666667D02*
X45094819Y-52285714D01*
%TO.C,R3*%
X48269819Y-20578334D02*
X47793628Y-20245001D01*
X48269819Y-20006906D02*
X47269819Y-20006906D01*
X47269819Y-20006906D02*
X47269819Y-20387858D01*
X47269819Y-20387858D02*
X47317438Y-20483096D01*
X47317438Y-20483096D02*
X47365057Y-20530715D01*
X47365057Y-20530715D02*
X47460295Y-20578334D01*
X47460295Y-20578334D02*
X47603152Y-20578334D01*
X47603152Y-20578334D02*
X47698390Y-20530715D01*
X47698390Y-20530715D02*
X47746009Y-20483096D01*
X47746009Y-20483096D02*
X47793628Y-20387858D01*
X47793628Y-20387858D02*
X47793628Y-20006906D01*
X47269819Y-20911668D02*
X47269819Y-21530715D01*
X47269819Y-21530715D02*
X47650771Y-21197382D01*
X47650771Y-21197382D02*
X47650771Y-21340239D01*
X47650771Y-21340239D02*
X47698390Y-21435477D01*
X47698390Y-21435477D02*
X47746009Y-21483096D01*
X47746009Y-21483096D02*
X47841247Y-21530715D01*
X47841247Y-21530715D02*
X48079342Y-21530715D01*
X48079342Y-21530715D02*
X48174580Y-21483096D01*
X48174580Y-21483096D02*
X48222200Y-21435477D01*
X48222200Y-21435477D02*
X48269819Y-21340239D01*
X48269819Y-21340239D02*
X48269819Y-21054525D01*
X48269819Y-21054525D02*
X48222200Y-20959287D01*
X48222200Y-20959287D02*
X48174580Y-20911668D01*
%TO.C,R4*%
X49984819Y-27519333D02*
X49508628Y-27186000D01*
X49984819Y-26947905D02*
X48984819Y-26947905D01*
X48984819Y-26947905D02*
X48984819Y-27328857D01*
X48984819Y-27328857D02*
X49032438Y-27424095D01*
X49032438Y-27424095D02*
X49080057Y-27471714D01*
X49080057Y-27471714D02*
X49175295Y-27519333D01*
X49175295Y-27519333D02*
X49318152Y-27519333D01*
X49318152Y-27519333D02*
X49413390Y-27471714D01*
X49413390Y-27471714D02*
X49461009Y-27424095D01*
X49461009Y-27424095D02*
X49508628Y-27328857D01*
X49508628Y-27328857D02*
X49508628Y-26947905D01*
X49318152Y-28376476D02*
X49984819Y-28376476D01*
X48937200Y-28138381D02*
X49651485Y-27900286D01*
X49651485Y-27900286D02*
X49651485Y-28519333D01*
%TO.C,R5*%
X19694819Y-19583333D02*
X19218628Y-19250000D01*
X19694819Y-19011905D02*
X18694819Y-19011905D01*
X18694819Y-19011905D02*
X18694819Y-19392857D01*
X18694819Y-19392857D02*
X18742438Y-19488095D01*
X18742438Y-19488095D02*
X18790057Y-19535714D01*
X18790057Y-19535714D02*
X18885295Y-19583333D01*
X18885295Y-19583333D02*
X19028152Y-19583333D01*
X19028152Y-19583333D02*
X19123390Y-19535714D01*
X19123390Y-19535714D02*
X19171009Y-19488095D01*
X19171009Y-19488095D02*
X19218628Y-19392857D01*
X19218628Y-19392857D02*
X19218628Y-19011905D01*
X18694819Y-20488095D02*
X18694819Y-20011905D01*
X18694819Y-20011905D02*
X19171009Y-19964286D01*
X19171009Y-19964286D02*
X19123390Y-20011905D01*
X19123390Y-20011905D02*
X19075771Y-20107143D01*
X19075771Y-20107143D02*
X19075771Y-20345238D01*
X19075771Y-20345238D02*
X19123390Y-20440476D01*
X19123390Y-20440476D02*
X19171009Y-20488095D01*
X19171009Y-20488095D02*
X19266247Y-20535714D01*
X19266247Y-20535714D02*
X19504342Y-20535714D01*
X19504342Y-20535714D02*
X19599580Y-20488095D01*
X19599580Y-20488095D02*
X19647200Y-20440476D01*
X19647200Y-20440476D02*
X19694819Y-20345238D01*
X19694819Y-20345238D02*
X19694819Y-20107143D01*
X19694819Y-20107143D02*
X19647200Y-20011905D01*
X19647200Y-20011905D02*
X19599580Y-19964286D01*
%TO.C,R6*%
X62966666Y-29474819D02*
X63299999Y-28998628D01*
X63538094Y-29474819D02*
X63538094Y-28474819D01*
X63538094Y-28474819D02*
X63157142Y-28474819D01*
X63157142Y-28474819D02*
X63061904Y-28522438D01*
X63061904Y-28522438D02*
X63014285Y-28570057D01*
X63014285Y-28570057D02*
X62966666Y-28665295D01*
X62966666Y-28665295D02*
X62966666Y-28808152D01*
X62966666Y-28808152D02*
X63014285Y-28903390D01*
X63014285Y-28903390D02*
X63061904Y-28951009D01*
X63061904Y-28951009D02*
X63157142Y-28998628D01*
X63157142Y-28998628D02*
X63538094Y-28998628D01*
X62109523Y-28474819D02*
X62299999Y-28474819D01*
X62299999Y-28474819D02*
X62395237Y-28522438D01*
X62395237Y-28522438D02*
X62442856Y-28570057D01*
X62442856Y-28570057D02*
X62538094Y-28712914D01*
X62538094Y-28712914D02*
X62585713Y-28903390D01*
X62585713Y-28903390D02*
X62585713Y-29284342D01*
X62585713Y-29284342D02*
X62538094Y-29379580D01*
X62538094Y-29379580D02*
X62490475Y-29427200D01*
X62490475Y-29427200D02*
X62395237Y-29474819D01*
X62395237Y-29474819D02*
X62204761Y-29474819D01*
X62204761Y-29474819D02*
X62109523Y-29427200D01*
X62109523Y-29427200D02*
X62061904Y-29379580D01*
X62061904Y-29379580D02*
X62014285Y-29284342D01*
X62014285Y-29284342D02*
X62014285Y-29046247D01*
X62014285Y-29046247D02*
X62061904Y-28951009D01*
X62061904Y-28951009D02*
X62109523Y-28903390D01*
X62109523Y-28903390D02*
X62204761Y-28855771D01*
X62204761Y-28855771D02*
X62395237Y-28855771D01*
X62395237Y-28855771D02*
X62490475Y-28903390D01*
X62490475Y-28903390D02*
X62538094Y-28951009D01*
X62538094Y-28951009D02*
X62585713Y-29046247D01*
%TO.C,U2*%
X34259819Y-27243095D02*
X35069342Y-27243095D01*
X35069342Y-27243095D02*
X35164580Y-27290714D01*
X35164580Y-27290714D02*
X35212200Y-27338333D01*
X35212200Y-27338333D02*
X35259819Y-27433571D01*
X35259819Y-27433571D02*
X35259819Y-27624047D01*
X35259819Y-27624047D02*
X35212200Y-27719285D01*
X35212200Y-27719285D02*
X35164580Y-27766904D01*
X35164580Y-27766904D02*
X35069342Y-27814523D01*
X35069342Y-27814523D02*
X34259819Y-27814523D01*
X34355057Y-28243095D02*
X34307438Y-28290714D01*
X34307438Y-28290714D02*
X34259819Y-28385952D01*
X34259819Y-28385952D02*
X34259819Y-28624047D01*
X34259819Y-28624047D02*
X34307438Y-28719285D01*
X34307438Y-28719285D02*
X34355057Y-28766904D01*
X34355057Y-28766904D02*
X34450295Y-28814523D01*
X34450295Y-28814523D02*
X34545533Y-28814523D01*
X34545533Y-28814523D02*
X34688390Y-28766904D01*
X34688390Y-28766904D02*
X35259819Y-28195476D01*
X35259819Y-28195476D02*
X35259819Y-28814523D01*
%TO.C,D2*%
X34639819Y-16471905D02*
X33639819Y-16471905D01*
X33639819Y-16471905D02*
X33639819Y-16710000D01*
X33639819Y-16710000D02*
X33687438Y-16852857D01*
X33687438Y-16852857D02*
X33782676Y-16948095D01*
X33782676Y-16948095D02*
X33877914Y-16995714D01*
X33877914Y-16995714D02*
X34068390Y-17043333D01*
X34068390Y-17043333D02*
X34211247Y-17043333D01*
X34211247Y-17043333D02*
X34401723Y-16995714D01*
X34401723Y-16995714D02*
X34496961Y-16948095D01*
X34496961Y-16948095D02*
X34592200Y-16852857D01*
X34592200Y-16852857D02*
X34639819Y-16710000D01*
X34639819Y-16710000D02*
X34639819Y-16471905D01*
X33735057Y-17424286D02*
X33687438Y-17471905D01*
X33687438Y-17471905D02*
X33639819Y-17567143D01*
X33639819Y-17567143D02*
X33639819Y-17805238D01*
X33639819Y-17805238D02*
X33687438Y-17900476D01*
X33687438Y-17900476D02*
X33735057Y-17948095D01*
X33735057Y-17948095D02*
X33830295Y-17995714D01*
X33830295Y-17995714D02*
X33925533Y-17995714D01*
X33925533Y-17995714D02*
X34068390Y-17948095D01*
X34068390Y-17948095D02*
X34639819Y-17376667D01*
X34639819Y-17376667D02*
X34639819Y-17995714D01*
%TO.C,D1*%
X19723094Y-12759819D02*
X19723094Y-11759819D01*
X19723094Y-11759819D02*
X19484999Y-11759819D01*
X19484999Y-11759819D02*
X19342142Y-11807438D01*
X19342142Y-11807438D02*
X19246904Y-11902676D01*
X19246904Y-11902676D02*
X19199285Y-11997914D01*
X19199285Y-11997914D02*
X19151666Y-12188390D01*
X19151666Y-12188390D02*
X19151666Y-12331247D01*
X19151666Y-12331247D02*
X19199285Y-12521723D01*
X19199285Y-12521723D02*
X19246904Y-12616961D01*
X19246904Y-12616961D02*
X19342142Y-12712200D01*
X19342142Y-12712200D02*
X19484999Y-12759819D01*
X19484999Y-12759819D02*
X19723094Y-12759819D01*
X18199285Y-12759819D02*
X18770713Y-12759819D01*
X18484999Y-12759819D02*
X18484999Y-11759819D01*
X18484999Y-11759819D02*
X18580237Y-11902676D01*
X18580237Y-11902676D02*
X18675475Y-11997914D01*
X18675475Y-11997914D02*
X18770713Y-12045533D01*
%TO.C,U3*%
X38864819Y-52848095D02*
X39674342Y-52848095D01*
X39674342Y-52848095D02*
X39769580Y-52895714D01*
X39769580Y-52895714D02*
X39817200Y-52943333D01*
X39817200Y-52943333D02*
X39864819Y-53038571D01*
X39864819Y-53038571D02*
X39864819Y-53229047D01*
X39864819Y-53229047D02*
X39817200Y-53324285D01*
X39817200Y-53324285D02*
X39769580Y-53371904D01*
X39769580Y-53371904D02*
X39674342Y-53419523D01*
X39674342Y-53419523D02*
X38864819Y-53419523D01*
X38864819Y-53800476D02*
X38864819Y-54419523D01*
X38864819Y-54419523D02*
X39245771Y-54086190D01*
X39245771Y-54086190D02*
X39245771Y-54229047D01*
X39245771Y-54229047D02*
X39293390Y-54324285D01*
X39293390Y-54324285D02*
X39341009Y-54371904D01*
X39341009Y-54371904D02*
X39436247Y-54419523D01*
X39436247Y-54419523D02*
X39674342Y-54419523D01*
X39674342Y-54419523D02*
X39769580Y-54371904D01*
X39769580Y-54371904D02*
X39817200Y-54324285D01*
X39817200Y-54324285D02*
X39864819Y-54229047D01*
X39864819Y-54229047D02*
X39864819Y-53943333D01*
X39864819Y-53943333D02*
X39817200Y-53848095D01*
X39817200Y-53848095D02*
X39769580Y-53800476D01*
%TO.C,D6*%
X44172094Y-22639819D02*
X44172094Y-21639819D01*
X44172094Y-21639819D02*
X43933999Y-21639819D01*
X43933999Y-21639819D02*
X43791142Y-21687438D01*
X43791142Y-21687438D02*
X43695904Y-21782676D01*
X43695904Y-21782676D02*
X43648285Y-21877914D01*
X43648285Y-21877914D02*
X43600666Y-22068390D01*
X43600666Y-22068390D02*
X43600666Y-22211247D01*
X43600666Y-22211247D02*
X43648285Y-22401723D01*
X43648285Y-22401723D02*
X43695904Y-22496961D01*
X43695904Y-22496961D02*
X43791142Y-22592200D01*
X43791142Y-22592200D02*
X43933999Y-22639819D01*
X43933999Y-22639819D02*
X44172094Y-22639819D01*
X42743523Y-21639819D02*
X42933999Y-21639819D01*
X42933999Y-21639819D02*
X43029237Y-21687438D01*
X43029237Y-21687438D02*
X43076856Y-21735057D01*
X43076856Y-21735057D02*
X43172094Y-21877914D01*
X43172094Y-21877914D02*
X43219713Y-22068390D01*
X43219713Y-22068390D02*
X43219713Y-22449342D01*
X43219713Y-22449342D02*
X43172094Y-22544580D01*
X43172094Y-22544580D02*
X43124475Y-22592200D01*
X43124475Y-22592200D02*
X43029237Y-22639819D01*
X43029237Y-22639819D02*
X42838761Y-22639819D01*
X42838761Y-22639819D02*
X42743523Y-22592200D01*
X42743523Y-22592200D02*
X42695904Y-22544580D01*
X42695904Y-22544580D02*
X42648285Y-22449342D01*
X42648285Y-22449342D02*
X42648285Y-22211247D01*
X42648285Y-22211247D02*
X42695904Y-22116009D01*
X42695904Y-22116009D02*
X42743523Y-22068390D01*
X42743523Y-22068390D02*
X42838761Y-22020771D01*
X42838761Y-22020771D02*
X43029237Y-22020771D01*
X43029237Y-22020771D02*
X43124475Y-22068390D01*
X43124475Y-22068390D02*
X43172094Y-22116009D01*
X43172094Y-22116009D02*
X43219713Y-22211247D01*
D11*
%TO.C,C1*%
X28368752Y-48425000D02*
X27846248Y-48425000D01*
X28368752Y-46955000D02*
X27846248Y-46955000D01*
%TO.C,C3*%
X52740000Y-24568748D02*
X52740000Y-25091252D01*
X51270000Y-24568748D02*
X51270000Y-25091252D01*
%TO.C,R1*%
X47660000Y-24602936D02*
X47660000Y-25057064D01*
X46190000Y-24602936D02*
X46190000Y-25057064D01*
%TO.C,R2*%
X47025000Y-51272936D02*
X47025000Y-51727064D01*
X45555000Y-51272936D02*
X45555000Y-51727064D01*
%TO.C,R3*%
X50200000Y-20517937D02*
X50200000Y-20972065D01*
X48730000Y-20517937D02*
X48730000Y-20972065D01*
%TO.C,R4*%
X50200000Y-24602936D02*
X50200000Y-25057064D01*
X48730000Y-24602936D02*
X48730000Y-25057064D01*
%TO.C,R5*%
X21625000Y-19522936D02*
X21625000Y-19977064D01*
X20155000Y-19522936D02*
X20155000Y-19977064D01*
%TO.C,R6*%
X62572936Y-26635000D02*
X63027064Y-26635000D01*
X62572936Y-28105000D02*
X63027064Y-28105000D01*
%TO.C,U2*%
X42755000Y-25535000D02*
X42485000Y-25535000D01*
X42485000Y-25535000D02*
X42485000Y-24435000D01*
X36125000Y-25535000D02*
X36125000Y-22705000D01*
X35855000Y-25535000D02*
X36125000Y-25535000D01*
X42755000Y-27035000D02*
X42755000Y-25535000D01*
X35855000Y-27035000D02*
X35855000Y-25535000D01*
%TO.C,D2*%
X30035000Y-20610000D02*
X30035000Y-15210000D01*
X33335000Y-20610000D02*
X30035000Y-20610000D01*
X33335000Y-20610000D02*
X33335000Y-15210000D01*
%TO.C,D1*%
X22535000Y-17455000D02*
X16835000Y-17455000D01*
X22535000Y-13155000D02*
X22535000Y-17455000D01*
X22535000Y-13155000D02*
X16835000Y-13155000D01*
%TO.C,U3*%
X43490000Y-54370000D02*
X43490000Y-52910000D01*
X43490000Y-54370000D02*
X42560000Y-54370000D01*
X40330000Y-54370000D02*
X40330000Y-52210000D01*
X40330000Y-54370000D02*
X41260000Y-54370000D01*
%TO.C,D6*%
X40034000Y-18035000D02*
X45434000Y-18035000D01*
X40034000Y-21335000D02*
X40034000Y-18035000D01*
X40034000Y-21335000D02*
X45434000Y-21335000D01*
%TD*%
M02*
